<?xml version="1.0"?>
<!-- Generated by SVGo and Plotinum VG -->
<svg width="300pt" height="300pt" viewBox="0 0 300 300"
	xmlns="http://www.w3.org/2000/svg"
	xmlns:xlink="http://www.w3.org/1999/xlink">
<g transform="scale(1, -1) translate(0, -300)">
<path d="M0,0L300,0L300,300L0,300Z" style="fill:#FFFFFF" />
<text x="40.688" y="-290.61" transform="scale(1, -1)"
	style="font-family:Liberation Serif;font-variant:normal;font-weight:normal;font-style:normal;font-size:12px">runtime of appending to list of size n, 10 tries</text>
<text x="175.57" y="-3.9023" transform="scale(1, -1)"
	style="font-family:Liberation Serif;font-variant:normal;font-weight:normal;font-style:normal;font-size:12px">n</text>
<text x="57.135" y="-16.541" transform="scale(1, -1)"
	style="font-family:Liberation Serif;font-variant:normal;font-weight:normal;font-style:normal;font-size:10px">0</text>
<text x="145.56" y="-16.541" transform="scale(1, -1)"
	style="font-family:Liberation Serif;font-variant:normal;font-weight:normal;font-style:normal;font-size:10px">20000</text>
<text x="243.99" y="-16.541" transform="scale(1, -1)"
	style="font-family:Liberation Serif;font-variant:normal;font-weight:normal;font-style:normal;font-size:10px">40000</text>
<path d="M59.635,24.363L59.635,32.363" style="fill:none;stroke:#000000;stroke-width:0.5" />
<path d="M158.06,24.363L158.06,32.363" style="fill:none;stroke:#000000;stroke-width:0.5" />
<path d="M256.49,24.363L256.49,32.363" style="fill:none;stroke:#000000;stroke-width:0.5" />
<path d="M108.85,28.363L108.85,32.363" style="fill:none;stroke:#000000;stroke-width:0.5" />
<path d="M207.28,28.363L207.28,32.363" style="fill:none;stroke:#000000;stroke-width:0.5" />
<path d="M59.635,32.363L297.5,32.363" style="fill:none;stroke:#000000;stroke-width:0.5" />
<g transform="rotate(90)">
<text x="133.97" y="9.3867" transform="scale(1, -1)"
	style="font-family:Liberation Serif;font-variant:normal;font-weight:normal;font-style:normal;font-size:12px">runtime (ns)</text>
</g>
<text x="15.885" y="-78.236" transform="scale(1, -1)"
	style="font-family:Liberation Serif;font-variant:normal;font-weight:normal;font-style:normal;font-size:10px">10000</text>
<text x="15.885" y="-116.37" transform="scale(1, -1)"
	style="font-family:Liberation Serif;font-variant:normal;font-weight:normal;font-style:normal;font-size:10px">20000</text>
<text x="15.885" y="-154.5" transform="scale(1, -1)"
	style="font-family:Liberation Serif;font-variant:normal;font-weight:normal;font-style:normal;font-size:10px">30000</text>
<text x="15.885" y="-192.63" transform="scale(1, -1)"
	style="font-family:Liberation Serif;font-variant:normal;font-weight:normal;font-style:normal;font-size:10px">40000</text>
<text x="15.885" y="-230.76" transform="scale(1, -1)"
	style="font-family:Liberation Serif;font-variant:normal;font-weight:normal;font-style:normal;font-size:10px">50000</text>
<text x="15.885" y="-268.9" transform="scale(1, -1)"
	style="font-family:Liberation Serif;font-variant:normal;font-weight:normal;font-style:normal;font-size:10px">60000</text>
<path d="M43.385,80.521L51.385,80.521" style="fill:none;stroke:#000000;stroke-width:0.5" />
<path d="M43.385,118.65L51.385,118.65" style="fill:none;stroke:#000000;stroke-width:0.5" />
<path d="M43.385,156.78L51.385,156.78" style="fill:none;stroke:#000000;stroke-width:0.5" />
<path d="M43.385,194.92L51.385,194.92" style="fill:none;stroke:#000000;stroke-width:0.5" />
<path d="M43.385,233.05L51.385,233.05" style="fill:none;stroke:#000000;stroke-width:0.5" />
<path d="M43.385,271.18L51.385,271.18" style="fill:none;stroke:#000000;stroke-width:0.5" />
<path d="M47.385,50.015L51.385,50.015" style="fill:none;stroke:#000000;stroke-width:0.5" />
<path d="M47.385,57.642L51.385,57.642" style="fill:none;stroke:#000000;stroke-width:0.5" />
<path d="M47.385,65.268L51.385,65.268" style="fill:none;stroke:#000000;stroke-width:0.5" />
<path d="M47.385,72.894L51.385,72.894" style="fill:none;stroke:#000000;stroke-width:0.5" />
<path d="M47.385,88.147L51.385,88.147" style="fill:none;stroke:#000000;stroke-width:0.5" />
<path d="M47.385,95.774L51.385,95.774" style="fill:none;stroke:#000000;stroke-width:0.5" />
<path d="M47.385,103.4L51.385,103.4" style="fill:none;stroke:#000000;stroke-width:0.5" />
<path d="M47.385,111.03L51.385,111.03" style="fill:none;stroke:#000000;stroke-width:0.5" />
<path d="M47.385,126.28L51.385,126.28" style="fill:none;stroke:#000000;stroke-width:0.5" />
<path d="M47.385,133.91L51.385,133.91" style="fill:none;stroke:#000000;stroke-width:0.5" />
<path d="M47.385,141.53L51.385,141.53" style="fill:none;stroke:#000000;stroke-width:0.5" />
<path d="M47.385,149.16L51.385,149.16" style="fill:none;stroke:#000000;stroke-width:0.5" />
<path d="M47.385,164.41L51.385,164.41" style="fill:none;stroke:#000000;stroke-width:0.5" />
<path d="M47.385,172.04L51.385,172.04" style="fill:none;stroke:#000000;stroke-width:0.5" />
<path d="M47.385,179.66L51.385,179.66" style="fill:none;stroke:#000000;stroke-width:0.5" />
<path d="M47.385,187.29L51.385,187.29" style="fill:none;stroke:#000000;stroke-width:0.5" />
<path d="M47.385,202.54L51.385,202.54" style="fill:none;stroke:#000000;stroke-width:0.5" />
<path d="M47.385,210.17L51.385,210.17" style="fill:none;stroke:#000000;stroke-width:0.5" />
<path d="M47.385,217.8L51.385,217.8" style="fill:none;stroke:#000000;stroke-width:0.5" />
<path d="M47.385,225.42L51.385,225.42" style="fill:none;stroke:#000000;stroke-width:0.5" />
<path d="M47.385,240.68L51.385,240.68" style="fill:none;stroke:#000000;stroke-width:0.5" />
<path d="M47.385,248.3L51.385,248.3" style="fill:none;stroke:#000000;stroke-width:0.5" />
<path d="M47.385,255.93L51.385,255.93" style="fill:none;stroke:#000000;stroke-width:0.5" />
<path d="M47.385,263.55L51.385,263.55" style="fill:none;stroke:#000000;stroke-width:0.5" />
<path d="M47.385,278.81L51.385,278.81" style="fill:none;stroke:#000000;stroke-width:0.5" />
<path d="M51.385,42.709L51.385,284.21" style="fill:none;stroke:#000000;stroke-width:0.5" />
<path d="M59.635,45.209L59.635,40.209" style="fill:none;stroke:#FF0000;stroke-width:0.5" />
<path d="M57.135,42.709L62.135,42.709" style="fill:none;stroke:#FF0000;stroke-width:0.5" />
<path d="M67.834,53.308L67.834,48.308" style="fill:none;stroke:#FF0000;stroke-width:0.5" />
<path d="M65.334,50.808L70.334,50.808" style="fill:none;stroke:#FF0000;stroke-width:0.5" />
<path d="M76.038,62.048L76.038,57.048" style="fill:none;stroke:#FF0000;stroke-width:0.5" />
<path d="M73.538,59.548L78.538,59.548" style="fill:none;stroke:#FF0000;stroke-width:0.5" />
<path d="M84.242,71.104L84.242,66.104" style="fill:none;stroke:#FF0000;stroke-width:0.5" />
<path d="M81.742,68.604L86.742,68.604" style="fill:none;stroke:#FF0000;stroke-width:0.5" />
<path d="M92.441,80.638L92.441,75.638" style="fill:none;stroke:#FF0000;stroke-width:0.5" />
<path d="M89.941,78.138L94.941,78.138" style="fill:none;stroke:#FF0000;stroke-width:0.5" />
<path d="M100.64,89.377L100.64,84.377" style="fill:none;stroke:#FF0000;stroke-width:0.5" />
<path d="M98.145,86.877L103.14,86.877" style="fill:none;stroke:#FF0000;stroke-width:0.5" />
<path d="M108.85,98.75L108.85,93.75" style="fill:none;stroke:#FF0000;stroke-width:0.5" />
<path d="M106.35,96.25L111.35,96.25" style="fill:none;stroke:#FF0000;stroke-width:0.5" />
<path d="M117.05,106.85L117.05,101.85" style="fill:none;stroke:#FF0000;stroke-width:0.5" />
<path d="M114.55,104.35L119.55,104.35" style="fill:none;stroke:#FF0000;stroke-width:0.5" />
<path d="M125.25,115.59L125.25,110.59" style="fill:none;stroke:#FF0000;stroke-width:0.5" />
<path d="M122.75,113.09L127.75,113.09" style="fill:none;stroke:#FF0000;stroke-width:0.5" />
<path d="M133.46,123.69L133.46,118.69" style="fill:none;stroke:#FF0000;stroke-width:0.5" />
<path d="M130.96,121.19L135.96,121.19" style="fill:none;stroke:#FF0000;stroke-width:0.5" />
<path d="M141.65,129.73L141.65,124.73" style="fill:none;stroke:#FF0000;stroke-width:0.5" />
<path d="M139.15,127.23L144.15,127.23" style="fill:none;stroke:#FF0000;stroke-width:0.5" />
<path d="M149.86,138.63L149.86,133.63" style="fill:none;stroke:#FF0000;stroke-width:0.5" />
<path d="M147.36,136.13L152.36,136.13" style="fill:none;stroke:#FF0000;stroke-width:0.5" />
<path d="M158.06,146.42L158.06,141.42" style="fill:none;stroke:#FF0000;stroke-width:0.5" />
<path d="M155.56,143.92L160.56,143.92" style="fill:none;stroke:#FF0000;stroke-width:0.5" />
<path d="M166.26,154.04L166.26,149.04" style="fill:none;stroke:#FF0000;stroke-width:0.5" />
<path d="M163.76,151.54L168.76,151.54" style="fill:none;stroke:#FF0000;stroke-width:0.5" />
<path d="M174.47,162.94L174.47,157.94" style="fill:none;stroke:#FF0000;stroke-width:0.5" />
<path d="M171.97,160.44L176.97,160.44" style="fill:none;stroke:#FF0000;stroke-width:0.5" />
<path d="M182.67,171.04L182.67,166.04" style="fill:none;stroke:#FF0000;stroke-width:0.5" />
<path d="M180.17,168.54L185.17,168.54" style="fill:none;stroke:#FF0000;stroke-width:0.5" />
<path d="M190.87,178.67L190.87,173.67" style="fill:none;stroke:#FF0000;stroke-width:0.5" />
<path d="M188.37,176.17L193.37,176.17" style="fill:none;stroke:#FF0000;stroke-width:0.5" />
<path d="M199.07,186.77L199.07,181.77" style="fill:none;stroke:#FF0000;stroke-width:0.5" />
<path d="M196.57,184.27L201.57,184.27" style="fill:none;stroke:#FF0000;stroke-width:0.5" />
<path d="M207.28,197.1L207.28,192.1" style="fill:none;stroke:#FF0000;stroke-width:0.5" />
<path d="M204.78,194.6L209.78,194.6" style="fill:none;stroke:#FF0000;stroke-width:0.5" />
<path d="M215.48,203.77L215.48,198.77" style="fill:none;stroke:#FF0000;stroke-width:0.5" />
<path d="M212.98,201.27L217.98,201.27" style="fill:none;stroke:#FF0000;stroke-width:0.5" />
<path d="M223.68,211.56L223.68,206.56" style="fill:none;stroke:#FF0000;stroke-width:0.5" />
<path d="M221.18,209.06L226.18,209.06" style="fill:none;stroke:#FF0000;stroke-width:0.5" />
<path d="M231.88,221.57L231.88,216.57" style="fill:none;stroke:#FF0000;stroke-width:0.5" />
<path d="M229.38,219.07L234.38,219.07" style="fill:none;stroke:#FF0000;stroke-width:0.5" />
<path d="M240.08,229.67L240.08,224.67" style="fill:none;stroke:#FF0000;stroke-width:0.5" />
<path d="M237.58,227.17L242.58,227.17" style="fill:none;stroke:#FF0000;stroke-width:0.5" />
<path d="M248.29,236.66L248.29,231.66" style="fill:none;stroke:#FF0000;stroke-width:0.5" />
<path d="M245.79,234.16L250.79,234.16" style="fill:none;stroke:#FF0000;stroke-width:0.5" />
<path d="M256.49,243.81L256.49,238.81" style="fill:none;stroke:#FF0000;stroke-width:0.5" />
<path d="M253.99,241.31L258.99,241.31" style="fill:none;stroke:#FF0000;stroke-width:0.5" />
<path d="M264.69,254.93L264.69,249.93" style="fill:none;stroke:#FF0000;stroke-width:0.5" />
<path d="M262.19,252.43L267.19,252.43" style="fill:none;stroke:#FF0000;stroke-width:0.5" />
<path d="M272.89,260.18L272.89,255.18" style="fill:none;stroke:#FF0000;stroke-width:0.5" />
<path d="M270.39,257.68L275.39,257.68" style="fill:none;stroke:#FF0000;stroke-width:0.5" />
<path d="M281.1,270.66L281.1,265.66" style="fill:none;stroke:#FF0000;stroke-width:0.5" />
<path d="M278.6,268.16L283.6,268.16" style="fill:none;stroke:#FF0000;stroke-width:0.5" />
<path d="M289.3,277.49L289.3,272.49" style="fill:none;stroke:#FF0000;stroke-width:0.5" />
<path d="M286.8,274.99L291.8,274.99" style="fill:none;stroke:#FF0000;stroke-width:0.5" />
<path d="M297.5,286.71L297.5,281.71" style="fill:none;stroke:#FF0000;stroke-width:0.5" />
<path d="M295,284.21L300,284.21" style="fill:none;stroke:#FF0000;stroke-width:0.5" />
<path d="M290,47.801L290,42.801" style="fill:none;stroke:#FF0000;stroke-width:0.5" />
<path d="M287.5,45.301L292.5,45.301" style="fill:none;stroke:#FF0000;stroke-width:0.5" />
<text x="241.68" y="-42.813" transform="scale(1, -1)"
	style="font-family:Liberation Serif;font-variant:normal;font-weight:normal;font-style:normal;font-size:12px">median</text>
</g>
</svg>
