<?xml version="1.0"?>
<!-- Generated by SVGo and Plotinum VG -->
<svg width="300pt" height="300pt" viewBox="0 0 300 300"
	xmlns="http://www.w3.org/2000/svg"
	xmlns:xlink="http://www.w3.org/1999/xlink">
<g transform="scale(1, -1) translate(0, -300)">
<path d="M0,0L300,0L300,300L0,300Z" style="fill:#FFFFFF" />
<text x="40.688" y="-290.61" transform="scale(1, -1)"
	style="font-family:Liberation Serif;font-variant:normal;font-weight:normal;font-style:normal;font-size:12px">runtime of appending to list of size n, 10 tries</text>
<text x="175.57" y="-3.9023" transform="scale(1, -1)"
	style="font-family:Liberation Serif;font-variant:normal;font-weight:normal;font-style:normal;font-size:12px">n</text>
<text x="57.135" y="-16.541" transform="scale(1, -1)"
	style="font-family:Liberation Serif;font-variant:normal;font-weight:normal;font-style:normal;font-size:10px">0</text>
<text x="145.56" y="-16.541" transform="scale(1, -1)"
	style="font-family:Liberation Serif;font-variant:normal;font-weight:normal;font-style:normal;font-size:10px">20000</text>
<text x="243.99" y="-16.541" transform="scale(1, -1)"
	style="font-family:Liberation Serif;font-variant:normal;font-weight:normal;font-style:normal;font-size:10px">40000</text>
<path d="M59.635,24.363L59.635,32.363" style="fill:none;stroke:#000000;stroke-width:0.5" />
<path d="M158.06,24.363L158.06,32.363" style="fill:none;stroke:#000000;stroke-width:0.5" />
<path d="M256.49,24.363L256.49,32.363" style="fill:none;stroke:#000000;stroke-width:0.5" />
<path d="M108.85,28.363L108.85,32.363" style="fill:none;stroke:#000000;stroke-width:0.5" />
<path d="M207.28,28.363L207.28,32.363" style="fill:none;stroke:#000000;stroke-width:0.5" />
<path d="M59.635,32.363L297.5,32.363" style="fill:none;stroke:#000000;stroke-width:0.5" />
<g transform="rotate(90)">
<text x="133.97" y="9.3867" transform="scale(1, -1)"
	style="font-family:Liberation Serif;font-variant:normal;font-weight:normal;font-style:normal;font-size:12px">runtime (ns)</text>
</g>
<text x="15.885" y="-77.675" transform="scale(1, -1)"
	style="font-family:Liberation Serif;font-variant:normal;font-weight:normal;font-style:normal;font-size:10px">10000</text>
<text x="15.885" y="-115.24" transform="scale(1, -1)"
	style="font-family:Liberation Serif;font-variant:normal;font-weight:normal;font-style:normal;font-size:10px">20000</text>
<text x="15.885" y="-152.8" transform="scale(1, -1)"
	style="font-family:Liberation Serif;font-variant:normal;font-weight:normal;font-style:normal;font-size:10px">30000</text>
<text x="15.885" y="-190.37" transform="scale(1, -1)"
	style="font-family:Liberation Serif;font-variant:normal;font-weight:normal;font-style:normal;font-size:10px">40000</text>
<text x="15.885" y="-227.93" transform="scale(1, -1)"
	style="font-family:Liberation Serif;font-variant:normal;font-weight:normal;font-style:normal;font-size:10px">50000</text>
<text x="15.885" y="-265.49" transform="scale(1, -1)"
	style="font-family:Liberation Serif;font-variant:normal;font-weight:normal;font-style:normal;font-size:10px">60000</text>
<path d="M43.385,79.961L51.385,79.961" style="fill:none;stroke:#000000;stroke-width:0.5" />
<path d="M43.385,117.52L51.385,117.52" style="fill:none;stroke:#000000;stroke-width:0.5" />
<path d="M43.385,155.09L51.385,155.09" style="fill:none;stroke:#000000;stroke-width:0.5" />
<path d="M43.385,192.65L51.385,192.65" style="fill:none;stroke:#000000;stroke-width:0.5" />
<path d="M43.385,230.21L51.385,230.21" style="fill:none;stroke:#000000;stroke-width:0.5" />
<path d="M43.385,267.78L51.385,267.78" style="fill:none;stroke:#000000;stroke-width:0.5" />
<path d="M47.385,49.91L51.385,49.91" style="fill:none;stroke:#000000;stroke-width:0.5" />
<path d="M47.385,57.423L51.385,57.423" style="fill:none;stroke:#000000;stroke-width:0.5" />
<path d="M47.385,64.935L51.385,64.935" style="fill:none;stroke:#000000;stroke-width:0.5" />
<path d="M47.385,72.448L51.385,72.448" style="fill:none;stroke:#000000;stroke-width:0.5" />
<path d="M47.385,87.473L51.385,87.473" style="fill:none;stroke:#000000;stroke-width:0.5" />
<path d="M47.385,94.986L51.385,94.986" style="fill:none;stroke:#000000;stroke-width:0.5" />
<path d="M47.385,102.5L51.385,102.5" style="fill:none;stroke:#000000;stroke-width:0.5" />
<path d="M47.385,110.01L51.385,110.01" style="fill:none;stroke:#000000;stroke-width:0.5" />
<path d="M47.385,125.04L51.385,125.04" style="fill:none;stroke:#000000;stroke-width:0.5" />
<path d="M47.385,132.55L51.385,132.55" style="fill:none;stroke:#000000;stroke-width:0.5" />
<path d="M47.385,140.06L51.385,140.06" style="fill:none;stroke:#000000;stroke-width:0.5" />
<path d="M47.385,147.57L51.385,147.57" style="fill:none;stroke:#000000;stroke-width:0.5" />
<path d="M47.385,162.6L51.385,162.6" style="fill:none;stroke:#000000;stroke-width:0.5" />
<path d="M47.385,170.11L51.385,170.11" style="fill:none;stroke:#000000;stroke-width:0.5" />
<path d="M47.385,177.63L51.385,177.63" style="fill:none;stroke:#000000;stroke-width:0.5" />
<path d="M47.385,185.14L51.385,185.14" style="fill:none;stroke:#000000;stroke-width:0.5" />
<path d="M47.385,200.16L51.385,200.16" style="fill:none;stroke:#000000;stroke-width:0.5" />
<path d="M47.385,207.68L51.385,207.68" style="fill:none;stroke:#000000;stroke-width:0.5" />
<path d="M47.385,215.19L51.385,215.19" style="fill:none;stroke:#000000;stroke-width:0.5" />
<path d="M47.385,222.7L51.385,222.7" style="fill:none;stroke:#000000;stroke-width:0.5" />
<path d="M47.385,237.73L51.385,237.73" style="fill:none;stroke:#000000;stroke-width:0.5" />
<path d="M47.385,245.24L51.385,245.24" style="fill:none;stroke:#000000;stroke-width:0.5" />
<path d="M47.385,252.75L51.385,252.75" style="fill:none;stroke:#000000;stroke-width:0.5" />
<path d="M47.385,260.26L51.385,260.26" style="fill:none;stroke:#000000;stroke-width:0.5" />
<path d="M47.385,275.29L51.385,275.29" style="fill:none;stroke:#000000;stroke-width:0.5" />
<path d="M47.385,282.8L51.385,282.8" style="fill:none;stroke:#000000;stroke-width:0.5" />
<path d="M51.385,42.709L51.385,284.21" style="fill:none;stroke:#000000;stroke-width:0.5" />
<path d="M59.635,45.209L59.635,40.209" style="fill:none;stroke:#FF0000;stroke-width:0.5" />
<path d="M57.135,42.709L62.135,42.709" style="fill:none;stroke:#FF0000;stroke-width:0.5" />
<path d="M67.834,53.349L67.834,48.349" style="fill:none;stroke:#FF0000;stroke-width:0.5" />
<path d="M65.334,50.849L70.334,50.849" style="fill:none;stroke:#FF0000;stroke-width:0.5" />
<path d="M76.038,61.801L76.038,56.801" style="fill:none;stroke:#FF0000;stroke-width:0.5" />
<path d="M73.538,59.301L78.538,59.301" style="fill:none;stroke:#FF0000;stroke-width:0.5" />
<path d="M84.242,71.346L84.242,66.346" style="fill:none;stroke:#FF0000;stroke-width:0.5" />
<path d="M81.742,68.846L86.742,68.846" style="fill:none;stroke:#FF0000;stroke-width:0.5" />
<path d="M92.441,80.74L92.441,75.74" style="fill:none;stroke:#FF0000;stroke-width:0.5" />
<path d="M89.941,78.24L94.941,78.24" style="fill:none;stroke:#FF0000;stroke-width:0.5" />
<path d="M100.64,89.504L100.64,84.504" style="fill:none;stroke:#FF0000;stroke-width:0.5" />
<path d="M98.145,87.004L103.14,87.004" style="fill:none;stroke:#FF0000;stroke-width:0.5" />
<path d="M108.85,98.267L108.85,93.267" style="fill:none;stroke:#FF0000;stroke-width:0.5" />
<path d="M106.35,95.767L111.35,95.767" style="fill:none;stroke:#FF0000;stroke-width:0.5" />
<path d="M117.05,106.56L117.05,101.56" style="fill:none;stroke:#FF0000;stroke-width:0.5" />
<path d="M114.55,104.06L119.55,104.06" style="fill:none;stroke:#FF0000;stroke-width:0.5" />
<path d="M125.25,115.02L125.25,110.02" style="fill:none;stroke:#FF0000;stroke-width:0.5" />
<path d="M122.75,112.52L127.75,112.52" style="fill:none;stroke:#FF0000;stroke-width:0.5" />
<path d="M133.46,123L133.46,118" style="fill:none;stroke:#FF0000;stroke-width:0.5" />
<path d="M130.96,120.5L135.96,120.5" style="fill:none;stroke:#FF0000;stroke-width:0.5" />
<path d="M141.65,130.82L141.65,125.82" style="fill:none;stroke:#FF0000;stroke-width:0.5" />
<path d="M139.15,128.32L144.15,128.32" style="fill:none;stroke:#FF0000;stroke-width:0.5" />
<path d="M149.86,138.18L149.86,133.18" style="fill:none;stroke:#FF0000;stroke-width:0.5" />
<path d="M147.36,135.68L152.36,135.68" style="fill:none;stroke:#FF0000;stroke-width:0.5" />
<path d="M158.06,146.63L158.06,141.63" style="fill:none;stroke:#FF0000;stroke-width:0.5" />
<path d="M155.56,144.13L160.56,144.13" style="fill:none;stroke:#FF0000;stroke-width:0.5" />
<path d="M166.26,155.08L166.26,150.08" style="fill:none;stroke:#FF0000;stroke-width:0.5" />
<path d="M163.76,152.58L168.76,152.58" style="fill:none;stroke:#FF0000;stroke-width:0.5" />
<path d="M174.47,163.06L174.47,158.06" style="fill:none;stroke:#FF0000;stroke-width:0.5" />
<path d="M171.97,160.56L176.97,160.56" style="fill:none;stroke:#FF0000;stroke-width:0.5" />
<path d="M182.67,173.39L182.67,168.39" style="fill:none;stroke:#FF0000;stroke-width:0.5" />
<path d="M180.17,170.89L185.17,170.89" style="fill:none;stroke:#FF0000;stroke-width:0.5" />
<path d="M190.87,178.72L190.87,173.72" style="fill:none;stroke:#FF0000;stroke-width:0.5" />
<path d="M188.37,176.22L193.37,176.22" style="fill:none;stroke:#FF0000;stroke-width:0.5" />
<path d="M199.07,188.58L199.07,183.58" style="fill:none;stroke:#FF0000;stroke-width:0.5" />
<path d="M196.57,186.08L201.57,186.08" style="fill:none;stroke:#FF0000;stroke-width:0.5" />
<path d="M207.28,195.93L207.28,190.93" style="fill:none;stroke:#FF0000;stroke-width:0.5" />
<path d="M204.78,193.43L209.78,193.43" style="fill:none;stroke:#FF0000;stroke-width:0.5" />
<path d="M215.48,204.7L215.48,199.7" style="fill:none;stroke:#FF0000;stroke-width:0.5" />
<path d="M212.98,202.2L217.98,202.2" style="fill:none;stroke:#FF0000;stroke-width:0.5" />
<path d="M223.68,210.96L223.68,205.96" style="fill:none;stroke:#FF0000;stroke-width:0.5" />
<path d="M221.18,208.46L226.18,208.46" style="fill:none;stroke:#FF0000;stroke-width:0.5" />
<path d="M231.88,221.76L231.88,216.76" style="fill:none;stroke:#FF0000;stroke-width:0.5" />
<path d="M229.38,219.26L234.38,219.26" style="fill:none;stroke:#FF0000;stroke-width:0.5" />
<path d="M240.08,228.96L240.08,223.96" style="fill:none;stroke:#FF0000;stroke-width:0.5" />
<path d="M237.58,226.46L242.58,226.46" style="fill:none;stroke:#FF0000;stroke-width:0.5" />
<path d="M248.29,238.04L248.29,233.04" style="fill:none;stroke:#FF0000;stroke-width:0.5" />
<path d="M245.79,235.54L250.79,235.54" style="fill:none;stroke:#FF0000;stroke-width:0.5" />
<path d="M256.49,245.86L256.49,240.86" style="fill:none;stroke:#FF0000;stroke-width:0.5" />
<path d="M253.99,243.36L258.99,243.36" style="fill:none;stroke:#FF0000;stroke-width:0.5" />
<path d="M264.69,253.69L264.69,248.69" style="fill:none;stroke:#FF0000;stroke-width:0.5" />
<path d="M262.19,251.19L267.19,251.19" style="fill:none;stroke:#FF0000;stroke-width:0.5" />
<path d="M272.89,261.51L272.89,256.51" style="fill:none;stroke:#FF0000;stroke-width:0.5" />
<path d="M270.39,259.01L275.39,259.01" style="fill:none;stroke:#FF0000;stroke-width:0.5" />
<path d="M281.1,270.28L281.1,265.28" style="fill:none;stroke:#FF0000;stroke-width:0.5" />
<path d="M278.6,267.78L283.6,267.78" style="fill:none;stroke:#FF0000;stroke-width:0.5" />
<path d="M289.3,279.2L289.3,274.2" style="fill:none;stroke:#FF0000;stroke-width:0.5" />
<path d="M286.8,276.7L291.8,276.7" style="fill:none;stroke:#FF0000;stroke-width:0.5" />
<path d="M297.5,286.71L297.5,281.71" style="fill:none;stroke:#FF0000;stroke-width:0.5" />
<path d="M295,284.21L300,284.21" style="fill:none;stroke:#FF0000;stroke-width:0.5" />
<path d="M290,47.801L290,42.801" style="fill:none;stroke:#FF0000;stroke-width:0.5" />
<path d="M287.5,45.301L292.5,45.301" style="fill:none;stroke:#FF0000;stroke-width:0.5" />
<text x="241.68" y="-42.813" transform="scale(1, -1)"
	style="font-family:Liberation Serif;font-variant:normal;font-weight:normal;font-style:normal;font-size:12px">median</text>
</g>
</svg>
