<?xml version="1.0"?>
<!-- Generated by SVGo and Plotinum VG -->
<svg width="300pt" height="300pt" viewBox="0 0 300 300"
	xmlns="http://www.w3.org/2000/svg"
	xmlns:xlink="http://www.w3.org/1999/xlink">
<g transform="scale(1, -1) translate(0, -300)">
<path d="M0,0L300,0L300,300L0,300Z" style="fill:#FFFFFF" />
<text x="43.854" y="-290.61" transform="scale(1, -1)"
	style="font-family:Liberation Serif;font-variant:normal;font-weight:normal;font-style:normal;font-size:12px">runtime of appending list of size n, 100 tries</text>
<text x="170.57" y="-3.9023" transform="scale(1, -1)"
	style="font-family:Liberation Serif;font-variant:normal;font-weight:normal;font-style:normal;font-size:12px">n</text>
<text x="47.135" y="-16.541" transform="scale(1, -1)"
	style="font-family:Liberation Serif;font-variant:normal;font-weight:normal;font-style:normal;font-size:10px">0</text>
<text x="115.51" y="-16.541" transform="scale(1, -1)"
	style="font-family:Liberation Serif;font-variant:normal;font-weight:normal;font-style:normal;font-size:10px">3000</text>
<text x="191.39" y="-16.541" transform="scale(1, -1)"
	style="font-family:Liberation Serif;font-variant:normal;font-weight:normal;font-style:normal;font-size:10px">6000</text>
<text x="267.27" y="-16.541" transform="scale(1, -1)"
	style="font-family:Liberation Serif;font-variant:normal;font-weight:normal;font-style:normal;font-size:10px">9000</text>
<path d="M49.635,24.363L49.635,32.363" style="fill:none;stroke:#000000;stroke-width:0.5" />
<path d="M125.51,24.363L125.51,32.363" style="fill:none;stroke:#000000;stroke-width:0.5" />
<path d="M201.39,24.363L201.39,32.363" style="fill:none;stroke:#000000;stroke-width:0.5" />
<path d="M277.27,24.363L277.27,32.363" style="fill:none;stroke:#000000;stroke-width:0.5" />
<path d="M74.927,28.363L74.927,32.363" style="fill:none;stroke:#000000;stroke-width:0.5" />
<path d="M100.22,28.363L100.22,32.363" style="fill:none;stroke:#000000;stroke-width:0.5" />
<path d="M150.8,28.363L150.8,32.363" style="fill:none;stroke:#000000;stroke-width:0.5" />
<path d="M176.1,28.363L176.1,32.363" style="fill:none;stroke:#000000;stroke-width:0.5" />
<path d="M226.68,28.363L226.68,32.363" style="fill:none;stroke:#000000;stroke-width:0.5" />
<path d="M251.97,28.363L251.97,32.363" style="fill:none;stroke:#000000;stroke-width:0.5" />
<path d="M49.635,32.363L297.5,32.363" style="fill:none;stroke:#000000;stroke-width:0.5" />
<g transform="rotate(90)">
<text x="133.97" y="9.3867" transform="scale(1, -1)"
	style="font-family:Liberation Serif;font-variant:normal;font-weight:normal;font-style:normal;font-size:12px">runtime (ns)</text>
</g>
<text x="15.885" y="-43.91" transform="scale(1, -1)"
	style="font-family:Liberation Serif;font-variant:normal;font-weight:normal;font-style:normal;font-size:10px">400</text>
<text x="15.885" y="-155.91" transform="scale(1, -1)"
	style="font-family:Liberation Serif;font-variant:normal;font-weight:normal;font-style:normal;font-size:10px">480</text>
<text x="15.885" y="-267.91" transform="scale(1, -1)"
	style="font-family:Liberation Serif;font-variant:normal;font-weight:normal;font-style:normal;font-size:10px">560</text>
<path d="M33.385,46.195L41.385,46.195" style="fill:none;stroke:#000000;stroke-width:0.5" />
<path d="M33.385,158.2L41.385,158.2" style="fill:none;stroke:#000000;stroke-width:0.5" />
<path d="M33.385,270.2L41.385,270.2" style="fill:none;stroke:#000000;stroke-width:0.5" />
<path d="M37.385,102.2L41.385,102.2" style="fill:none;stroke:#000000;stroke-width:0.5" />
<path d="M37.385,214.2L41.385,214.2" style="fill:none;stroke:#000000;stroke-width:0.5" />
<path d="M41.385,42.709L41.385,284.21" style="fill:none;stroke:#000000;stroke-width:0.5" />
<path d="M49.635,77.759L49.635,72.759" style="fill:none;stroke:#FF0000;stroke-width:0.5" />
<path d="M47.135,75.259L52.135,75.259" style="fill:none;stroke:#FF0000;stroke-width:0.5" />
<path d="M54.693,52.279L54.693,47.279" style="fill:none;stroke:#FF0000;stroke-width:0.5" />
<path d="M52.193,49.779L57.193,49.779" style="fill:none;stroke:#FF0000;stroke-width:0.5" />
<path d="M59.752,45.209L59.752,40.209" style="fill:none;stroke:#FF0000;stroke-width:0.5" />
<path d="M57.252,42.709L62.252,42.709" style="fill:none;stroke:#FF0000;stroke-width:0.5" />
<path d="M64.81,77.283L64.81,72.283" style="fill:none;stroke:#FF0000;stroke-width:0.5" />
<path d="M62.31,74.783L67.31,74.783" style="fill:none;stroke:#FF0000;stroke-width:0.5" />
<path d="M69.869,80.195L69.869,75.195" style="fill:none;stroke:#FF0000;stroke-width:0.5" />
<path d="M67.369,77.695L72.369,77.695" style="fill:none;stroke:#FF0000;stroke-width:0.5" />
<path d="M74.927,149.16L74.927,144.16" style="fill:none;stroke:#FF0000;stroke-width:0.5" />
<path d="M72.427,146.66L77.427,146.66" style="fill:none;stroke:#FF0000;stroke-width:0.5" />
<path d="M79.986,89.589L79.986,84.589" style="fill:none;stroke:#FF0000;stroke-width:0.5" />
<path d="M77.486,87.089L82.486,87.089" style="fill:none;stroke:#FF0000;stroke-width:0.5" />
<path d="M85.044,109.4L85.044,104.4" style="fill:none;stroke:#FF0000;stroke-width:0.5" />
<path d="M82.544,106.9L87.544,106.9" style="fill:none;stroke:#FF0000;stroke-width:0.5" />
<path d="M90.103,115.77L90.103,110.77" style="fill:none;stroke:#FF0000;stroke-width:0.5" />
<path d="M87.603,113.27L92.603,113.27" style="fill:none;stroke:#FF0000;stroke-width:0.5" />
<path d="M95.161,135.05L95.161,130.05" style="fill:none;stroke:#FF0000;stroke-width:0.5" />
<path d="M92.661,132.55L97.661,132.55" style="fill:none;stroke:#FF0000;stroke-width:0.5" />
<path d="M100.22,128.58L100.22,123.58" style="fill:none;stroke:#FF0000;stroke-width:0.5" />
<path d="M97.72,126.08L102.72,126.08" style="fill:none;stroke:#FF0000;stroke-width:0.5" />
<path d="M105.28,148.49L105.28,143.49" style="fill:none;stroke:#FF0000;stroke-width:0.5" />
<path d="M102.78,145.99L107.78,145.99" style="fill:none;stroke:#FF0000;stroke-width:0.5" />
<path d="M110.34,177.09L110.34,172.09" style="fill:none;stroke:#FF0000;stroke-width:0.5" />
<path d="M107.84,174.59L112.84,174.59" style="fill:none;stroke:#FF0000;stroke-width:0.5" />
<path d="M115.39,193.36L115.39,188.36" style="fill:none;stroke:#FF0000;stroke-width:0.5" />
<path d="M112.89,190.86L117.89,190.86" style="fill:none;stroke:#FF0000;stroke-width:0.5" />
<path d="M120.45,190.4L120.45,185.4" style="fill:none;stroke:#FF0000;stroke-width:0.5" />
<path d="M117.95,187.9L122.95,187.9" style="fill:none;stroke:#FF0000;stroke-width:0.5" />
<path d="M125.51,198.55L125.51,193.55" style="fill:none;stroke:#FF0000;stroke-width:0.5" />
<path d="M123.01,196.05L128.01,196.05" style="fill:none;stroke:#FF0000;stroke-width:0.5" />
<path d="M130.57,238.28L130.57,233.28" style="fill:none;stroke:#FF0000;stroke-width:0.5" />
<path d="M128.07,235.78L133.07,235.78" style="fill:none;stroke:#FF0000;stroke-width:0.5" />
<path d="M135.63,210.28L135.63,205.28" style="fill:none;stroke:#FF0000;stroke-width:0.5" />
<path d="M133.13,207.78L138.13,207.78" style="fill:none;stroke:#FF0000;stroke-width:0.5" />
<path d="M140.69,241.9L140.69,236.9" style="fill:none;stroke:#FF0000;stroke-width:0.5" />
<path d="M138.19,239.4L143.19,239.4" style="fill:none;stroke:#FF0000;stroke-width:0.5" />
<path d="M145.75,229.49L145.75,224.49" style="fill:none;stroke:#FF0000;stroke-width:0.5" />
<path d="M143.25,226.99L148.25,226.99" style="fill:none;stroke:#FF0000;stroke-width:0.5" />
<path d="M150.8,272.19L150.8,267.19" style="fill:none;stroke:#FF0000;stroke-width:0.5" />
<path d="M148.3,269.69L153.3,269.69" style="fill:none;stroke:#FF0000;stroke-width:0.5" />
<path d="M155.86,244.22L155.86,239.22" style="fill:none;stroke:#FF0000;stroke-width:0.5" />
<path d="M153.36,241.72L158.36,241.72" style="fill:none;stroke:#FF0000;stroke-width:0.5" />
<path d="M160.92,236.69L160.92,231.69" style="fill:none;stroke:#FF0000;stroke-width:0.5" />
<path d="M158.42,234.19L163.42,234.19" style="fill:none;stroke:#FF0000;stroke-width:0.5" />
<path d="M165.98,241.81L165.98,236.81" style="fill:none;stroke:#FF0000;stroke-width:0.5" />
<path d="M163.48,239.31L168.48,239.31" style="fill:none;stroke:#FF0000;stroke-width:0.5" />
<path d="M171.04,240.57L171.04,235.57" style="fill:none;stroke:#FF0000;stroke-width:0.5" />
<path d="M168.54,238.07L173.54,238.07" style="fill:none;stroke:#FF0000;stroke-width:0.5" />
<path d="M176.1,247.59L176.1,242.59" style="fill:none;stroke:#FF0000;stroke-width:0.5" />
<path d="M173.6,245.09L178.6,245.09" style="fill:none;stroke:#FF0000;stroke-width:0.5" />
<path d="M181.16,239.92L181.16,234.92" style="fill:none;stroke:#FF0000;stroke-width:0.5" />
<path d="M178.66,237.42L183.66,237.42" style="fill:none;stroke:#FF0000;stroke-width:0.5" />
<path d="M186.21,261.09L186.21,256.09" style="fill:none;stroke:#FF0000;stroke-width:0.5" />
<path d="M183.71,258.59L188.71,258.59" style="fill:none;stroke:#FF0000;stroke-width:0.5" />
<path d="M191.27,244.11L191.27,239.11" style="fill:none;stroke:#FF0000;stroke-width:0.5" />
<path d="M188.77,241.61L193.77,241.61" style="fill:none;stroke:#FF0000;stroke-width:0.5" />
<path d="M196.33,253.49L196.33,248.49" style="fill:none;stroke:#FF0000;stroke-width:0.5" />
<path d="M193.83,250.99L198.83,250.99" style="fill:none;stroke:#FF0000;stroke-width:0.5" />
<path d="M201.39,223.68L201.39,218.68" style="fill:none;stroke:#FF0000;stroke-width:0.5" />
<path d="M198.89,221.18L203.89,221.18" style="fill:none;stroke:#FF0000;stroke-width:0.5" />
<path d="M206.45,248.83L206.45,243.83" style="fill:none;stroke:#FF0000;stroke-width:0.5" />
<path d="M203.95,246.33L208.95,246.33" style="fill:none;stroke:#FF0000;stroke-width:0.5" />
<path d="M211.51,201.46L211.51,196.46" style="fill:none;stroke:#FF0000;stroke-width:0.5" />
<path d="M209.01,198.96L214.01,198.96" style="fill:none;stroke:#FF0000;stroke-width:0.5" />
<path d="M216.56,236.46L216.56,231.46" style="fill:none;stroke:#FF0000;stroke-width:0.5" />
<path d="M214.06,233.96L219.06,233.96" style="fill:none;stroke:#FF0000;stroke-width:0.5" />
<path d="M221.62,265.18L221.62,260.18" style="fill:none;stroke:#FF0000;stroke-width:0.5" />
<path d="M219.12,262.68L224.12,262.68" style="fill:none;stroke:#FF0000;stroke-width:0.5" />
<path d="M226.68,265.14L226.68,260.14" style="fill:none;stroke:#FF0000;stroke-width:0.5" />
<path d="M224.18,262.64L229.18,262.64" style="fill:none;stroke:#FF0000;stroke-width:0.5" />
<path d="M231.74,240.65L231.74,235.65" style="fill:none;stroke:#FF0000;stroke-width:0.5" />
<path d="M229.24,238.15L234.24,238.15" style="fill:none;stroke:#FF0000;stroke-width:0.5" />
<path d="M236.8,248.25L236.8,243.25" style="fill:none;stroke:#FF0000;stroke-width:0.5" />
<path d="M234.3,245.75L239.3,245.75" style="fill:none;stroke:#FF0000;stroke-width:0.5" />
<path d="M241.86,273.97L241.86,268.97" style="fill:none;stroke:#FF0000;stroke-width:0.5" />
<path d="M239.36,271.47L244.36,271.47" style="fill:none;stroke:#FF0000;stroke-width:0.5" />
<path d="M246.92,221.93L246.92,216.93" style="fill:none;stroke:#FF0000;stroke-width:0.5" />
<path d="M244.42,219.43L249.42,219.43" style="fill:none;stroke:#FF0000;stroke-width:0.5" />
<path d="M251.97,208.51L251.97,203.51" style="fill:none;stroke:#FF0000;stroke-width:0.5" />
<path d="M249.47,206.01L254.47,206.01" style="fill:none;stroke:#FF0000;stroke-width:0.5" />
<path d="M257.03,246.43L257.03,241.43" style="fill:none;stroke:#FF0000;stroke-width:0.5" />
<path d="M254.53,243.93L259.53,243.93" style="fill:none;stroke:#FF0000;stroke-width:0.5" />
<path d="M262.09,282.59L262.09,277.59" style="fill:none;stroke:#FF0000;stroke-width:0.5" />
<path d="M259.59,280.09L264.59,280.09" style="fill:none;stroke:#FF0000;stroke-width:0.5" />
<path d="M267.15,227.78L267.15,222.78" style="fill:none;stroke:#FF0000;stroke-width:0.5" />
<path d="M264.65,225.28L269.65,225.28" style="fill:none;stroke:#FF0000;stroke-width:0.5" />
<path d="M272.21,235.92L272.21,230.92" style="fill:none;stroke:#FF0000;stroke-width:0.5" />
<path d="M269.71,233.42L274.71,233.42" style="fill:none;stroke:#FF0000;stroke-width:0.5" />
<path d="M277.27,248.21L277.27,243.21" style="fill:none;stroke:#FF0000;stroke-width:0.5" />
<path d="M274.77,245.71L279.77,245.71" style="fill:none;stroke:#FF0000;stroke-width:0.5" />
<path d="M282.32,222.53L282.32,217.53" style="fill:none;stroke:#FF0000;stroke-width:0.5" />
<path d="M279.82,220.03L284.82,220.03" style="fill:none;stroke:#FF0000;stroke-width:0.5" />
<path d="M287.38,228.37L287.38,223.37" style="fill:none;stroke:#FF0000;stroke-width:0.5" />
<path d="M284.88,225.87L289.88,225.87" style="fill:none;stroke:#FF0000;stroke-width:0.5" />
<path d="M292.44,240.06L292.44,235.06" style="fill:none;stroke:#FF0000;stroke-width:0.5" />
<path d="M289.94,237.56L294.94,237.56" style="fill:none;stroke:#FF0000;stroke-width:0.5" />
<path d="M297.5,286.71L297.5,281.71" style="fill:none;stroke:#FF0000;stroke-width:0.5" />
<path d="M295,284.21L300,284.21" style="fill:none;stroke:#FF0000;stroke-width:0.5" />
<path d="M290,47.801L290,42.801" style="fill:none;stroke:#FF0000;stroke-width:0.5" />
<path d="M287.5,45.301L292.5,45.301" style="fill:none;stroke:#FF0000;stroke-width:0.5" />
<text x="239.7" y="-42.813" transform="scale(1, -1)"
	style="font-family:Liberation Serif;font-variant:normal;font-weight:normal;font-style:normal;font-size:12px">average</text>
</g>
</svg>
