<?xml version="1.0"?>
<!-- Generated by SVGo and Plotinum VG -->
<svg width="300pt" height="300pt" viewBox="0 0 300 300"
	xmlns="http://www.w3.org/2000/svg"
	xmlns:xlink="http://www.w3.org/1999/xlink">
<g transform="scale(1, -1) translate(0, -300)">
<path d="M0,0L300,0L300,300L0,300Z" style="fill:#FFFFFF" />
<text x="43.854" y="-290.61" transform="scale(1, -1)"
	style="font-family:Liberation Serif;font-variant:normal;font-weight:normal;font-style:normal;font-size:12px">runtime of appending list of size n, 100 tries</text>
<text x="170.57" y="-3.9023" transform="scale(1, -1)"
	style="font-family:Liberation Serif;font-variant:normal;font-weight:normal;font-style:normal;font-size:12px">n</text>
<text x="47.135" y="-16.541" transform="scale(1, -1)"
	style="font-family:Liberation Serif;font-variant:normal;font-weight:normal;font-style:normal;font-size:10px">0</text>
<text x="115.51" y="-16.541" transform="scale(1, -1)"
	style="font-family:Liberation Serif;font-variant:normal;font-weight:normal;font-style:normal;font-size:10px">3000</text>
<text x="191.39" y="-16.541" transform="scale(1, -1)"
	style="font-family:Liberation Serif;font-variant:normal;font-weight:normal;font-style:normal;font-size:10px">6000</text>
<text x="267.27" y="-16.541" transform="scale(1, -1)"
	style="font-family:Liberation Serif;font-variant:normal;font-weight:normal;font-style:normal;font-size:10px">9000</text>
<path d="M49.635,24.363L49.635,32.363" style="fill:none;stroke:#000000;stroke-width:0.5" />
<path d="M125.51,24.363L125.51,32.363" style="fill:none;stroke:#000000;stroke-width:0.5" />
<path d="M201.39,24.363L201.39,32.363" style="fill:none;stroke:#000000;stroke-width:0.5" />
<path d="M277.27,24.363L277.27,32.363" style="fill:none;stroke:#000000;stroke-width:0.5" />
<path d="M74.927,28.363L74.927,32.363" style="fill:none;stroke:#000000;stroke-width:0.5" />
<path d="M100.22,28.363L100.22,32.363" style="fill:none;stroke:#000000;stroke-width:0.5" />
<path d="M150.8,28.363L150.8,32.363" style="fill:none;stroke:#000000;stroke-width:0.5" />
<path d="M176.1,28.363L176.1,32.363" style="fill:none;stroke:#000000;stroke-width:0.5" />
<path d="M226.68,28.363L226.68,32.363" style="fill:none;stroke:#000000;stroke-width:0.5" />
<path d="M251.97,28.363L251.97,32.363" style="fill:none;stroke:#000000;stroke-width:0.5" />
<path d="M49.635,32.363L297.5,32.363" style="fill:none;stroke:#000000;stroke-width:0.5" />
<g transform="rotate(90)">
<text x="133.97" y="9.3867" transform="scale(1, -1)"
	style="font-family:Liberation Serif;font-variant:normal;font-weight:normal;font-style:normal;font-size:12px">runtime (ns)</text>
</g>
<text x="15.885" y="-77.661" transform="scale(1, -1)"
	style="font-family:Liberation Serif;font-variant:normal;font-weight:normal;font-style:normal;font-size:10px">440</text>
<text x="15.885" y="-176.93" transform="scale(1, -1)"
	style="font-family:Liberation Serif;font-variant:normal;font-weight:normal;font-style:normal;font-size:10px">520</text>
<text x="15.885" y="-276.19" transform="scale(1, -1)"
	style="font-family:Liberation Serif;font-variant:normal;font-weight:normal;font-style:normal;font-size:10px">600</text>
<path d="M33.385,79.946L41.385,79.946" style="fill:none;stroke:#000000;stroke-width:0.5" />
<path d="M33.385,179.21L41.385,179.21" style="fill:none;stroke:#000000;stroke-width:0.5" />
<path d="M33.385,278.48L41.385,278.48" style="fill:none;stroke:#000000;stroke-width:0.5" />
<path d="M37.385,129.58L41.385,129.58" style="fill:none;stroke:#000000;stroke-width:0.5" />
<path d="M37.385,228.85L41.385,228.85" style="fill:none;stroke:#000000;stroke-width:0.5" />
<path d="M41.385,42.709L41.385,284.21" style="fill:none;stroke:#000000;stroke-width:0.5" />
<path d="M49.635,51.909L49.635,46.909" style="fill:none;stroke:#FF0000;stroke-width:0.5" />
<path d="M47.135,49.409L52.135,49.409" style="fill:none;stroke:#FF0000;stroke-width:0.5" />
<path d="M54.693,55.557L54.693,50.557" style="fill:none;stroke:#FF0000;stroke-width:0.5" />
<path d="M52.193,53.057L57.193,53.057" style="fill:none;stroke:#FF0000;stroke-width:0.5" />
<path d="M59.752,66.39L59.752,61.39" style="fill:none;stroke:#FF0000;stroke-width:0.5" />
<path d="M57.252,63.89L62.252,63.89" style="fill:none;stroke:#FF0000;stroke-width:0.5" />
<path d="M64.81,45.209L64.81,40.209" style="fill:none;stroke:#FF0000;stroke-width:0.5" />
<path d="M62.31,42.709L67.31,42.709" style="fill:none;stroke:#FF0000;stroke-width:0.5" />
<path d="M69.869,51.922L69.869,46.922" style="fill:none;stroke:#FF0000;stroke-width:0.5" />
<path d="M67.369,49.422L72.369,49.422" style="fill:none;stroke:#FF0000;stroke-width:0.5" />
<path d="M74.927,62.916L74.927,57.916" style="fill:none;stroke:#FF0000;stroke-width:0.5" />
<path d="M72.427,60.416L77.427,60.416" style="fill:none;stroke:#FF0000;stroke-width:0.5" />
<path d="M79.986,70.05L79.986,65.05" style="fill:none;stroke:#FF0000;stroke-width:0.5" />
<path d="M77.486,67.55L82.486,67.55" style="fill:none;stroke:#FF0000;stroke-width:0.5" />
<path d="M85.044,93.353L85.044,88.353" style="fill:none;stroke:#FF0000;stroke-width:0.5" />
<path d="M82.544,90.853L87.544,90.853" style="fill:none;stroke:#FF0000;stroke-width:0.5" />
<path d="M90.103,117.07L90.103,112.07" style="fill:none;stroke:#FF0000;stroke-width:0.5" />
<path d="M87.603,114.57L92.603,114.57" style="fill:none;stroke:#FF0000;stroke-width:0.5" />
<path d="M95.161,98.478L95.161,93.478" style="fill:none;stroke:#FF0000;stroke-width:0.5" />
<path d="M92.661,95.978L97.661,95.978" style="fill:none;stroke:#FF0000;stroke-width:0.5" />
<path d="M100.22,124.82L100.22,119.82" style="fill:none;stroke:#FF0000;stroke-width:0.5" />
<path d="M97.72,122.32L102.72,122.32" style="fill:none;stroke:#FF0000;stroke-width:0.5" />
<path d="M105.28,155.28L105.28,150.28" style="fill:none;stroke:#FF0000;stroke-width:0.5" />
<path d="M102.78,152.78L107.78,152.78" style="fill:none;stroke:#FF0000;stroke-width:0.5" />
<path d="M110.34,146.52L110.34,141.52" style="fill:none;stroke:#FF0000;stroke-width:0.5" />
<path d="M107.84,144.02L112.84,144.02" style="fill:none;stroke:#FF0000;stroke-width:0.5" />
<path d="M115.39,144.51L115.39,139.51" style="fill:none;stroke:#FF0000;stroke-width:0.5" />
<path d="M112.89,142.01L117.89,142.01" style="fill:none;stroke:#FF0000;stroke-width:0.5" />
<path d="M120.45,165.18L120.45,160.18" style="fill:none;stroke:#FF0000;stroke-width:0.5" />
<path d="M117.95,162.68L122.95,162.68" style="fill:none;stroke:#FF0000;stroke-width:0.5" />
<path d="M125.51,169.76L125.51,164.76" style="fill:none;stroke:#FF0000;stroke-width:0.5" />
<path d="M123.01,167.26L128.01,167.26" style="fill:none;stroke:#FF0000;stroke-width:0.5" />
<path d="M130.57,189.48L130.57,184.48" style="fill:none;stroke:#FF0000;stroke-width:0.5" />
<path d="M128.07,186.98L133.07,186.98" style="fill:none;stroke:#FF0000;stroke-width:0.5" />
<path d="M135.63,196.74L135.63,191.74" style="fill:none;stroke:#FF0000;stroke-width:0.5" />
<path d="M133.13,194.24L138.13,194.24" style="fill:none;stroke:#FF0000;stroke-width:0.5" />
<path d="M140.69,207.06L140.69,202.06" style="fill:none;stroke:#FF0000;stroke-width:0.5" />
<path d="M138.19,204.56L143.19,204.56" style="fill:none;stroke:#FF0000;stroke-width:0.5" />
<path d="M145.75,203.44L145.75,198.44" style="fill:none;stroke:#FF0000;stroke-width:0.5" />
<path d="M143.25,200.94L148.25,200.94" style="fill:none;stroke:#FF0000;stroke-width:0.5" />
<path d="M150.8,189.9L150.8,184.9" style="fill:none;stroke:#FF0000;stroke-width:0.5" />
<path d="M148.3,187.4L153.3,187.4" style="fill:none;stroke:#FF0000;stroke-width:0.5" />
<path d="M155.86,201.86L155.86,196.86" style="fill:none;stroke:#FF0000;stroke-width:0.5" />
<path d="M153.36,199.36L158.36,199.36" style="fill:none;stroke:#FF0000;stroke-width:0.5" />
<path d="M160.92,195.67L160.92,190.67" style="fill:none;stroke:#FF0000;stroke-width:0.5" />
<path d="M158.42,193.17L163.42,193.17" style="fill:none;stroke:#FF0000;stroke-width:0.5" />
<path d="M165.98,258.28L165.98,253.28" style="fill:none;stroke:#FF0000;stroke-width:0.5" />
<path d="M163.48,255.78L168.48,255.78" style="fill:none;stroke:#FF0000;stroke-width:0.5" />
<path d="M171.04,197.21L171.04,192.21" style="fill:none;stroke:#FF0000;stroke-width:0.5" />
<path d="M168.54,194.71L173.54,194.71" style="fill:none;stroke:#FF0000;stroke-width:0.5" />
<path d="M176.1,193.12L176.1,188.12" style="fill:none;stroke:#FF0000;stroke-width:0.5" />
<path d="M173.6,190.62L178.6,190.62" style="fill:none;stroke:#FF0000;stroke-width:0.5" />
<path d="M181.16,199.87L181.16,194.87" style="fill:none;stroke:#FF0000;stroke-width:0.5" />
<path d="M178.66,197.37L183.66,197.37" style="fill:none;stroke:#FF0000;stroke-width:0.5" />
<path d="M186.21,286.71L186.21,281.71" style="fill:none;stroke:#FF0000;stroke-width:0.5" />
<path d="M183.71,284.21L188.71,284.21" style="fill:none;stroke:#FF0000;stroke-width:0.5" />
<path d="M191.27,200.78L191.27,195.78" style="fill:none;stroke:#FF0000;stroke-width:0.5" />
<path d="M188.77,198.28L193.77,198.28" style="fill:none;stroke:#FF0000;stroke-width:0.5" />
<path d="M196.33,198.23L196.33,193.23" style="fill:none;stroke:#FF0000;stroke-width:0.5" />
<path d="M193.83,195.73L198.83,195.73" style="fill:none;stroke:#FF0000;stroke-width:0.5" />
<path d="M201.39,197.68L201.39,192.68" style="fill:none;stroke:#FF0000;stroke-width:0.5" />
<path d="M198.89,195.18L203.89,195.18" style="fill:none;stroke:#FF0000;stroke-width:0.5" />
<path d="M206.45,208.04L206.45,203.04" style="fill:none;stroke:#FF0000;stroke-width:0.5" />
<path d="M203.95,205.54L208.95,205.54" style="fill:none;stroke:#FF0000;stroke-width:0.5" />
<path d="M211.51,196.18L211.51,191.18" style="fill:none;stroke:#FF0000;stroke-width:0.5" />
<path d="M209.01,193.68L214.01,193.68" style="fill:none;stroke:#FF0000;stroke-width:0.5" />
<path d="M216.56,196.22L216.56,191.22" style="fill:none;stroke:#FF0000;stroke-width:0.5" />
<path d="M214.06,193.72L219.06,193.72" style="fill:none;stroke:#FF0000;stroke-width:0.5" />
<path d="M221.62,179.14L221.62,174.14" style="fill:none;stroke:#FF0000;stroke-width:0.5" />
<path d="M219.12,176.64L224.12,176.64" style="fill:none;stroke:#FF0000;stroke-width:0.5" />
<path d="M226.68,182.75L226.68,177.75" style="fill:none;stroke:#FF0000;stroke-width:0.5" />
<path d="M224.18,180.25L229.18,180.25" style="fill:none;stroke:#FF0000;stroke-width:0.5" />
<path d="M231.74,190.44L231.74,185.44" style="fill:none;stroke:#FF0000;stroke-width:0.5" />
<path d="M229.24,187.94L234.24,187.94" style="fill:none;stroke:#FF0000;stroke-width:0.5" />
<path d="M236.8,170.89L236.8,165.89" style="fill:none;stroke:#FF0000;stroke-width:0.5" />
<path d="M234.3,168.39L239.3,168.39" style="fill:none;stroke:#FF0000;stroke-width:0.5" />
<path d="M241.86,172.36L241.86,167.36" style="fill:none;stroke:#FF0000;stroke-width:0.5" />
<path d="M239.36,169.86L244.36,169.86" style="fill:none;stroke:#FF0000;stroke-width:0.5" />
<path d="M246.92,176.02L246.92,171.02" style="fill:none;stroke:#FF0000;stroke-width:0.5" />
<path d="M244.42,173.52L249.42,173.52" style="fill:none;stroke:#FF0000;stroke-width:0.5" />
<path d="M251.97,179.62L251.97,174.62" style="fill:none;stroke:#FF0000;stroke-width:0.5" />
<path d="M249.47,177.12L254.47,177.12" style="fill:none;stroke:#FF0000;stroke-width:0.5" />
<path d="M257.03,152.78L257.03,147.78" style="fill:none;stroke:#FF0000;stroke-width:0.5" />
<path d="M254.53,150.28L259.53,150.28" style="fill:none;stroke:#FF0000;stroke-width:0.5" />
<path d="M262.09,195.18L262.09,190.18" style="fill:none;stroke:#FF0000;stroke-width:0.5" />
<path d="M259.59,192.68L264.59,192.68" style="fill:none;stroke:#FF0000;stroke-width:0.5" />
<path d="M267.15,162.52L267.15,157.52" style="fill:none;stroke:#FF0000;stroke-width:0.5" />
<path d="M264.65,160.02L269.65,160.02" style="fill:none;stroke:#FF0000;stroke-width:0.5" />
<path d="M272.21,169.86L272.21,164.86" style="fill:none;stroke:#FF0000;stroke-width:0.5" />
<path d="M269.71,167.36L274.71,167.36" style="fill:none;stroke:#FF0000;stroke-width:0.5" />
<path d="M277.27,184.7L277.27,179.7" style="fill:none;stroke:#FF0000;stroke-width:0.5" />
<path d="M274.77,182.2L279.77,182.2" style="fill:none;stroke:#FF0000;stroke-width:0.5" />
<path d="M282.32,167.72L282.32,162.72" style="fill:none;stroke:#FF0000;stroke-width:0.5" />
<path d="M279.82,165.22L284.82,165.22" style="fill:none;stroke:#FF0000;stroke-width:0.5" />
<path d="M287.38,180.14L287.38,175.14" style="fill:none;stroke:#FF0000;stroke-width:0.5" />
<path d="M284.88,177.64L289.88,177.64" style="fill:none;stroke:#FF0000;stroke-width:0.5" />
<path d="M292.44,174.47L292.44,169.47" style="fill:none;stroke:#FF0000;stroke-width:0.5" />
<path d="M289.94,171.97L294.94,171.97" style="fill:none;stroke:#FF0000;stroke-width:0.5" />
<path d="M297.5,158.47L297.5,153.47" style="fill:none;stroke:#FF0000;stroke-width:0.5" />
<path d="M295,155.97L300,155.97" style="fill:none;stroke:#FF0000;stroke-width:0.5" />
<path d="M290,47.801L290,42.801" style="fill:none;stroke:#FF0000;stroke-width:0.5" />
<path d="M287.5,45.301L292.5,45.301" style="fill:none;stroke:#FF0000;stroke-width:0.5" />
<text x="239.7" y="-42.813" transform="scale(1, -1)"
	style="font-family:Liberation Serif;font-variant:normal;font-weight:normal;font-style:normal;font-size:12px">average</text>
</g>
</svg>
