<?xml version="1.0"?>
<!-- Generated by SVGo and Plotinum VG -->
<svg width="300pt" height="300pt" viewBox="0 0 300 300"
	xmlns="http://www.w3.org/2000/svg"
	xmlns:xlink="http://www.w3.org/1999/xlink">
<g transform="scale(1, -1) translate(0, -300)">
<path d="M0,0L300,0L300,300L0,300Z" style="fill:#FFFFFF" />
<text x="41.467" y="-288.81" transform="scale(1, -1)"
	style="font-family:Liberation Serif;font-variant:normal;font-weight:normal;font-style:normal;font-size:12px">linked list VS array append, median, 10 tries.</text>
<text x="71.382" y="-276.81" transform="scale(1, -1)"
	style="font-family:Liberation Serif;font-variant:normal;font-weight:normal;font-style:normal;font-size:12px"> (array reallocates every append)</text>
<text x="178.07" y="-3.9023" transform="scale(1, -1)"
	style="font-family:Liberation Serif;font-variant:normal;font-weight:normal;font-style:normal;font-size:12px">n</text>
<text x="62.135" y="-16.541" transform="scale(1, -1)"
	style="font-family:Liberation Serif;font-variant:normal;font-weight:normal;font-style:normal;font-size:10px">0</text>
<text x="148.49" y="-16.541" transform="scale(1, -1)"
	style="font-family:Liberation Serif;font-variant:normal;font-weight:normal;font-style:normal;font-size:10px">20000</text>
<text x="244.85" y="-16.541" transform="scale(1, -1)"
	style="font-family:Liberation Serif;font-variant:normal;font-weight:normal;font-style:normal;font-size:10px">40000</text>
<path d="M64.635,24.363L64.635,32.363" style="fill:none;stroke:#000000;stroke-width:0.5" />
<path d="M160.99,24.363L160.99,32.363" style="fill:none;stroke:#000000;stroke-width:0.5" />
<path d="M257.35,24.363L257.35,32.363" style="fill:none;stroke:#000000;stroke-width:0.5" />
<path d="M112.81,28.363L112.81,32.363" style="fill:none;stroke:#000000;stroke-width:0.5" />
<path d="M209.17,28.363L209.17,32.363" style="fill:none;stroke:#000000;stroke-width:0.5" />
<path d="M64.635,32.363L297.5,32.363" style="fill:none;stroke:#000000;stroke-width:0.5" />
<g transform="rotate(90)">
<text x="127.07" y="9.3867" transform="scale(1, -1)"
	style="font-family:Liberation Serif;font-variant:normal;font-weight:normal;font-style:normal;font-size:12px">runtime (ns)</text>
</g>
<text x="20.885" y="-72.379" transform="scale(1, -1)"
	style="font-family:Liberation Serif;font-variant:normal;font-weight:normal;font-style:normal;font-size:10px">20000</text>
<text x="20.885" y="-168.65" transform="scale(1, -1)"
	style="font-family:Liberation Serif;font-variant:normal;font-weight:normal;font-style:normal;font-size:10px">80000</text>
<text x="15.885" y="-264.92" transform="scale(1, -1)"
	style="font-family:Liberation Serif;font-variant:normal;font-weight:normal;font-style:normal;font-size:10px">140000</text>
<path d="M48.385,74.664L56.385,74.664" style="fill:none;stroke:#000000;stroke-width:0.5" />
<path d="M48.385,170.93L56.385,170.93" style="fill:none;stroke:#000000;stroke-width:0.5" />
<path d="M48.385,267.2L56.385,267.2" style="fill:none;stroke:#000000;stroke-width:0.5" />
<path d="M52.385,122.8L56.385,122.8" style="fill:none;stroke:#000000;stroke-width:0.5" />
<path d="M52.385,219.07L56.385,219.07" style="fill:none;stroke:#000000;stroke-width:0.5" />
<path d="M56.385,42.709L56.385,270.41" style="fill:none;stroke:#000000;stroke-width:0.5" />
<path d="M64.635,194.36L64.635,189.36" style="fill:none;stroke:#0000FF;stroke-width:0.5" />
<path d="M62.135,191.86L67.135,191.86" style="fill:none;stroke:#0000FF;stroke-width:0.5" />
<path d="M72.661,272.91L72.661,267.91" style="fill:none;stroke:#0000FF;stroke-width:0.5" />
<path d="M70.161,270.41L75.161,270.41" style="fill:none;stroke:#0000FF;stroke-width:0.5" />
<path d="M80.693,186.13L80.693,181.13" style="fill:none;stroke:#0000FF;stroke-width:0.5" />
<path d="M78.193,183.63L83.193,183.63" style="fill:none;stroke:#0000FF;stroke-width:0.5" />
<path d="M88.724,156.72L88.724,151.72" style="fill:none;stroke:#0000FF;stroke-width:0.5" />
<path d="M86.224,154.22L91.224,154.22" style="fill:none;stroke:#0000FF;stroke-width:0.5" />
<path d="M96.751,179.32L96.751,174.32" style="fill:none;stroke:#0000FF;stroke-width:0.5" />
<path d="M94.251,176.82L99.251,176.82" style="fill:none;stroke:#0000FF;stroke-width:0.5" />
<path d="M104.78,226.25L104.78,221.25" style="fill:none;stroke:#0000FF;stroke-width:0.5" />
<path d="M102.28,223.75L107.28,223.75" style="fill:none;stroke:#0000FF;stroke-width:0.5" />
<path d="M112.81,213.21L112.81,208.21" style="fill:none;stroke:#0000FF;stroke-width:0.5" />
<path d="M110.31,210.71L115.31,210.71" style="fill:none;stroke:#0000FF;stroke-width:0.5" />
<path d="M120.84,188.54L120.84,183.54" style="fill:none;stroke:#0000FF;stroke-width:0.5" />
<path d="M118.34,186.04L123.34,186.04" style="fill:none;stroke:#0000FF;stroke-width:0.5" />
<path d="M128.87,203.05L128.87,198.05" style="fill:none;stroke:#0000FF;stroke-width:0.5" />
<path d="M126.37,200.55L131.37,200.55" style="fill:none;stroke:#0000FF;stroke-width:0.5" />
<path d="M136.9,220.57L136.9,215.57" style="fill:none;stroke:#0000FF;stroke-width:0.5" />
<path d="M134.4,218.07L139.4,218.07" style="fill:none;stroke:#0000FF;stroke-width:0.5" />
<path d="M144.93,166.21L144.93,161.21" style="fill:none;stroke:#0000FF;stroke-width:0.5" />
<path d="M142.43,163.71L147.43,163.71" style="fill:none;stroke:#0000FF;stroke-width:0.5" />
<path d="M152.96,184.13L152.96,179.13" style="fill:none;stroke:#0000FF;stroke-width:0.5" />
<path d="M150.46,181.63L155.46,181.63" style="fill:none;stroke:#0000FF;stroke-width:0.5" />
<path d="M160.99,192.49L160.99,187.49" style="fill:none;stroke:#0000FF;stroke-width:0.5" />
<path d="M158.49,189.99L163.49,189.99" style="fill:none;stroke:#0000FF;stroke-width:0.5" />
<path d="M169.02,244.9L169.02,239.9" style="fill:none;stroke:#0000FF;stroke-width:0.5" />
<path d="M166.52,242.4L171.52,242.4" style="fill:none;stroke:#0000FF;stroke-width:0.5" />
<path d="M177.05,184.93L177.05,179.93" style="fill:none;stroke:#0000FF;stroke-width:0.5" />
<path d="M174.55,182.43L179.55,182.43" style="fill:none;stroke:#0000FF;stroke-width:0.5" />
<path d="M185.08,264.42L185.08,259.42" style="fill:none;stroke:#0000FF;stroke-width:0.5" />
<path d="M182.58,261.92L187.58,261.92" style="fill:none;stroke:#0000FF;stroke-width:0.5" />
<path d="M193.11,200.51L193.11,195.51" style="fill:none;stroke:#0000FF;stroke-width:0.5" />
<path d="M190.61,198.01L195.61,198.01" style="fill:none;stroke:#0000FF;stroke-width:0.5" />
<path d="M201.14,243.36L201.14,238.36" style="fill:none;stroke:#0000FF;stroke-width:0.5" />
<path d="M198.64,240.86L203.64,240.86" style="fill:none;stroke:#0000FF;stroke-width:0.5" />
<path d="M209.17,228.99L209.17,223.99" style="fill:none;stroke:#0000FF;stroke-width:0.5" />
<path d="M206.67,226.49L211.67,226.49" style="fill:none;stroke:#0000FF;stroke-width:0.5" />
<path d="M217.2,252.86L217.2,247.86" style="fill:none;stroke:#0000FF;stroke-width:0.5" />
<path d="M214.7,250.36L219.7,250.36" style="fill:none;stroke:#0000FF;stroke-width:0.5" />
<path d="M225.23,239.69L225.23,234.69" style="fill:none;stroke:#0000FF;stroke-width:0.5" />
<path d="M222.73,237.19L227.73,237.19" style="fill:none;stroke:#0000FF;stroke-width:0.5" />
<path d="M233.26,228.59L233.26,223.59" style="fill:none;stroke:#0000FF;stroke-width:0.5" />
<path d="M230.76,226.09L235.76,226.09" style="fill:none;stroke:#0000FF;stroke-width:0.5" />
<path d="M241.29,225.31L241.29,220.31" style="fill:none;stroke:#0000FF;stroke-width:0.5" />
<path d="M238.79,222.81L243.79,222.81" style="fill:none;stroke:#0000FF;stroke-width:0.5" />
<path d="M249.32,228.12L249.32,223.12" style="fill:none;stroke:#0000FF;stroke-width:0.5" />
<path d="M246.82,225.62L251.82,225.62" style="fill:none;stroke:#0000FF;stroke-width:0.5" />
<path d="M257.35,247.31L257.35,242.31" style="fill:none;stroke:#0000FF;stroke-width:0.5" />
<path d="M254.85,244.81L259.85,244.81" style="fill:none;stroke:#0000FF;stroke-width:0.5" />
<path d="M265.38,240.75L265.38,235.75" style="fill:none;stroke:#0000FF;stroke-width:0.5" />
<path d="M262.88,238.25L267.88,238.25" style="fill:none;stroke:#0000FF;stroke-width:0.5" />
<path d="M273.41,227.52L273.41,222.52" style="fill:none;stroke:#0000FF;stroke-width:0.5" />
<path d="M270.91,225.02L275.91,225.02" style="fill:none;stroke:#0000FF;stroke-width:0.5" />
<path d="M281.44,254.66L281.44,249.66" style="fill:none;stroke:#0000FF;stroke-width:0.5" />
<path d="M278.94,252.16L283.94,252.16" style="fill:none;stroke:#0000FF;stroke-width:0.5" />
<path d="M289.47,244.57L289.47,239.57" style="fill:none;stroke:#0000FF;stroke-width:0.5" />
<path d="M286.97,242.07L291.97,242.07" style="fill:none;stroke:#0000FF;stroke-width:0.5" />
<path d="M297.5,229.86L297.5,224.86" style="fill:none;stroke:#0000FF;stroke-width:0.5" />
<path d="M295,227.36L300,227.36" style="fill:none;stroke:#0000FF;stroke-width:0.5" />
<path d="M64.635,45.209L64.635,40.209" style="fill:none;stroke:#FF0000;stroke-width:0.5" />
<path d="M62.135,42.709L67.135,42.709" style="fill:none;stroke:#FF0000;stroke-width:0.5" />
<path d="M72.661,48.617L72.661,43.617" style="fill:none;stroke:#FF0000;stroke-width:0.5" />
<path d="M70.161,46.117L75.161,46.117" style="fill:none;stroke:#FF0000;stroke-width:0.5" />
<path d="M80.693,52.294L80.693,47.294" style="fill:none;stroke:#FF0000;stroke-width:0.5" />
<path d="M78.193,49.794L83.193,49.794" style="fill:none;stroke:#FF0000;stroke-width:0.5" />
<path d="M88.724,56.105L88.724,51.105" style="fill:none;stroke:#FF0000;stroke-width:0.5" />
<path d="M86.224,53.605L91.224,53.605" style="fill:none;stroke:#FF0000;stroke-width:0.5" />
<path d="M96.751,60.116L96.751,55.116" style="fill:none;stroke:#FF0000;stroke-width:0.5" />
<path d="M94.251,57.616L99.251,57.616" style="fill:none;stroke:#FF0000;stroke-width:0.5" />
<path d="M104.78,63.794L104.78,58.794" style="fill:none;stroke:#FF0000;stroke-width:0.5" />
<path d="M102.28,61.294L107.28,61.294" style="fill:none;stroke:#FF0000;stroke-width:0.5" />
<path d="M112.81,67.738L112.81,62.738" style="fill:none;stroke:#FF0000;stroke-width:0.5" />
<path d="M110.31,65.238L115.31,65.238" style="fill:none;stroke:#FF0000;stroke-width:0.5" />
<path d="M120.84,71.147L120.84,66.147" style="fill:none;stroke:#FF0000;stroke-width:0.5" />
<path d="M118.34,68.647L123.34,68.647" style="fill:none;stroke:#FF0000;stroke-width:0.5" />
<path d="M128.87,74.825L128.87,69.825" style="fill:none;stroke:#FF0000;stroke-width:0.5" />
<path d="M126.37,72.325L131.37,72.325" style="fill:none;stroke:#FF0000;stroke-width:0.5" />
<path d="M136.9,78.233L136.9,73.233" style="fill:none;stroke:#FF0000;stroke-width:0.5" />
<path d="M134.4,75.733L139.4,75.733" style="fill:none;stroke:#FF0000;stroke-width:0.5" />
<path d="M144.93,80.774L144.93,75.774" style="fill:none;stroke:#FF0000;stroke-width:0.5" />
<path d="M142.43,78.274L147.43,78.274" style="fill:none;stroke:#FF0000;stroke-width:0.5" />
<path d="M152.96,84.517L152.96,79.517" style="fill:none;stroke:#FF0000;stroke-width:0.5" />
<path d="M150.46,82.017L155.46,82.017" style="fill:none;stroke:#FF0000;stroke-width:0.5" />
<path d="M160.99,87.794L160.99,82.794" style="fill:none;stroke:#FF0000;stroke-width:0.5" />
<path d="M158.49,85.294L163.49,85.294" style="fill:none;stroke:#FF0000;stroke-width:0.5" />
<path d="M169.02,91.003L169.02,86.003" style="fill:none;stroke:#FF0000;stroke-width:0.5" />
<path d="M166.52,88.503L171.52,88.503" style="fill:none;stroke:#FF0000;stroke-width:0.5" />
<path d="M177.05,94.746L177.05,89.746" style="fill:none;stroke:#FF0000;stroke-width:0.5" />
<path d="M174.55,92.246L179.55,92.246" style="fill:none;stroke:#FF0000;stroke-width:0.5" />
<path d="M185.08,98.156L185.08,93.156" style="fill:none;stroke:#FF0000;stroke-width:0.5" />
<path d="M182.58,95.656L187.58,95.656" style="fill:none;stroke:#FF0000;stroke-width:0.5" />
<path d="M193.11,101.36L193.11,96.365" style="fill:none;stroke:#FF0000;stroke-width:0.5" />
<path d="M190.61,98.865L195.61,98.865" style="fill:none;stroke:#FF0000;stroke-width:0.5" />
<path d="M201.14,104.77L201.14,99.774" style="fill:none;stroke:#FF0000;stroke-width:0.5" />
<path d="M198.64,102.27L203.64,102.27" style="fill:none;stroke:#FF0000;stroke-width:0.5" />
<path d="M209.17,109.12L209.17,104.12" style="fill:none;stroke:#FF0000;stroke-width:0.5" />
<path d="M206.67,106.62L211.67,106.62" style="fill:none;stroke:#FF0000;stroke-width:0.5" />
<path d="M217.2,111.93L217.2,106.93" style="fill:none;stroke:#FF0000;stroke-width:0.5" />
<path d="M214.7,109.43L219.7,109.43" style="fill:none;stroke:#FF0000;stroke-width:0.5" />
<path d="M225.23,115.2L225.23,110.2" style="fill:none;stroke:#FF0000;stroke-width:0.5" />
<path d="M222.73,112.7L227.73,112.7" style="fill:none;stroke:#FF0000;stroke-width:0.5" />
<path d="M233.26,119.42L233.26,114.42" style="fill:none;stroke:#FF0000;stroke-width:0.5" />
<path d="M230.76,116.92L235.76,116.92" style="fill:none;stroke:#FF0000;stroke-width:0.5" />
<path d="M241.29,122.82L241.29,117.82" style="fill:none;stroke:#FF0000;stroke-width:0.5" />
<path d="M238.79,120.32L243.79,120.32" style="fill:none;stroke:#FF0000;stroke-width:0.5" />
<path d="M249.32,125.77L249.32,120.77" style="fill:none;stroke:#FF0000;stroke-width:0.5" />
<path d="M246.82,123.27L251.82,123.27" style="fill:none;stroke:#FF0000;stroke-width:0.5" />
<path d="M257.35,128.78L257.35,123.78" style="fill:none;stroke:#FF0000;stroke-width:0.5" />
<path d="M254.85,126.28L259.85,126.28" style="fill:none;stroke:#FF0000;stroke-width:0.5" />
<path d="M265.38,133.45L265.38,128.45" style="fill:none;stroke:#FF0000;stroke-width:0.5" />
<path d="M262.88,130.95L267.88,130.95" style="fill:none;stroke:#FF0000;stroke-width:0.5" />
<path d="M273.41,135.66L273.41,130.66" style="fill:none;stroke:#FF0000;stroke-width:0.5" />
<path d="M270.91,133.16L275.91,133.16" style="fill:none;stroke:#FF0000;stroke-width:0.5" />
<path d="M281.44,140.07L281.44,135.07" style="fill:none;stroke:#FF0000;stroke-width:0.5" />
<path d="M278.94,137.57L283.94,137.57" style="fill:none;stroke:#FF0000;stroke-width:0.5" />
<path d="M289.47,142.95L289.47,137.95" style="fill:none;stroke:#FF0000;stroke-width:0.5" />
<path d="M286.97,140.45L291.97,140.45" style="fill:none;stroke:#FF0000;stroke-width:0.5" />
<path d="M297.5,146.83L297.5,141.83" style="fill:none;stroke:#FF0000;stroke-width:0.5" />
<path d="M295,144.33L300,144.33" style="fill:none;stroke:#FF0000;stroke-width:0.5" />
<path d="M290,57.984L290,52.984" style="fill:none;stroke:#0000FF;stroke-width:0.5" />
<path d="M287.5,55.484L292.5,55.484" style="fill:none;stroke:#0000FF;stroke-width:0.5" />
<text x="252.36" y="-52.997" transform="scale(1, -1)"
	style="font-family:Liberation Serif;font-variant:normal;font-weight:normal;font-style:normal;font-size:12px">array</text>
<path d="M290,47.801L290,42.801" style="fill:none;stroke:#FF0000;stroke-width:0.5" />
<path d="M287.5,45.301L292.5,45.301" style="fill:none;stroke:#FF0000;stroke-width:0.5" />
<text x="229.33" y="-42.813" transform="scale(1, -1)"
	style="font-family:Liberation Serif;font-variant:normal;font-weight:normal;font-style:normal;font-size:12px">linked list</text>
</g>
</svg>
