<?xml version="1.0"?>
<!-- Generated by SVGo and Plotinum VG -->
<svg width="300pt" height="300pt" viewBox="0 0 300 300"
	xmlns="http://www.w3.org/2000/svg"
	xmlns:xlink="http://www.w3.org/1999/xlink">
<g transform="scale(1, -1) translate(0, -300)">
<path d="M0,0L300,0L300,300L0,300Z" style="fill:#FFFFFF" />
<text x="41.467" y="-288.81" transform="scale(1, -1)"
	style="font-family:Liberation Serif;font-variant:normal;font-weight:normal;font-style:normal;font-size:12px">linked list VS array append, median, 10 tries.</text>
<text x="71.382" y="-276.81" transform="scale(1, -1)"
	style="font-family:Liberation Serif;font-variant:normal;font-weight:normal;font-style:normal;font-size:12px"> (array reallocates every append)</text>
<text x="58.75" y="-3.252" transform="scale(1, -1)"
	style="font-family:Liberation Serif;font-variant:normal;font-weight:normal;font-style:normal;font-size:10px">0</text>
<text x="146.51" y="-3.252" transform="scale(1, -1)"
	style="font-family:Liberation Serif;font-variant:normal;font-weight:normal;font-style:normal;font-size:10px">20000</text>
<text x="244.27" y="-3.252" transform="scale(1, -1)"
	style="font-family:Liberation Serif;font-variant:normal;font-weight:normal;font-style:normal;font-size:10px">40000</text>
<path d="M61.25,11.074L61.25,19.074" style="fill:none;stroke:#000000;stroke-width:0.5" />
<path d="M159.01,11.074L159.01,19.074" style="fill:none;stroke:#000000;stroke-width:0.5" />
<path d="M256.77,11.074L256.77,19.074" style="fill:none;stroke:#000000;stroke-width:0.5" />
<path d="M110.13,15.074L110.13,19.074" style="fill:none;stroke:#000000;stroke-width:0.5" />
<path d="M207.89,15.074L207.89,19.074" style="fill:none;stroke:#000000;stroke-width:0.5" />
<path d="M61.25,19.074L297.5,19.074" style="fill:none;stroke:#000000;stroke-width:0.5" />
<text x="5" y="-57.325" transform="scale(1, -1)"
	style="font-family:Liberation Serif;font-variant:normal;font-weight:normal;font-style:normal;font-size:10px">25000.00</text>
<text x="0" y="-156.01" transform="scale(1, -1)"
	style="font-family:Liberation Serif;font-variant:normal;font-weight:normal;font-style:normal;font-size:10px">100000.00</text>
<text x="0" y="-254.7" transform="scale(1, -1)"
	style="font-family:Liberation Serif;font-variant:normal;font-weight:normal;font-style:normal;font-size:10px">175000.00</text>
<path d="M45,59.61L53,59.61" style="fill:none;stroke:#000000;stroke-width:0.5" />
<path d="M45,158.3L53,158.3" style="fill:none;stroke:#000000;stroke-width:0.5" />
<path d="M45,256.98L53,256.98" style="fill:none;stroke:#000000;stroke-width:0.5" />
<path d="M49,108.95L53,108.95" style="fill:none;stroke:#000000;stroke-width:0.5" />
<path d="M49,207.64L53,207.64" style="fill:none;stroke:#000000;stroke-width:0.5" />
<path d="M53,26.824L53,270.41" style="fill:none;stroke:#000000;stroke-width:0.5" />
<path d="M61.25,151.75L61.25,146.75" style="fill:none;stroke:#0000FF;stroke-width:0.5" />
<path d="M58.75,149.25L63.75,149.25" style="fill:none;stroke:#0000FF;stroke-width:0.5" />
<path d="M69.393,147.75L69.393,142.75" style="fill:none;stroke:#0000FF;stroke-width:0.5" />
<path d="M66.893,145.25L71.893,145.25" style="fill:none;stroke:#0000FF;stroke-width:0.5" />
<path d="M77.542,212.77L77.542,207.77" style="fill:none;stroke:#0000FF;stroke-width:0.5" />
<path d="M75.042,210.27L80.042,210.27" style="fill:none;stroke:#0000FF;stroke-width:0.5" />
<path d="M85.69,144.29L85.69,139.29" style="fill:none;stroke:#0000FF;stroke-width:0.5" />
<path d="M83.19,141.79L88.19,141.79" style="fill:none;stroke:#0000FF;stroke-width:0.5" />
<path d="M93.833,156.08L93.833,151.08" style="fill:none;stroke:#0000FF;stroke-width:0.5" />
<path d="M91.333,153.58L96.333,153.58" style="fill:none;stroke:#0000FF;stroke-width:0.5" />
<path d="M101.98,106.57L101.98,101.57" style="fill:none;stroke:#0000FF;stroke-width:0.5" />
<path d="M99.481,104.07L104.48,104.07" style="fill:none;stroke:#0000FF;stroke-width:0.5" />
<path d="M110.13,157.01L110.13,152.01" style="fill:none;stroke:#0000FF;stroke-width:0.5" />
<path d="M107.63,154.51L112.63,154.51" style="fill:none;stroke:#0000FF;stroke-width:0.5" />
<path d="M118.27,108.16L118.27,103.16" style="fill:none;stroke:#0000FF;stroke-width:0.5" />
<path d="M115.77,105.66L120.77,105.66" style="fill:none;stroke:#0000FF;stroke-width:0.5" />
<path d="M126.42,160.85L126.42,155.85" style="fill:none;stroke:#0000FF;stroke-width:0.5" />
<path d="M123.92,158.35L128.92,158.35" style="fill:none;stroke:#0000FF;stroke-width:0.5" />
<path d="M134.57,147.2L134.57,142.2" style="fill:none;stroke:#0000FF;stroke-width:0.5" />
<path d="M132.07,144.7L137.07,144.7" style="fill:none;stroke:#0000FF;stroke-width:0.5" />
<path d="M142.71,158.55L142.71,153.55" style="fill:none;stroke:#0000FF;stroke-width:0.5" />
<path d="M140.21,156.05L145.21,156.05" style="fill:none;stroke:#0000FF;stroke-width:0.5" />
<path d="M150.86,176.26L150.86,171.26" style="fill:none;stroke:#0000FF;stroke-width:0.5" />
<path d="M148.36,173.76L153.36,173.76" style="fill:none;stroke:#0000FF;stroke-width:0.5" />
<path d="M159.01,150.43L159.01,145.43" style="fill:none;stroke:#0000FF;stroke-width:0.5" />
<path d="M156.51,147.93L161.51,147.93" style="fill:none;stroke:#0000FF;stroke-width:0.5" />
<path d="M167.15,164.19L167.15,159.19" style="fill:none;stroke:#0000FF;stroke-width:0.5" />
<path d="M164.65,161.69L169.65,161.69" style="fill:none;stroke:#0000FF;stroke-width:0.5" />
<path d="M175.3,174.83L175.3,169.83" style="fill:none;stroke:#0000FF;stroke-width:0.5" />
<path d="M172.8,172.33L177.8,172.33" style="fill:none;stroke:#0000FF;stroke-width:0.5" />
<path d="M183.45,177.68L183.45,172.68" style="fill:none;stroke:#0000FF;stroke-width:0.5" />
<path d="M180.95,175.18L185.95,175.18" style="fill:none;stroke:#0000FF;stroke-width:0.5" />
<path d="M191.59,180.15L191.59,175.15" style="fill:none;stroke:#0000FF;stroke-width:0.5" />
<path d="M189.09,177.65L194.09,177.65" style="fill:none;stroke:#0000FF;stroke-width:0.5" />
<path d="M199.74,170.77L199.74,165.77" style="fill:none;stroke:#0000FF;stroke-width:0.5" />
<path d="M197.24,168.27L202.24,168.27" style="fill:none;stroke:#0000FF;stroke-width:0.5" />
<path d="M207.89,157.67L207.89,152.67" style="fill:none;stroke:#0000FF;stroke-width:0.5" />
<path d="M205.39,155.17L210.39,155.17" style="fill:none;stroke:#0000FF;stroke-width:0.5" />
<path d="M216.03,162.44L216.03,157.44" style="fill:none;stroke:#0000FF;stroke-width:0.5" />
<path d="M213.53,159.94L218.53,159.94" style="fill:none;stroke:#0000FF;stroke-width:0.5" />
<path d="M224.18,171.92L224.18,166.92" style="fill:none;stroke:#0000FF;stroke-width:0.5" />
<path d="M221.68,169.42L226.68,169.42" style="fill:none;stroke:#0000FF;stroke-width:0.5" />
<path d="M232.33,199.72L232.33,194.72" style="fill:none;stroke:#0000FF;stroke-width:0.5" />
<path d="M229.83,197.22L234.83,197.22" style="fill:none;stroke:#0000FF;stroke-width:0.5" />
<path d="M240.47,168.85L240.47,163.85" style="fill:none;stroke:#0000FF;stroke-width:0.5" />
<path d="M237.97,166.35L242.97,166.35" style="fill:none;stroke:#0000FF;stroke-width:0.5" />
<path d="M248.62,194.4L248.62,189.4" style="fill:none;stroke:#0000FF;stroke-width:0.5" />
<path d="M246.12,191.9L251.12,191.9" style="fill:none;stroke:#0000FF;stroke-width:0.5" />
<path d="M256.77,217.48L256.77,212.48" style="fill:none;stroke:#0000FF;stroke-width:0.5" />
<path d="M254.27,214.98L259.27,214.98" style="fill:none;stroke:#0000FF;stroke-width:0.5" />
<path d="M264.91,272.91L264.91,267.91" style="fill:none;stroke:#0000FF;stroke-width:0.5" />
<path d="M262.41,270.41L267.41,270.41" style="fill:none;stroke:#0000FF;stroke-width:0.5" />
<path d="M273.06,204.98L273.06,199.98" style="fill:none;stroke:#0000FF;stroke-width:0.5" />
<path d="M270.56,202.48L275.56,202.48" style="fill:none;stroke:#0000FF;stroke-width:0.5" />
<path d="M281.21,171.1L281.21,166.1" style="fill:none;stroke:#0000FF;stroke-width:0.5" />
<path d="M278.71,168.6L283.71,168.6" style="fill:none;stroke:#0000FF;stroke-width:0.5" />
<path d="M289.35,189.69L289.35,184.69" style="fill:none;stroke:#0000FF;stroke-width:0.5" />
<path d="M286.85,187.19L291.85,187.19" style="fill:none;stroke:#0000FF;stroke-width:0.5" />
<path d="M297.5,211.67L297.5,206.67" style="fill:none;stroke:#0000FF;stroke-width:0.5" />
<path d="M295,209.17L300,209.17" style="fill:none;stroke:#0000FF;stroke-width:0.5" />
<path d="M61.25,29.324L61.25,24.324" style="fill:none;stroke:#FF0000;stroke-width:0.5" />
<path d="M58.75,26.824L63.75,26.824" style="fill:none;stroke:#FF0000;stroke-width:0.5" />
<path d="M69.393,32.066L69.393,27.066" style="fill:none;stroke:#FF0000;stroke-width:0.5" />
<path d="M66.893,29.566L71.893,29.566" style="fill:none;stroke:#FF0000;stroke-width:0.5" />
<path d="M77.542,34.972L77.542,29.972" style="fill:none;stroke:#FF0000;stroke-width:0.5" />
<path d="M75.042,32.472L80.042,32.472" style="fill:none;stroke:#FF0000;stroke-width:0.5" />
<path d="M85.69,38.316L85.69,33.316" style="fill:none;stroke:#FF0000;stroke-width:0.5" />
<path d="M83.19,35.816L88.19,35.816" style="fill:none;stroke:#FF0000;stroke-width:0.5" />
<path d="M93.833,41.661L93.833,36.661" style="fill:none;stroke:#FF0000;stroke-width:0.5" />
<path d="M91.333,39.161L96.333,39.161" style="fill:none;stroke:#FF0000;stroke-width:0.5" />
<path d="M101.98,44.62L101.98,39.62" style="fill:none;stroke:#FF0000;stroke-width:0.5" />
<path d="M99.481,42.12L104.48,42.12" style="fill:none;stroke:#FF0000;stroke-width:0.5" />
<path d="M110.13,47.582L110.13,42.582" style="fill:none;stroke:#FF0000;stroke-width:0.5" />
<path d="M107.63,45.082L112.63,45.082" style="fill:none;stroke:#FF0000;stroke-width:0.5" />
<path d="M118.27,50.432L118.27,45.432" style="fill:none;stroke:#FF0000;stroke-width:0.5" />
<path d="M115.77,47.932L120.77,47.932" style="fill:none;stroke:#FF0000;stroke-width:0.5" />
<path d="M126.42,53.447L126.42,48.447" style="fill:none;stroke:#FF0000;stroke-width:0.5" />
<path d="M123.92,50.947L128.92,50.947" style="fill:none;stroke:#FF0000;stroke-width:0.5" />
<path d="M134.57,56.353L134.57,51.353" style="fill:none;stroke:#FF0000;stroke-width:0.5" />
<path d="M132.07,53.853L137.07,53.853" style="fill:none;stroke:#FF0000;stroke-width:0.5" />
<path d="M142.71,58.765L142.71,53.765" style="fill:none;stroke:#FF0000;stroke-width:0.5" />
<path d="M140.21,56.265L145.21,56.265" style="fill:none;stroke:#FF0000;stroke-width:0.5" />
<path d="M150.86,61.507L150.86,56.507" style="fill:none;stroke:#FF0000;stroke-width:0.5" />
<path d="M148.36,59.007L153.36,59.007" style="fill:none;stroke:#FF0000;stroke-width:0.5" />
<path d="M159.01,64.139L159.01,59.139" style="fill:none;stroke:#FF0000;stroke-width:0.5" />
<path d="M156.51,61.639L161.51,61.639" style="fill:none;stroke:#FF0000;stroke-width:0.5" />
<path d="M167.15,67.098L167.15,62.098" style="fill:none;stroke:#FF0000;stroke-width:0.5" />
<path d="M164.65,64.598L169.65,64.598" style="fill:none;stroke:#FF0000;stroke-width:0.5" />
<path d="M175.3,70.169L175.3,65.169" style="fill:none;stroke:#FF0000;stroke-width:0.5" />
<path d="M172.8,67.669L177.8,67.669" style="fill:none;stroke:#FF0000;stroke-width:0.5" />
<path d="M183.45,72.747L183.45,67.747" style="fill:none;stroke:#FF0000;stroke-width:0.5" />
<path d="M180.95,70.247L185.95,70.247" style="fill:none;stroke:#FF0000;stroke-width:0.5" />
<path d="M191.59,75.323L191.59,70.323" style="fill:none;stroke:#FF0000;stroke-width:0.5" />
<path d="M189.09,72.823L194.09,72.823" style="fill:none;stroke:#FF0000;stroke-width:0.5" />
<path d="M199.74,78.393L199.74,73.393" style="fill:none;stroke:#FF0000;stroke-width:0.5" />
<path d="M197.24,75.893L202.24,75.893" style="fill:none;stroke:#FF0000;stroke-width:0.5" />
<path d="M207.89,81.464L207.89,76.464" style="fill:none;stroke:#FF0000;stroke-width:0.5" />
<path d="M205.39,78.964L210.39,78.964" style="fill:none;stroke:#FF0000;stroke-width:0.5" />
<path d="M216.03,84.534L216.03,79.534" style="fill:none;stroke:#FF0000;stroke-width:0.5" />
<path d="M213.53,82.034L218.53,82.034" style="fill:none;stroke:#FF0000;stroke-width:0.5" />
<path d="M224.18,87.001L224.18,82.001" style="fill:none;stroke:#FF0000;stroke-width:0.5" />
<path d="M221.68,84.501L226.68,84.501" style="fill:none;stroke:#FF0000;stroke-width:0.5" />
<path d="M232.33,89.522L232.33,84.522" style="fill:none;stroke:#FF0000;stroke-width:0.5" />
<path d="M229.83,87.022L234.83,87.022" style="fill:none;stroke:#FF0000;stroke-width:0.5" />
<path d="M240.47,93.251L240.47,88.251" style="fill:none;stroke:#FF0000;stroke-width:0.5" />
<path d="M237.97,90.751L242.97,90.751" style="fill:none;stroke:#FF0000;stroke-width:0.5" />
<path d="M248.62,95.937L248.62,90.937" style="fill:none;stroke:#FF0000;stroke-width:0.5" />
<path d="M246.12,93.437L251.12,93.437" style="fill:none;stroke:#FF0000;stroke-width:0.5" />
<path d="M256.77,98.405L256.77,93.405" style="fill:none;stroke:#FF0000;stroke-width:0.5" />
<path d="M254.27,95.905L259.27,95.905" style="fill:none;stroke:#FF0000;stroke-width:0.5" />
<path d="M264.91,101.36L264.91,96.364" style="fill:none;stroke:#FF0000;stroke-width:0.5" />
<path d="M262.41,98.864L267.41,98.864" style="fill:none;stroke:#FF0000;stroke-width:0.5" />
<path d="M273.06,104.11L273.06,99.107" style="fill:none;stroke:#FF0000;stroke-width:0.5" />
<path d="M270.56,101.61L275.56,101.61" style="fill:none;stroke:#FF0000;stroke-width:0.5" />
<path d="M281.21,109.04L281.21,104.04" style="fill:none;stroke:#FF0000;stroke-width:0.5" />
<path d="M278.71,106.54L283.71,106.54" style="fill:none;stroke:#FF0000;stroke-width:0.5" />
<path d="M289.35,110.03L289.35,105.03" style="fill:none;stroke:#FF0000;stroke-width:0.5" />
<path d="M286.85,107.53L291.85,107.53" style="fill:none;stroke:#FF0000;stroke-width:0.5" />
<path d="M297.5,113.26L297.5,108.26" style="fill:none;stroke:#FF0000;stroke-width:0.5" />
<path d="M295,110.76L300,110.76" style="fill:none;stroke:#FF0000;stroke-width:0.5" />
<path d="M290,42.1L290,37.1" style="fill:none;stroke:#0000FF;stroke-width:0.5" />
<path d="M287.5,39.6L292.5,39.6" style="fill:none;stroke:#0000FF;stroke-width:0.5" />
<text x="252.36" y="-37.112" transform="scale(1, -1)"
	style="font-family:Liberation Serif;font-variant:normal;font-weight:normal;font-style:normal;font-size:12px">array</text>
<path d="M290,31.916L290,26.916" style="fill:none;stroke:#FF0000;stroke-width:0.5" />
<path d="M287.5,29.416L292.5,29.416" style="fill:none;stroke:#FF0000;stroke-width:0.5" />
<text x="229.33" y="-26.929" transform="scale(1, -1)"
	style="font-family:Liberation Serif;font-variant:normal;font-weight:normal;font-style:normal;font-size:12px">linked list</text>
</g>
</svg>
