<?xml version="1.0"?>
<!-- Generated by SVGo and Plotinum VG -->
<svg width="300pt" height="300pt" viewBox="0 0 300 300"
	xmlns="http://www.w3.org/2000/svg"
	xmlns:xlink="http://www.w3.org/1999/xlink">
<g transform="scale(1, -1) translate(0, -300)">
<path d="M0,0L300,0L300,300L0,300Z" style="fill:#FFFFFF" />
<text x="41.467" y="-288.81" transform="scale(1, -1)"
	style="font-family:Liberation Serif;font-variant:normal;font-weight:normal;font-style:normal;font-size:12px">linked list VS array append, median, 10 tries.</text>
<text x="71.382" y="-276.81" transform="scale(1, -1)"
	style="font-family:Liberation Serif;font-variant:normal;font-weight:normal;font-style:normal;font-size:12px"> (array reallocates every append)</text>
<text x="178.07" y="-3.9023" transform="scale(1, -1)"
	style="font-family:Liberation Serif;font-variant:normal;font-weight:normal;font-style:normal;font-size:12px">n</text>
<text x="62.135" y="-16.541" transform="scale(1, -1)"
	style="font-family:Liberation Serif;font-variant:normal;font-weight:normal;font-style:normal;font-size:10px">0</text>
<text x="148.49" y="-16.541" transform="scale(1, -1)"
	style="font-family:Liberation Serif;font-variant:normal;font-weight:normal;font-style:normal;font-size:10px">20000</text>
<text x="244.85" y="-16.541" transform="scale(1, -1)"
	style="font-family:Liberation Serif;font-variant:normal;font-weight:normal;font-style:normal;font-size:10px">40000</text>
<path d="M64.635,24.363L64.635,32.363" style="fill:none;stroke:#000000;stroke-width:0.5" />
<path d="M160.99,24.363L160.99,32.363" style="fill:none;stroke:#000000;stroke-width:0.5" />
<path d="M257.35,24.363L257.35,32.363" style="fill:none;stroke:#000000;stroke-width:0.5" />
<path d="M112.81,28.363L112.81,32.363" style="fill:none;stroke:#000000;stroke-width:0.5" />
<path d="M209.17,28.363L209.17,32.363" style="fill:none;stroke:#000000;stroke-width:0.5" />
<path d="M64.635,32.363L297.5,32.363" style="fill:none;stroke:#000000;stroke-width:0.5" />
<g transform="rotate(90)">
<text x="127.07" y="9.3867" transform="scale(1, -1)"
	style="font-family:Liberation Serif;font-variant:normal;font-weight:normal;font-style:normal;font-size:12px">runtime (ns)</text>
</g>
<text x="20.885" y="-82.585" transform="scale(1, -1)"
	style="font-family:Liberation Serif;font-variant:normal;font-weight:normal;font-style:normal;font-size:10px">40000</text>
<text x="15.885" y="-167.08" transform="scale(1, -1)"
	style="font-family:Liberation Serif;font-variant:normal;font-weight:normal;font-style:normal;font-size:10px">120000</text>
<text x="15.885" y="-251.58" transform="scale(1, -1)"
	style="font-family:Liberation Serif;font-variant:normal;font-weight:normal;font-style:normal;font-size:10px">200000</text>
<path d="M48.385,84.87L56.385,84.87" style="fill:none;stroke:#000000;stroke-width:0.5" />
<path d="M48.385,169.37L56.385,169.37" style="fill:none;stroke:#000000;stroke-width:0.5" />
<path d="M48.385,253.86L56.385,253.86" style="fill:none;stroke:#000000;stroke-width:0.5" />
<path d="M52.385,127.12L56.385,127.12" style="fill:none;stroke:#000000;stroke-width:0.5" />
<path d="M52.385,211.62L56.385,211.62" style="fill:none;stroke:#000000;stroke-width:0.5" />
<path d="M56.385,42.709L56.385,270.41" style="fill:none;stroke:#000000;stroke-width:0.5" />
<path d="M64.635,108.63L64.635,103.63" style="fill:none;stroke:#0000FF;stroke-width:0.5" />
<path d="M62.135,106.13L67.135,106.13" style="fill:none;stroke:#0000FF;stroke-width:0.5" />
<path d="M72.661,159.24L72.661,154.24" style="fill:none;stroke:#0000FF;stroke-width:0.5" />
<path d="M70.161,156.74L75.161,156.74" style="fill:none;stroke:#0000FF;stroke-width:0.5" />
<path d="M80.693,173.63L80.693,168.63" style="fill:none;stroke:#0000FF;stroke-width:0.5" />
<path d="M78.193,171.13L83.193,171.13" style="fill:none;stroke:#0000FF;stroke-width:0.5" />
<path d="M88.724,116.64L88.724,111.64" style="fill:none;stroke:#0000FF;stroke-width:0.5" />
<path d="M86.224,114.14L91.224,114.14" style="fill:none;stroke:#0000FF;stroke-width:0.5" />
<path d="M96.751,155.94L96.751,150.94" style="fill:none;stroke:#0000FF;stroke-width:0.5" />
<path d="M94.251,153.44L99.251,153.44" style="fill:none;stroke:#0000FF;stroke-width:0.5" />
<path d="M104.78,144.49L104.78,139.49" style="fill:none;stroke:#0000FF;stroke-width:0.5" />
<path d="M102.28,141.99L107.28,141.99" style="fill:none;stroke:#0000FF;stroke-width:0.5" />
<path d="M112.81,144.76L112.81,139.76" style="fill:none;stroke:#0000FF;stroke-width:0.5" />
<path d="M110.31,142.26L115.31,142.26" style="fill:none;stroke:#0000FF;stroke-width:0.5" />
<path d="M120.84,149.6L120.84,144.6" style="fill:none;stroke:#0000FF;stroke-width:0.5" />
<path d="M118.34,147.1L123.34,147.1" style="fill:none;stroke:#0000FF;stroke-width:0.5" />
<path d="M128.87,117.78L128.87,112.78" style="fill:none;stroke:#0000FF;stroke-width:0.5" />
<path d="M126.37,115.28L131.37,115.28" style="fill:none;stroke:#0000FF;stroke-width:0.5" />
<path d="M136.9,149.07L136.9,144.07" style="fill:none;stroke:#0000FF;stroke-width:0.5" />
<path d="M134.4,146.57L139.4,146.57" style="fill:none;stroke:#0000FF;stroke-width:0.5" />
<path d="M144.93,125.39L144.93,120.39" style="fill:none;stroke:#0000FF;stroke-width:0.5" />
<path d="M142.43,122.89L147.43,122.89" style="fill:none;stroke:#0000FF;stroke-width:0.5" />
<path d="M152.96,150.65L152.96,145.65" style="fill:none;stroke:#0000FF;stroke-width:0.5" />
<path d="M150.46,148.15L155.46,148.15" style="fill:none;stroke:#0000FF;stroke-width:0.5" />
<path d="M160.99,156.2L160.99,151.2" style="fill:none;stroke:#0000FF;stroke-width:0.5" />
<path d="M158.49,153.7L163.49,153.7" style="fill:none;stroke:#0000FF;stroke-width:0.5" />
<path d="M169.02,174.2L169.02,169.2" style="fill:none;stroke:#0000FF;stroke-width:0.5" />
<path d="M166.52,171.7L171.52,171.7" style="fill:none;stroke:#0000FF;stroke-width:0.5" />
<path d="M177.05,153.07L177.05,148.07" style="fill:none;stroke:#0000FF;stroke-width:0.5" />
<path d="M174.55,150.57L179.55,150.57" style="fill:none;stroke:#0000FF;stroke-width:0.5" />
<path d="M185.08,232.95L185.08,227.95" style="fill:none;stroke:#0000FF;stroke-width:0.5" />
<path d="M182.58,230.45L187.58,230.45" style="fill:none;stroke:#0000FF;stroke-width:0.5" />
<path d="M193.11,190.79L193.11,185.79" style="fill:none;stroke:#0000FF;stroke-width:0.5" />
<path d="M190.61,188.29L195.61,188.29" style="fill:none;stroke:#0000FF;stroke-width:0.5" />
<path d="M201.14,196.03L201.14,191.03" style="fill:none;stroke:#0000FF;stroke-width:0.5" />
<path d="M198.64,193.53L203.64,193.53" style="fill:none;stroke:#0000FF;stroke-width:0.5" />
<path d="M209.17,166.19L209.17,161.19" style="fill:none;stroke:#0000FF;stroke-width:0.5" />
<path d="M206.67,163.69L211.67,163.69" style="fill:none;stroke:#0000FF;stroke-width:0.5" />
<path d="M217.2,213.85L217.2,208.85" style="fill:none;stroke:#0000FF;stroke-width:0.5" />
<path d="M214.7,211.35L219.7,211.35" style="fill:none;stroke:#0000FF;stroke-width:0.5" />
<path d="M225.23,171.51L225.23,166.51" style="fill:none;stroke:#0000FF;stroke-width:0.5" />
<path d="M222.73,169.01L227.73,169.01" style="fill:none;stroke:#0000FF;stroke-width:0.5" />
<path d="M233.26,227.76L233.26,222.76" style="fill:none;stroke:#0000FF;stroke-width:0.5" />
<path d="M230.76,225.26L235.76,225.26" style="fill:none;stroke:#0000FF;stroke-width:0.5" />
<path d="M241.29,186.92L241.29,181.92" style="fill:none;stroke:#0000FF;stroke-width:0.5" />
<path d="M238.79,184.42L243.79,184.42" style="fill:none;stroke:#0000FF;stroke-width:0.5" />
<path d="M249.32,272.91L249.32,267.91" style="fill:none;stroke:#0000FF;stroke-width:0.5" />
<path d="M246.82,270.41L251.82,270.41" style="fill:none;stroke:#0000FF;stroke-width:0.5" />
<path d="M257.35,182.52L257.35,177.52" style="fill:none;stroke:#0000FF;stroke-width:0.5" />
<path d="M254.85,180.02L259.85,180.02" style="fill:none;stroke:#0000FF;stroke-width:0.5" />
<path d="M265.38,193.39L265.38,188.39" style="fill:none;stroke:#0000FF;stroke-width:0.5" />
<path d="M262.88,190.89L267.88,190.89" style="fill:none;stroke:#0000FF;stroke-width:0.5" />
<path d="M273.41,183.71L273.41,178.71" style="fill:none;stroke:#0000FF;stroke-width:0.5" />
<path d="M270.91,181.21L275.91,181.21" style="fill:none;stroke:#0000FF;stroke-width:0.5" />
<path d="M281.44,166.41L281.44,161.41" style="fill:none;stroke:#0000FF;stroke-width:0.5" />
<path d="M278.94,163.91L283.94,163.91" style="fill:none;stroke:#0000FF;stroke-width:0.5" />
<path d="M289.47,229.52L289.47,224.52" style="fill:none;stroke:#0000FF;stroke-width:0.5" />
<path d="M286.97,227.02L291.97,227.02" style="fill:none;stroke:#0000FF;stroke-width:0.5" />
<path d="M297.5,220.98L297.5,215.98" style="fill:none;stroke:#0000FF;stroke-width:0.5" />
<path d="M295,218.48L300,218.48" style="fill:none;stroke:#0000FF;stroke-width:0.5" />
<path d="M64.635,45.209L64.635,40.209" style="fill:none;stroke:#FF0000;stroke-width:0.5" />
<path d="M62.135,42.709L67.135,42.709" style="fill:none;stroke:#FF0000;stroke-width:0.5" />
<path d="M72.661,47.498L72.661,42.498" style="fill:none;stroke:#FF0000;stroke-width:0.5" />
<path d="M70.161,44.998L75.161,44.998" style="fill:none;stroke:#FF0000;stroke-width:0.5" />
<path d="M80.693,49.874L80.693,44.874" style="fill:none;stroke:#FF0000;stroke-width:0.5" />
<path d="M78.193,47.374L83.193,47.374" style="fill:none;stroke:#FF0000;stroke-width:0.5" />
<path d="M88.724,52.558L88.724,47.558" style="fill:none;stroke:#FF0000;stroke-width:0.5" />
<path d="M86.224,50.058L91.224,50.058" style="fill:none;stroke:#FF0000;stroke-width:0.5" />
<path d="M96.751,55.2L96.751,50.2" style="fill:none;stroke:#FF0000;stroke-width:0.5" />
<path d="M94.251,52.7L99.251,52.7" style="fill:none;stroke:#FF0000;stroke-width:0.5" />
<path d="M104.78,57.664L104.78,52.664" style="fill:none;stroke:#FF0000;stroke-width:0.5" />
<path d="M102.28,55.164L107.28,55.164" style="fill:none;stroke:#FF0000;stroke-width:0.5" />
<path d="M112.81,60.128L112.81,55.128" style="fill:none;stroke:#FF0000;stroke-width:0.5" />
<path d="M110.31,57.628L115.31,57.628" style="fill:none;stroke:#FF0000;stroke-width:0.5" />
<path d="M120.84,62.461L120.84,57.461" style="fill:none;stroke:#FF0000;stroke-width:0.5" />
<path d="M118.34,59.961L123.34,59.961" style="fill:none;stroke:#FF0000;stroke-width:0.5" />
<path d="M128.87,64.838L128.87,59.838" style="fill:none;stroke:#FF0000;stroke-width:0.5" />
<path d="M126.37,62.338L131.37,62.338" style="fill:none;stroke:#FF0000;stroke-width:0.5" />
<path d="M136.9,67.082L136.9,62.082" style="fill:none;stroke:#FF0000;stroke-width:0.5" />
<path d="M134.4,64.582L139.4,64.582" style="fill:none;stroke:#FF0000;stroke-width:0.5" />
<path d="M144.93,69.282L144.93,64.282" style="fill:none;stroke:#FF0000;stroke-width:0.5" />
<path d="M142.43,66.782L147.43,66.782" style="fill:none;stroke:#FF0000;stroke-width:0.5" />
<path d="M152.96,71.35L152.96,66.35" style="fill:none;stroke:#FF0000;stroke-width:0.5" />
<path d="M150.46,68.85L155.46,68.85" style="fill:none;stroke:#FF0000;stroke-width:0.5" />
<path d="M160.99,73.727L160.99,68.727" style="fill:none;stroke:#FF0000;stroke-width:0.5" />
<path d="M158.49,71.227L163.49,71.227" style="fill:none;stroke:#FF0000;stroke-width:0.5" />
<path d="M169.02,76.103L169.02,71.103" style="fill:none;stroke:#FF0000;stroke-width:0.5" />
<path d="M166.52,73.603L171.52,73.603" style="fill:none;stroke:#FF0000;stroke-width:0.5" />
<path d="M177.05,78.348L177.05,73.348" style="fill:none;stroke:#FF0000;stroke-width:0.5" />
<path d="M174.55,75.848L179.55,75.848" style="fill:none;stroke:#FF0000;stroke-width:0.5" />
<path d="M185.08,81.252L185.08,76.252" style="fill:none;stroke:#FF0000;stroke-width:0.5" />
<path d="M182.58,78.752L187.58,78.752" style="fill:none;stroke:#FF0000;stroke-width:0.5" />
<path d="M193.11,82.749L193.11,77.749" style="fill:none;stroke:#FF0000;stroke-width:0.5" />
<path d="M190.61,80.249L195.61,80.249" style="fill:none;stroke:#FF0000;stroke-width:0.5" />
<path d="M201.14,85.522L201.14,80.522" style="fill:none;stroke:#FF0000;stroke-width:0.5" />
<path d="M198.64,83.022L203.64,83.022" style="fill:none;stroke:#FF0000;stroke-width:0.5" />
<path d="M209.17,87.59L209.17,82.59" style="fill:none;stroke:#FF0000;stroke-width:0.5" />
<path d="M206.67,85.09L211.67,85.09" style="fill:none;stroke:#FF0000;stroke-width:0.5" />
<path d="M217.2,90.055L217.2,85.055" style="fill:none;stroke:#FF0000;stroke-width:0.5" />
<path d="M214.7,87.555L219.7,87.555" style="fill:none;stroke:#FF0000;stroke-width:0.5" />
<path d="M225.23,91.816L225.23,86.816" style="fill:none;stroke:#FF0000;stroke-width:0.5" />
<path d="M222.73,89.316L227.73,89.316" style="fill:none;stroke:#FF0000;stroke-width:0.5" />
<path d="M233.26,94.851L233.26,89.851" style="fill:none;stroke:#FF0000;stroke-width:0.5" />
<path d="M230.76,92.351L235.76,92.351" style="fill:none;stroke:#FF0000;stroke-width:0.5" />
<path d="M241.29,96.876L241.29,91.876" style="fill:none;stroke:#FF0000;stroke-width:0.5" />
<path d="M238.79,94.376L243.79,94.376" style="fill:none;stroke:#FF0000;stroke-width:0.5" />
<path d="M249.32,99.429L249.32,94.429" style="fill:none;stroke:#FF0000;stroke-width:0.5" />
<path d="M246.82,96.929L251.82,96.929" style="fill:none;stroke:#FF0000;stroke-width:0.5" />
<path d="M257.35,101.63L257.35,96.629" style="fill:none;stroke:#FF0000;stroke-width:0.5" />
<path d="M254.85,99.129L259.85,99.129" style="fill:none;stroke:#FF0000;stroke-width:0.5" />
<path d="M265.38,103.83L265.38,98.829" style="fill:none;stroke:#FF0000;stroke-width:0.5" />
<path d="M262.88,101.33L267.88,101.33" style="fill:none;stroke:#FF0000;stroke-width:0.5" />
<path d="M273.41,106.03L273.41,101.03" style="fill:none;stroke:#FF0000;stroke-width:0.5" />
<path d="M270.91,103.53L275.91,103.53" style="fill:none;stroke:#FF0000;stroke-width:0.5" />
<path d="M281.44,108.49L281.44,103.49" style="fill:none;stroke:#FF0000;stroke-width:0.5" />
<path d="M278.94,105.99L283.94,105.99" style="fill:none;stroke:#FF0000;stroke-width:0.5" />
<path d="M289.47,111L289.47,106" style="fill:none;stroke:#FF0000;stroke-width:0.5" />
<path d="M286.97,108.5L291.97,108.5" style="fill:none;stroke:#FF0000;stroke-width:0.5" />
<path d="M297.5,113.12L297.5,108.12" style="fill:none;stroke:#FF0000;stroke-width:0.5" />
<path d="M295,110.62L300,110.62" style="fill:none;stroke:#FF0000;stroke-width:0.5" />
<path d="M290,57.984L290,52.984" style="fill:none;stroke:#0000FF;stroke-width:0.5" />
<path d="M287.5,55.484L292.5,55.484" style="fill:none;stroke:#0000FF;stroke-width:0.5" />
<text x="252.36" y="-52.997" transform="scale(1, -1)"
	style="font-family:Liberation Serif;font-variant:normal;font-weight:normal;font-style:normal;font-size:12px">array</text>
<path d="M290,47.801L290,42.801" style="fill:none;stroke:#FF0000;stroke-width:0.5" />
<path d="M287.5,45.301L292.5,45.301" style="fill:none;stroke:#FF0000;stroke-width:0.5" />
<text x="229.33" y="-42.813" transform="scale(1, -1)"
	style="font-family:Liberation Serif;font-variant:normal;font-weight:normal;font-style:normal;font-size:12px">linked list</text>
</g>
</svg>
