<?xml version="1.0"?>
<!-- Generated by SVGo and Plotinum VG -->
<svg width="300pt" height="300pt" viewBox="0 0 300 300"
	xmlns="http://www.w3.org/2000/svg"
	xmlns:xlink="http://www.w3.org/1999/xlink">
<g transform="scale(1, -1) translate(0, -300)">
<path d="M0,0L300,0L300,300L0,300Z" style="fill:#FFFFFF" />
<text x="50.792" y="-290.61" transform="scale(1, -1)"
	style="font-family:Liberation Serif;font-variant:normal;font-weight:normal;font-style:normal;font-size:12px">linked list VS array init, median, 10 tries.</text>
<text x="178.07" y="-3.9023" transform="scale(1, -1)"
	style="font-family:Liberation Serif;font-variant:normal;font-weight:normal;font-style:normal;font-size:12px">n</text>
<text x="62.135" y="-16.541" transform="scale(1, -1)"
	style="font-family:Liberation Serif;font-variant:normal;font-weight:normal;font-style:normal;font-size:10px">0</text>
<text x="148.49" y="-16.541" transform="scale(1, -1)"
	style="font-family:Liberation Serif;font-variant:normal;font-weight:normal;font-style:normal;font-size:10px">20000</text>
<text x="244.85" y="-16.541" transform="scale(1, -1)"
	style="font-family:Liberation Serif;font-variant:normal;font-weight:normal;font-style:normal;font-size:10px">40000</text>
<path d="M64.635,24.363L64.635,32.363" style="fill:none;stroke:#000000;stroke-width:0.5" />
<path d="M160.99,24.363L160.99,32.363" style="fill:none;stroke:#000000;stroke-width:0.5" />
<path d="M257.35,24.363L257.35,32.363" style="fill:none;stroke:#000000;stroke-width:0.5" />
<path d="M112.81,28.363L112.81,32.363" style="fill:none;stroke:#000000;stroke-width:0.5" />
<path d="M209.17,28.363L209.17,32.363" style="fill:none;stroke:#000000;stroke-width:0.5" />
<path d="M64.635,32.363L297.5,32.363" style="fill:none;stroke:#000000;stroke-width:0.5" />
<g transform="rotate(90)">
<text x="133.97" y="9.3867" transform="scale(1, -1)"
	style="font-family:Liberation Serif;font-variant:normal;font-weight:normal;font-style:normal;font-size:12px">runtime (ns)</text>
</g>
<text x="15.885" y="-65.76" transform="scale(1, -1)"
	style="font-family:Liberation Serif;font-variant:normal;font-weight:normal;font-style:normal;font-size:10px">100000</text>
<text x="15.885" y="-167.15" transform="scale(1, -1)"
	style="font-family:Liberation Serif;font-variant:normal;font-weight:normal;font-style:normal;font-size:10px">500000</text>
<text x="15.885" y="-268.53" transform="scale(1, -1)"
	style="font-family:Liberation Serif;font-variant:normal;font-weight:normal;font-style:normal;font-size:10px">900000</text>
<path d="M48.385,68.045L56.385,68.045" style="fill:none;stroke:#000000;stroke-width:0.5" />
<path d="M48.385,169.43L56.385,169.43" style="fill:none;stroke:#000000;stroke-width:0.5" />
<path d="M48.385,270.82L56.385,270.82" style="fill:none;stroke:#000000;stroke-width:0.5" />
<path d="M52.385,93.392L56.385,93.392" style="fill:none;stroke:#000000;stroke-width:0.5" />
<path d="M52.385,118.74L56.385,118.74" style="fill:none;stroke:#000000;stroke-width:0.5" />
<path d="M52.385,144.09L56.385,144.09" style="fill:none;stroke:#000000;stroke-width:0.5" />
<path d="M52.385,194.78L56.385,194.78" style="fill:none;stroke:#000000;stroke-width:0.5" />
<path d="M52.385,220.13L56.385,220.13" style="fill:none;stroke:#000000;stroke-width:0.5" />
<path d="M52.385,245.47L56.385,245.47" style="fill:none;stroke:#000000;stroke-width:0.5" />
<path d="M56.385,42.709L56.385,284.21" style="fill:none;stroke:#000000;stroke-width:0.5" />
<path d="M64.635,45.209L64.635,40.209" style="fill:none;stroke:#0000FF;stroke-width:0.5" />
<path d="M62.135,42.709L67.135,42.709" style="fill:none;stroke:#0000FF;stroke-width:0.5" />
<path d="M72.661,45.314L72.661,40.314" style="fill:none;stroke:#0000FF;stroke-width:0.5" />
<path d="M70.161,42.814L75.161,42.814" style="fill:none;stroke:#0000FF;stroke-width:0.5" />
<path d="M80.693,45.293L80.693,40.293" style="fill:none;stroke:#0000FF;stroke-width:0.5" />
<path d="M78.193,42.793L83.193,42.793" style="fill:none;stroke:#0000FF;stroke-width:0.5" />
<path d="M88.724,45.441L88.724,40.441" style="fill:none;stroke:#0000FF;stroke-width:0.5" />
<path d="M86.224,42.941L91.224,42.941" style="fill:none;stroke:#0000FF;stroke-width:0.5" />
<path d="M96.751,45.494L96.751,40.494" style="fill:none;stroke:#0000FF;stroke-width:0.5" />
<path d="M94.251,42.994L99.251,42.994" style="fill:none;stroke:#0000FF;stroke-width:0.5" />
<path d="M104.78,45.547L104.78,40.547" style="fill:none;stroke:#0000FF;stroke-width:0.5" />
<path d="M102.28,43.047L107.28,43.047" style="fill:none;stroke:#0000FF;stroke-width:0.5" />
<path d="M112.81,45.515L112.81,40.515" style="fill:none;stroke:#0000FF;stroke-width:0.5" />
<path d="M110.31,43.015L115.31,43.015" style="fill:none;stroke:#0000FF;stroke-width:0.5" />
<path d="M120.84,45.726L120.84,40.726" style="fill:none;stroke:#0000FF;stroke-width:0.5" />
<path d="M118.34,43.226L123.34,43.226" style="fill:none;stroke:#0000FF;stroke-width:0.5" />
<path d="M128.87,45.779L128.87,40.779" style="fill:none;stroke:#0000FF;stroke-width:0.5" />
<path d="M126.37,43.279L131.37,43.279" style="fill:none;stroke:#0000FF;stroke-width:0.5" />
<path d="M136.9,45.938L136.9,40.938" style="fill:none;stroke:#0000FF;stroke-width:0.5" />
<path d="M134.4,43.438L139.4,43.438" style="fill:none;stroke:#0000FF;stroke-width:0.5" />
<path d="M144.93,46.402L144.93,41.402" style="fill:none;stroke:#0000FF;stroke-width:0.5" />
<path d="M142.43,43.902L147.43,43.902" style="fill:none;stroke:#0000FF;stroke-width:0.5" />
<path d="M152.96,46.149L152.96,41.149" style="fill:none;stroke:#0000FF;stroke-width:0.5" />
<path d="M150.46,43.649L155.46,43.649" style="fill:none;stroke:#0000FF;stroke-width:0.5" />
<path d="M160.99,45.885L160.99,40.885" style="fill:none;stroke:#0000FF;stroke-width:0.5" />
<path d="M158.49,43.385L163.49,43.385" style="fill:none;stroke:#0000FF;stroke-width:0.5" />
<path d="M169.02,46.001L169.02,41.001" style="fill:none;stroke:#0000FF;stroke-width:0.5" />
<path d="M166.52,43.501L171.52,43.501" style="fill:none;stroke:#0000FF;stroke-width:0.5" />
<path d="M177.05,45.885L177.05,40.885" style="fill:none;stroke:#0000FF;stroke-width:0.5" />
<path d="M174.55,43.385L179.55,43.385" style="fill:none;stroke:#0000FF;stroke-width:0.5" />
<path d="M185.08,47.342L185.08,42.342" style="fill:none;stroke:#0000FF;stroke-width:0.5" />
<path d="M182.58,44.842L187.58,44.842" style="fill:none;stroke:#0000FF;stroke-width:0.5" />
<path d="M193.11,46.075L193.11,41.075" style="fill:none;stroke:#0000FF;stroke-width:0.5" />
<path d="M190.61,43.575L195.61,43.575" style="fill:none;stroke:#0000FF;stroke-width:0.5" />
<path d="M201.14,47.015L201.14,42.015" style="fill:none;stroke:#0000FF;stroke-width:0.5" />
<path d="M198.64,44.515L203.64,44.515" style="fill:none;stroke:#0000FF;stroke-width:0.5" />
<path d="M209.17,46.329L209.17,41.329" style="fill:none;stroke:#0000FF;stroke-width:0.5" />
<path d="M206.67,43.829L211.67,43.829" style="fill:none;stroke:#0000FF;stroke-width:0.5" />
<path d="M217.2,46.878L217.2,41.878" style="fill:none;stroke:#0000FF;stroke-width:0.5" />
<path d="M214.7,44.378L219.7,44.378" style="fill:none;stroke:#0000FF;stroke-width:0.5" />
<path d="M225.23,46.033L225.23,41.033" style="fill:none;stroke:#0000FF;stroke-width:0.5" />
<path d="M222.73,43.533L227.73,43.533" style="fill:none;stroke:#0000FF;stroke-width:0.5" />
<path d="M233.26,46.138L233.26,41.138" style="fill:none;stroke:#0000FF;stroke-width:0.5" />
<path d="M230.76,43.638L235.76,43.638" style="fill:none;stroke:#0000FF;stroke-width:0.5" />
<path d="M241.29,46.423L241.29,41.423" style="fill:none;stroke:#0000FF;stroke-width:0.5" />
<path d="M238.79,43.923L243.79,43.923" style="fill:none;stroke:#0000FF;stroke-width:0.5" />
<path d="M249.32,50.057L249.32,45.057" style="fill:none;stroke:#0000FF;stroke-width:0.5" />
<path d="M246.82,47.557L251.82,47.557" style="fill:none;stroke:#0000FF;stroke-width:0.5" />
<path d="M257.35,48.314L257.35,43.314" style="fill:none;stroke:#0000FF;stroke-width:0.5" />
<path d="M254.85,45.814L259.85,45.814" style="fill:none;stroke:#0000FF;stroke-width:0.5" />
<path d="M265.38,49.264L265.38,44.264" style="fill:none;stroke:#0000FF;stroke-width:0.5" />
<path d="M262.88,46.764L267.88,46.764" style="fill:none;stroke:#0000FF;stroke-width:0.5" />
<path d="M273.41,48.842L273.41,43.842" style="fill:none;stroke:#0000FF;stroke-width:0.5" />
<path d="M270.91,46.342L275.91,46.342" style="fill:none;stroke:#0000FF;stroke-width:0.5" />
<path d="M281.44,48.641L281.44,43.641" style="fill:none;stroke:#0000FF;stroke-width:0.5" />
<path d="M278.94,46.141L283.94,46.141" style="fill:none;stroke:#0000FF;stroke-width:0.5" />
<path d="M289.47,50.479L289.47,45.479" style="fill:none;stroke:#0000FF;stroke-width:0.5" />
<path d="M286.97,47.979L291.97,47.979" style="fill:none;stroke:#0000FF;stroke-width:0.5" />
<path d="M297.5,52.591L297.5,47.591" style="fill:none;stroke:#0000FF;stroke-width:0.5" />
<path d="M295,50.091L300,50.091" style="fill:none;stroke:#0000FF;stroke-width:0.5" />
<path d="M64.635,45.22L64.635,40.22" style="fill:none;stroke:#FF0000;stroke-width:0.5" />
<path d="M62.135,42.72L67.135,42.72" style="fill:none;stroke:#FF0000;stroke-width:0.5" />
<path d="M72.661,53.7L72.661,48.7" style="fill:none;stroke:#FF0000;stroke-width:0.5" />
<path d="M70.161,51.2L75.161,51.2" style="fill:none;stroke:#FF0000;stroke-width:0.5" />
<path d="M80.693,62.508L80.693,57.508" style="fill:none;stroke:#FF0000;stroke-width:0.5" />
<path d="M78.193,60.008L83.193,60.008" style="fill:none;stroke:#FF0000;stroke-width:0.5" />
<path d="M88.724,71.432L88.724,66.432" style="fill:none;stroke:#FF0000;stroke-width:0.5" />
<path d="M86.224,68.932L91.224,68.932" style="fill:none;stroke:#FF0000;stroke-width:0.5" />
<path d="M96.751,78.91L96.751,73.91" style="fill:none;stroke:#FF0000;stroke-width:0.5" />
<path d="M94.251,76.41L99.251,76.41" style="fill:none;stroke:#FF0000;stroke-width:0.5" />
<path d="M104.78,88.077L104.78,83.077" style="fill:none;stroke:#FF0000;stroke-width:0.5" />
<path d="M102.28,85.577L107.28,85.577" style="fill:none;stroke:#FF0000;stroke-width:0.5" />
<path d="M112.81,95.459L112.81,90.459" style="fill:none;stroke:#FF0000;stroke-width:0.5" />
<path d="M110.31,92.959L115.31,92.959" style="fill:none;stroke:#FF0000;stroke-width:0.5" />
<path d="M120.84,103.8L120.84,98.802" style="fill:none;stroke:#FF0000;stroke-width:0.5" />
<path d="M118.34,101.3L123.34,101.3" style="fill:none;stroke:#FF0000;stroke-width:0.5" />
<path d="M128.87,111.39L128.87,106.39" style="fill:none;stroke:#FF0000;stroke-width:0.5" />
<path d="M126.37,108.89L131.37,108.89" style="fill:none;stroke:#FF0000;stroke-width:0.5" />
<path d="M136.9,120.71L136.9,115.71" style="fill:none;stroke:#FF0000;stroke-width:0.5" />
<path d="M134.4,118.21L139.4,118.21" style="fill:none;stroke:#FF0000;stroke-width:0.5" />
<path d="M144.93,127.86L144.93,122.86" style="fill:none;stroke:#FF0000;stroke-width:0.5" />
<path d="M142.43,125.36L147.43,125.36" style="fill:none;stroke:#FF0000;stroke-width:0.5" />
<path d="M152.96,136.63L152.96,131.63" style="fill:none;stroke:#FF0000;stroke-width:0.5" />
<path d="M150.46,134.13L155.46,134.13" style="fill:none;stroke:#FF0000;stroke-width:0.5" />
<path d="M160.99,145.81L160.99,140.81" style="fill:none;stroke:#FF0000;stroke-width:0.5" />
<path d="M158.49,143.31L163.49,143.31" style="fill:none;stroke:#FF0000;stroke-width:0.5" />
<path d="M169.02,153.96L169.02,148.96" style="fill:none;stroke:#FF0000;stroke-width:0.5" />
<path d="M166.52,151.46L171.52,151.46" style="fill:none;stroke:#FF0000;stroke-width:0.5" />
<path d="M177.05,162.02L177.05,157.02" style="fill:none;stroke:#FF0000;stroke-width:0.5" />
<path d="M174.55,159.52L179.55,159.52" style="fill:none;stroke:#FF0000;stroke-width:0.5" />
<path d="M185.08,169.75L185.08,164.75" style="fill:none;stroke:#FF0000;stroke-width:0.5" />
<path d="M182.58,167.25L187.58,167.25" style="fill:none;stroke:#FF0000;stroke-width:0.5" />
<path d="M193.11,179.87L193.11,174.87" style="fill:none;stroke:#FF0000;stroke-width:0.5" />
<path d="M190.61,177.37L195.61,177.37" style="fill:none;stroke:#FF0000;stroke-width:0.5" />
<path d="M201.14,186.64L201.14,181.64" style="fill:none;stroke:#FF0000;stroke-width:0.5" />
<path d="M198.64,184.14L203.64,184.14" style="fill:none;stroke:#FF0000;stroke-width:0.5" />
<path d="M209.17,197.16L209.17,192.16" style="fill:none;stroke:#FF0000;stroke-width:0.5" />
<path d="M206.67,194.66L211.67,194.66" style="fill:none;stroke:#FF0000;stroke-width:0.5" />
<path d="M217.2,205.72L217.2,200.72" style="fill:none;stroke:#FF0000;stroke-width:0.5" />
<path d="M214.7,203.22L219.7,203.22" style="fill:none;stroke:#FF0000;stroke-width:0.5" />
<path d="M225.23,212.94L225.23,207.94" style="fill:none;stroke:#FF0000;stroke-width:0.5" />
<path d="M222.73,210.44L227.73,210.44" style="fill:none;stroke:#FF0000;stroke-width:0.5" />
<path d="M233.26,219.8L233.26,214.8" style="fill:none;stroke:#FF0000;stroke-width:0.5" />
<path d="M230.76,217.3L235.76,217.3" style="fill:none;stroke:#FF0000;stroke-width:0.5" />
<path d="M241.29,235.23L241.29,230.23" style="fill:none;stroke:#FF0000;stroke-width:0.5" />
<path d="M238.79,232.73L243.79,232.73" style="fill:none;stroke:#FF0000;stroke-width:0.5" />
<path d="M249.32,241.76L249.32,236.76" style="fill:none;stroke:#FF0000;stroke-width:0.5" />
<path d="M246.82,239.26L251.82,239.26" style="fill:none;stroke:#FF0000;stroke-width:0.5" />
<path d="M257.35,248.54L257.35,243.54" style="fill:none;stroke:#FF0000;stroke-width:0.5" />
<path d="M254.85,246.04L259.85,246.04" style="fill:none;stroke:#FF0000;stroke-width:0.5" />
<path d="M265.38,264.32L265.38,259.32" style="fill:none;stroke:#FF0000;stroke-width:0.5" />
<path d="M262.88,261.82L267.88,261.82" style="fill:none;stroke:#FF0000;stroke-width:0.5" />
<path d="M273.41,263.58L273.41,258.58" style="fill:none;stroke:#FF0000;stroke-width:0.5" />
<path d="M270.91,261.08L275.91,261.08" style="fill:none;stroke:#FF0000;stroke-width:0.5" />
<path d="M281.44,270.89L281.44,265.89" style="fill:none;stroke:#FF0000;stroke-width:0.5" />
<path d="M278.94,268.39L283.94,268.39" style="fill:none;stroke:#FF0000;stroke-width:0.5" />
<path d="M289.47,277.03L289.47,272.03" style="fill:none;stroke:#FF0000;stroke-width:0.5" />
<path d="M286.97,274.53L291.97,274.53" style="fill:none;stroke:#FF0000;stroke-width:0.5" />
<path d="M297.5,286.71L297.5,281.71" style="fill:none;stroke:#FF0000;stroke-width:0.5" />
<path d="M295,284.21L300,284.21" style="fill:none;stroke:#FF0000;stroke-width:0.5" />
<path d="M290,57.984L290,52.984" style="fill:none;stroke:#0000FF;stroke-width:0.5" />
<path d="M287.5,55.484L292.5,55.484" style="fill:none;stroke:#0000FF;stroke-width:0.5" />
<text x="252.36" y="-52.997" transform="scale(1, -1)"
	style="font-family:Liberation Serif;font-variant:normal;font-weight:normal;font-style:normal;font-size:12px">array</text>
<path d="M290,47.801L290,42.801" style="fill:none;stroke:#FF0000;stroke-width:0.5" />
<path d="M287.5,45.301L292.5,45.301" style="fill:none;stroke:#FF0000;stroke-width:0.5" />
<text x="229.33" y="-42.813" transform="scale(1, -1)"
	style="font-family:Liberation Serif;font-variant:normal;font-weight:normal;font-style:normal;font-size:12px">linked list</text>
</g>
</svg>
