<?xml version="1.0"?>
<!-- Generated by SVGo and Plotinum VG -->
<svg width="300pt" height="300pt" viewBox="0 0 300 300"
	xmlns="http://www.w3.org/2000/svg"
	xmlns:xlink="http://www.w3.org/1999/xlink">
<g transform="scale(1, -1) translate(0, -300)">
<path d="M0,0L300,0L300,300L0,300Z" style="fill:#FFFFFF" />
<text x="50.792" y="-290.61" transform="scale(1, -1)"
	style="font-family:Liberation Serif;font-variant:normal;font-weight:normal;font-style:normal;font-size:12px">linked list VS array init, median, 10 tries.</text>
<text x="178.07" y="-3.9023" transform="scale(1, -1)"
	style="font-family:Liberation Serif;font-variant:normal;font-weight:normal;font-style:normal;font-size:12px">n</text>
<text x="62.135" y="-16.541" transform="scale(1, -1)"
	style="font-family:Liberation Serif;font-variant:normal;font-weight:normal;font-style:normal;font-size:10px">0</text>
<text x="148.49" y="-16.541" transform="scale(1, -1)"
	style="font-family:Liberation Serif;font-variant:normal;font-weight:normal;font-style:normal;font-size:10px">20000</text>
<text x="244.85" y="-16.541" transform="scale(1, -1)"
	style="font-family:Liberation Serif;font-variant:normal;font-weight:normal;font-style:normal;font-size:10px">40000</text>
<path d="M64.635,24.363L64.635,32.363" style="fill:none;stroke:#000000;stroke-width:0.5" />
<path d="M160.99,24.363L160.99,32.363" style="fill:none;stroke:#000000;stroke-width:0.5" />
<path d="M257.35,24.363L257.35,32.363" style="fill:none;stroke:#000000;stroke-width:0.5" />
<path d="M112.81,28.363L112.81,32.363" style="fill:none;stroke:#000000;stroke-width:0.5" />
<path d="M209.17,28.363L209.17,32.363" style="fill:none;stroke:#000000;stroke-width:0.5" />
<path d="M64.635,32.363L297.5,32.363" style="fill:none;stroke:#000000;stroke-width:0.5" />
<g transform="rotate(90)">
<text x="133.97" y="9.3867" transform="scale(1, -1)"
	style="font-family:Liberation Serif;font-variant:normal;font-weight:normal;font-style:normal;font-size:12px">runtime (ns)</text>
</g>
<text x="15.885" y="-65.116" transform="scale(1, -1)"
	style="font-family:Liberation Serif;font-variant:normal;font-weight:normal;font-style:normal;font-size:10px">100000</text>
<text x="15.885" y="-163.93" transform="scale(1, -1)"
	style="font-family:Liberation Serif;font-variant:normal;font-weight:normal;font-style:normal;font-size:10px">500000</text>
<text x="15.885" y="-262.74" transform="scale(1, -1)"
	style="font-family:Liberation Serif;font-variant:normal;font-weight:normal;font-style:normal;font-size:10px">900000</text>
<path d="M48.385,67.402L56.385,67.402" style="fill:none;stroke:#000000;stroke-width:0.5" />
<path d="M48.385,166.21L56.385,166.21" style="fill:none;stroke:#000000;stroke-width:0.5" />
<path d="M48.385,265.02L56.385,265.02" style="fill:none;stroke:#000000;stroke-width:0.5" />
<path d="M52.385,92.104L56.385,92.104" style="fill:none;stroke:#000000;stroke-width:0.5" />
<path d="M52.385,116.81L56.385,116.81" style="fill:none;stroke:#000000;stroke-width:0.5" />
<path d="M52.385,141.51L56.385,141.51" style="fill:none;stroke:#000000;stroke-width:0.5" />
<path d="M52.385,190.92L56.385,190.92" style="fill:none;stroke:#000000;stroke-width:0.5" />
<path d="M52.385,215.62L56.385,215.62" style="fill:none;stroke:#000000;stroke-width:0.5" />
<path d="M52.385,240.32L56.385,240.32" style="fill:none;stroke:#000000;stroke-width:0.5" />
<path d="M56.385,42.709L56.385,284.21" style="fill:none;stroke:#000000;stroke-width:0.5" />
<path d="M64.635,45.209L64.635,40.209" style="fill:none;stroke:#0000FF;stroke-width:0.5" />
<path d="M62.135,42.709L67.135,42.709" style="fill:none;stroke:#0000FF;stroke-width:0.5" />
<path d="M72.661,45.322L72.661,40.322" style="fill:none;stroke:#0000FF;stroke-width:0.5" />
<path d="M70.161,42.822L75.161,42.822" style="fill:none;stroke:#0000FF;stroke-width:0.5" />
<path d="M80.693,45.302L80.693,40.302" style="fill:none;stroke:#0000FF;stroke-width:0.5" />
<path d="M78.193,42.802L83.193,42.802" style="fill:none;stroke:#0000FF;stroke-width:0.5" />
<path d="M88.724,45.487L88.724,40.487" style="fill:none;stroke:#0000FF;stroke-width:0.5" />
<path d="M86.224,42.987L91.224,42.987" style="fill:none;stroke:#0000FF;stroke-width:0.5" />
<path d="M96.751,45.662L96.751,40.662" style="fill:none;stroke:#0000FF;stroke-width:0.5" />
<path d="M94.251,43.162L99.251,43.162" style="fill:none;stroke:#0000FF;stroke-width:0.5" />
<path d="M104.78,45.765L104.78,40.765" style="fill:none;stroke:#0000FF;stroke-width:0.5" />
<path d="M102.28,43.265L107.28,43.265" style="fill:none;stroke:#0000FF;stroke-width:0.5" />
<path d="M112.81,45.754L112.81,40.754" style="fill:none;stroke:#0000FF;stroke-width:0.5" />
<path d="M110.31,43.254L115.31,43.254" style="fill:none;stroke:#0000FF;stroke-width:0.5" />
<path d="M120.84,45.775L120.84,40.775" style="fill:none;stroke:#0000FF;stroke-width:0.5" />
<path d="M118.34,43.275L123.34,43.275" style="fill:none;stroke:#0000FF;stroke-width:0.5" />
<path d="M128.87,45.682L128.87,40.682" style="fill:none;stroke:#0000FF;stroke-width:0.5" />
<path d="M126.37,43.182L131.37,43.182" style="fill:none;stroke:#0000FF;stroke-width:0.5" />
<path d="M136.9,54.411L136.9,49.411" style="fill:none;stroke:#0000FF;stroke-width:0.5" />
<path d="M134.4,51.911L139.4,51.911" style="fill:none;stroke:#0000FF;stroke-width:0.5" />
<path d="M144.93,46.022L144.93,41.022" style="fill:none;stroke:#0000FF;stroke-width:0.5" />
<path d="M142.43,43.522L147.43,43.522" style="fill:none;stroke:#0000FF;stroke-width:0.5" />
<path d="M152.96,45.847L152.96,40.847" style="fill:none;stroke:#0000FF;stroke-width:0.5" />
<path d="M150.46,43.347L155.46,43.347" style="fill:none;stroke:#0000FF;stroke-width:0.5" />
<path d="M160.99,46.012L160.99,41.012" style="fill:none;stroke:#0000FF;stroke-width:0.5" />
<path d="M158.49,43.512L163.49,43.512" style="fill:none;stroke:#0000FF;stroke-width:0.5" />
<path d="M169.02,46.207L169.02,41.207" style="fill:none;stroke:#0000FF;stroke-width:0.5" />
<path d="M166.52,43.707L171.52,43.707" style="fill:none;stroke:#0000FF;stroke-width:0.5" />
<path d="M177.05,49.892L177.05,44.892" style="fill:none;stroke:#0000FF;stroke-width:0.5" />
<path d="M174.55,47.392L179.55,47.392" style="fill:none;stroke:#0000FF;stroke-width:0.5" />
<path d="M185.08,46.32L185.08,41.32" style="fill:none;stroke:#0000FF;stroke-width:0.5" />
<path d="M182.58,43.82L187.58,43.82" style="fill:none;stroke:#0000FF;stroke-width:0.5" />
<path d="M193.11,46.403L193.11,41.403" style="fill:none;stroke:#0000FF;stroke-width:0.5" />
<path d="M190.61,43.903L195.61,43.903" style="fill:none;stroke:#0000FF;stroke-width:0.5" />
<path d="M201.14,46.887L201.14,41.887" style="fill:none;stroke:#0000FF;stroke-width:0.5" />
<path d="M198.64,44.387L203.64,44.387" style="fill:none;stroke:#0000FF;stroke-width:0.5" />
<path d="M209.17,48.235L209.17,43.235" style="fill:none;stroke:#0000FF;stroke-width:0.5" />
<path d="M206.67,45.735L211.67,45.735" style="fill:none;stroke:#0000FF;stroke-width:0.5" />
<path d="M217.2,51.642L217.2,46.642" style="fill:none;stroke:#0000FF;stroke-width:0.5" />
<path d="M214.7,49.142L219.7,49.142" style="fill:none;stroke:#0000FF;stroke-width:0.5" />
<path d="M225.23,47.041L225.23,42.041" style="fill:none;stroke:#0000FF;stroke-width:0.5" />
<path d="M222.73,44.541L227.73,44.541" style="fill:none;stroke:#0000FF;stroke-width:0.5" />
<path d="M233.26,46.588L233.26,41.588" style="fill:none;stroke:#0000FF;stroke-width:0.5" />
<path d="M230.76,44.088L235.76,44.088" style="fill:none;stroke:#0000FF;stroke-width:0.5" />
<path d="M241.29,47.422L241.29,42.422" style="fill:none;stroke:#0000FF;stroke-width:0.5" />
<path d="M238.79,44.922L243.79,44.922" style="fill:none;stroke:#0000FF;stroke-width:0.5" />
<path d="M249.32,49.079L249.32,44.079" style="fill:none;stroke:#0000FF;stroke-width:0.5" />
<path d="M246.82,46.579L251.82,46.579" style="fill:none;stroke:#0000FF;stroke-width:0.5" />
<path d="M257.35,48.637L257.35,43.637" style="fill:none;stroke:#0000FF;stroke-width:0.5" />
<path d="M254.85,46.137L259.85,46.137" style="fill:none;stroke:#0000FF;stroke-width:0.5" />
<path d="M265.38,50.922L265.38,45.922" style="fill:none;stroke:#0000FF;stroke-width:0.5" />
<path d="M262.88,48.422L267.88,48.422" style="fill:none;stroke:#0000FF;stroke-width:0.5" />
<path d="M273.41,47.535L273.41,42.535" style="fill:none;stroke:#0000FF;stroke-width:0.5" />
<path d="M270.91,45.035L275.91,45.035" style="fill:none;stroke:#0000FF;stroke-width:0.5" />
<path d="M281.44,47.72L281.44,42.72" style="fill:none;stroke:#0000FF;stroke-width:0.5" />
<path d="M278.94,45.22L283.94,45.22" style="fill:none;stroke:#0000FF;stroke-width:0.5" />
<path d="M289.47,54.205L289.47,49.205" style="fill:none;stroke:#0000FF;stroke-width:0.5" />
<path d="M286.97,51.705L291.97,51.705" style="fill:none;stroke:#0000FF;stroke-width:0.5" />
<path d="M297.5,48.07L297.5,43.07" style="fill:none;stroke:#0000FF;stroke-width:0.5" />
<path d="M295,45.57L300,45.57" style="fill:none;stroke:#0000FF;stroke-width:0.5" />
<path d="M64.635,45.219L64.635,40.219" style="fill:none;stroke:#FF0000;stroke-width:0.5" />
<path d="M62.135,42.719L67.135,42.719" style="fill:none;stroke:#FF0000;stroke-width:0.5" />
<path d="M72.661,53.587L72.661,48.587" style="fill:none;stroke:#FF0000;stroke-width:0.5" />
<path d="M70.161,51.087L75.161,51.087" style="fill:none;stroke:#FF0000;stroke-width:0.5" />
<path d="M80.693,62.017L80.693,57.017" style="fill:none;stroke:#FF0000;stroke-width:0.5" />
<path d="M78.193,59.517L83.193,59.517" style="fill:none;stroke:#FF0000;stroke-width:0.5" />
<path d="M88.724,70.396L88.724,65.396" style="fill:none;stroke:#FF0000;stroke-width:0.5" />
<path d="M86.224,67.896L91.224,67.896" style="fill:none;stroke:#FF0000;stroke-width:0.5" />
<path d="M96.751,78.095L96.751,73.095" style="fill:none;stroke:#FF0000;stroke-width:0.5" />
<path d="M94.251,75.595L99.251,75.595" style="fill:none;stroke:#FF0000;stroke-width:0.5" />
<path d="M104.78,87.554L104.78,82.554" style="fill:none;stroke:#FF0000;stroke-width:0.5" />
<path d="M102.28,85.054L107.28,85.054" style="fill:none;stroke:#FF0000;stroke-width:0.5" />
<path d="M112.81,95.356L112.81,90.356" style="fill:none;stroke:#FF0000;stroke-width:0.5" />
<path d="M110.31,92.856L115.31,92.856" style="fill:none;stroke:#FF0000;stroke-width:0.5" />
<path d="M120.84,103.94L120.84,98.94" style="fill:none;stroke:#FF0000;stroke-width:0.5" />
<path d="M118.34,101.44L123.34,101.44" style="fill:none;stroke:#FF0000;stroke-width:0.5" />
<path d="M128.87,110.78L128.87,105.78" style="fill:none;stroke:#FF0000;stroke-width:0.5" />
<path d="M126.37,108.28L131.37,108.28" style="fill:none;stroke:#FF0000;stroke-width:0.5" />
<path d="M136.9,120.81L136.9,115.81" style="fill:none;stroke:#FF0000;stroke-width:0.5" />
<path d="M134.4,118.31L139.4,118.31" style="fill:none;stroke:#FF0000;stroke-width:0.5" />
<path d="M144.93,127.48L144.93,122.48" style="fill:none;stroke:#FF0000;stroke-width:0.5" />
<path d="M142.43,124.98L147.43,124.98" style="fill:none;stroke:#FF0000;stroke-width:0.5" />
<path d="M152.96,136.46L152.96,131.46" style="fill:none;stroke:#FF0000;stroke-width:0.5" />
<path d="M150.46,133.96L155.46,133.96" style="fill:none;stroke:#FF0000;stroke-width:0.5" />
<path d="M160.99,145.87L160.99,140.87" style="fill:none;stroke:#FF0000;stroke-width:0.5" />
<path d="M158.49,143.37L163.49,143.37" style="fill:none;stroke:#FF0000;stroke-width:0.5" />
<path d="M169.02,154.42L169.02,149.42" style="fill:none;stroke:#FF0000;stroke-width:0.5" />
<path d="M166.52,151.92L171.52,151.92" style="fill:none;stroke:#FF0000;stroke-width:0.5" />
<path d="M177.05,161.79L177.05,156.79" style="fill:none;stroke:#FF0000;stroke-width:0.5" />
<path d="M174.55,159.29L179.55,159.29" style="fill:none;stroke:#FF0000;stroke-width:0.5" />
<path d="M185.08,169.46L185.08,164.46" style="fill:none;stroke:#FF0000;stroke-width:0.5" />
<path d="M182.58,166.96L187.58,166.96" style="fill:none;stroke:#FF0000;stroke-width:0.5" />
<path d="M193.11,175.51L193.11,170.51" style="fill:none;stroke:#FF0000;stroke-width:0.5" />
<path d="M190.61,173.01L195.61,173.01" style="fill:none;stroke:#FF0000;stroke-width:0.5" />
<path d="M201.14,184.55L201.14,179.55" style="fill:none;stroke:#FF0000;stroke-width:0.5" />
<path d="M198.64,182.05L203.64,182.05" style="fill:none;stroke:#FF0000;stroke-width:0.5" />
<path d="M209.17,196.97L209.17,191.97" style="fill:none;stroke:#FF0000;stroke-width:0.5" />
<path d="M206.67,194.47L211.67,194.47" style="fill:none;stroke:#FF0000;stroke-width:0.5" />
<path d="M217.2,201.98L217.2,196.98" style="fill:none;stroke:#FF0000;stroke-width:0.5" />
<path d="M214.7,199.48L219.7,199.48" style="fill:none;stroke:#FF0000;stroke-width:0.5" />
<path d="M225.23,209.4L225.23,204.4" style="fill:none;stroke:#FF0000;stroke-width:0.5" />
<path d="M222.73,206.9L227.73,206.9" style="fill:none;stroke:#FF0000;stroke-width:0.5" />
<path d="M233.26,218.31L233.26,213.31" style="fill:none;stroke:#FF0000;stroke-width:0.5" />
<path d="M230.76,215.81L235.76,215.81" style="fill:none;stroke:#FF0000;stroke-width:0.5" />
<path d="M241.29,229.13L241.29,224.13" style="fill:none;stroke:#FF0000;stroke-width:0.5" />
<path d="M238.79,226.63L243.79,226.63" style="fill:none;stroke:#FF0000;stroke-width:0.5" />
<path d="M249.32,241.04L249.32,236.04" style="fill:none;stroke:#FF0000;stroke-width:0.5" />
<path d="M246.82,238.54L251.82,238.54" style="fill:none;stroke:#FF0000;stroke-width:0.5" />
<path d="M257.35,244.72L257.35,239.72" style="fill:none;stroke:#FF0000;stroke-width:0.5" />
<path d="M254.85,242.22L259.85,242.22" style="fill:none;stroke:#FF0000;stroke-width:0.5" />
<path d="M265.38,255.83L265.38,250.83" style="fill:none;stroke:#FF0000;stroke-width:0.5" />
<path d="M262.88,253.33L267.88,253.33" style="fill:none;stroke:#FF0000;stroke-width:0.5" />
<path d="M273.41,266.1L273.41,261.1" style="fill:none;stroke:#FF0000;stroke-width:0.5" />
<path d="M270.91,263.6L275.91,263.6" style="fill:none;stroke:#FF0000;stroke-width:0.5" />
<path d="M281.44,267.55L281.44,262.55" style="fill:none;stroke:#FF0000;stroke-width:0.5" />
<path d="M278.94,265.05L283.94,265.05" style="fill:none;stroke:#FF0000;stroke-width:0.5" />
<path d="M289.47,277.32L289.47,272.32" style="fill:none;stroke:#FF0000;stroke-width:0.5" />
<path d="M286.97,274.82L291.97,274.82" style="fill:none;stroke:#FF0000;stroke-width:0.5" />
<path d="M297.5,286.71L297.5,281.71" style="fill:none;stroke:#FF0000;stroke-width:0.5" />
<path d="M295,284.21L300,284.21" style="fill:none;stroke:#FF0000;stroke-width:0.5" />
<path d="M290,57.984L290,52.984" style="fill:none;stroke:#0000FF;stroke-width:0.5" />
<path d="M287.5,55.484L292.5,55.484" style="fill:none;stroke:#0000FF;stroke-width:0.5" />
<text x="252.36" y="-52.997" transform="scale(1, -1)"
	style="font-family:Liberation Serif;font-variant:normal;font-weight:normal;font-style:normal;font-size:12px">array</text>
<path d="M290,47.801L290,42.801" style="fill:none;stroke:#FF0000;stroke-width:0.5" />
<path d="M287.5,45.301L292.5,45.301" style="fill:none;stroke:#FF0000;stroke-width:0.5" />
<text x="229.33" y="-42.813" transform="scale(1, -1)"
	style="font-family:Liberation Serif;font-variant:normal;font-weight:normal;font-style:normal;font-size:12px">linked list</text>
</g>
</svg>
