<?xml version="1.0"?>
<!-- Generated by SVGo and Plotinum VG -->
<svg width="500pt" height="500pt" viewBox="0 0 500 500"
	xmlns="http://www.w3.org/2000/svg"
	xmlns:xlink="http://www.w3.org/1999/xlink">
<g transform="scale(1, -1) translate(0, -500)">
<path d="M0,0L500,0L500,500L0,500Z" style="fill:#FFFFFF" />
<text x="144.54" y="-490.61" transform="scale(1, -1)"
	style="font-family:Liberation Serif;font-variant:normal;font-weight:normal;font-style:normal;font-size:12px">median runtime of duplicate search, 10 tries</text>
<text x="238.75" y="-3.9023" transform="scale(1, -1)"
	style="font-family:Liberation Serif;font-variant:normal;font-weight:normal;font-style:normal;font-size:12px">n (array length)</text>
<text x="102.01" y="-16.541" transform="scale(1, -1)"
	style="font-family:Liberation Serif;font-variant:normal;font-weight:normal;font-style:normal;font-size:10px">100</text>
<text x="268.29" y="-16.541" transform="scale(1, -1)"
	style="font-family:Liberation Serif;font-variant:normal;font-weight:normal;font-style:normal;font-size:10px">400</text>
<text x="434.57" y="-16.541" transform="scale(1, -1)"
	style="font-family:Liberation Serif;font-variant:normal;font-weight:normal;font-style:normal;font-size:10px">700</text>
<path d="M109.51,24.363L109.51,32.363" style="fill:none;stroke:#000000;stroke-width:0.5" />
<path d="M275.79,24.363L275.79,32.363" style="fill:none;stroke:#000000;stroke-width:0.5" />
<path d="M442.07,24.363L442.07,32.363" style="fill:none;stroke:#000000;stroke-width:0.5" />
<path d="M164.94,28.363L164.94,32.363" style="fill:none;stroke:#000000;stroke-width:0.5" />
<path d="M220.36,28.363L220.36,32.363" style="fill:none;stroke:#000000;stroke-width:0.5" />
<path d="M331.22,28.363L331.22,32.363" style="fill:none;stroke:#000000;stroke-width:0.5" />
<path d="M386.65,28.363L386.65,32.363" style="fill:none;stroke:#000000;stroke-width:0.5" />
<path d="M497.5,28.363L497.5,32.363" style="fill:none;stroke:#000000;stroke-width:0.5" />
<path d="M54.635,32.363L497.5,32.363" style="fill:none;stroke:#000000;stroke-width:0.5" />
<g transform="rotate(90)">
<text x="233.97" y="9.3867" transform="scale(1, -1)"
	style="font-family:Liberation Serif;font-variant:normal;font-weight:normal;font-style:normal;font-size:12px">runtime (ns)</text>
</g>
<text x="20.885" y="-91.156" transform="scale(1, -1)"
	style="font-family:Liberation Serif;font-variant:normal;font-weight:normal;font-style:normal;font-size:10px">200</text>
<text x="20.885" y="-283.81" transform="scale(1, -1)"
	style="font-family:Liberation Serif;font-variant:normal;font-weight:normal;font-style:normal;font-size:10px">800</text>
<text x="15.885" y="-476.47" transform="scale(1, -1)"
	style="font-family:Liberation Serif;font-variant:normal;font-weight:normal;font-style:normal;font-size:10px">1400</text>
<path d="M38.385,93.442L46.385,93.442" style="fill:none;stroke:#000000;stroke-width:0.5" />
<path d="M38.385,286.1L46.385,286.1" style="fill:none;stroke:#000000;stroke-width:0.5" />
<path d="M38.385,478.75L46.385,478.75" style="fill:none;stroke:#000000;stroke-width:0.5" />
<path d="M42.385,189.77L46.385,189.77" style="fill:none;stroke:#000000;stroke-width:0.5" />
<path d="M42.385,382.42L46.385,382.42" style="fill:none;stroke:#000000;stroke-width:0.5" />
<path d="M46.385,42.709L46.385,484.21" style="fill:none;stroke:#000000;stroke-width:0.5" />
<path d="M54.635,58.374L54.635,53.374" style="fill:none;stroke:#FF0000;stroke-width:0.5" />
<path d="M52.135,55.874L57.135,55.874" style="fill:none;stroke:#FF0000;stroke-width:0.5" />
<path d="M65.166,85.024L65.166,80.024" style="fill:none;stroke:#FF0000;stroke-width:0.5" />
<path d="M62.666,82.524L67.666,82.524" style="fill:none;stroke:#FF0000;stroke-width:0.5" />
<path d="M76.251,85.346L76.251,80.346" style="fill:none;stroke:#FF0000;stroke-width:0.5" />
<path d="M73.751,82.846L78.751,82.846" style="fill:none;stroke:#FF0000;stroke-width:0.5" />
<path d="M87.337,112L87.337,107" style="fill:none;stroke:#FF0000;stroke-width:0.5" />
<path d="M84.837,109.5L89.837,109.5" style="fill:none;stroke:#FF0000;stroke-width:0.5" />
<path d="M98.422,125.48L98.422,120.48" style="fill:none;stroke:#FF0000;stroke-width:0.5" />
<path d="M95.922,122.98L100.92,122.98" style="fill:none;stroke:#FF0000;stroke-width:0.5" />
<path d="M109.51,125.48L109.51,120.48" style="fill:none;stroke:#FF0000;stroke-width:0.5" />
<path d="M107.01,122.98L112.01,122.98" style="fill:none;stroke:#FF0000;stroke-width:0.5" />
<path d="M120.59,152.13L120.59,147.13" style="fill:none;stroke:#FF0000;stroke-width:0.5" />
<path d="M118.09,149.63L123.09,149.63" style="fill:none;stroke:#FF0000;stroke-width:0.5" />
<path d="M131.68,152.13L131.68,147.13" style="fill:none;stroke:#FF0000;stroke-width:0.5" />
<path d="M129.18,149.63L134.18,149.63" style="fill:none;stroke:#FF0000;stroke-width:0.5" />
<path d="M142.76,152.13L142.76,147.13" style="fill:none;stroke:#FF0000;stroke-width:0.5" />
<path d="M140.26,149.63L145.26,149.63" style="fill:none;stroke:#FF0000;stroke-width:0.5" />
<path d="M153.85,152.13L153.85,147.13" style="fill:none;stroke:#FF0000;stroke-width:0.5" />
<path d="M151.35,149.63L156.35,149.63" style="fill:none;stroke:#FF0000;stroke-width:0.5" />
<path d="M164.94,178.78L164.94,173.78" style="fill:none;stroke:#FF0000;stroke-width:0.5" />
<path d="M162.44,176.28L167.44,176.28" style="fill:none;stroke:#FF0000;stroke-width:0.5" />
<path d="M176.02,178.78L176.02,173.78" style="fill:none;stroke:#FF0000;stroke-width:0.5" />
<path d="M173.52,176.28L178.52,176.28" style="fill:none;stroke:#FF0000;stroke-width:0.5" />
<path d="M187.11,192.27L187.11,187.27" style="fill:none;stroke:#FF0000;stroke-width:0.5" />
<path d="M184.61,189.77L189.61,189.77" style="fill:none;stroke:#FF0000;stroke-width:0.5" />
<path d="M198.19,205.43L198.19,200.43" style="fill:none;stroke:#FF0000;stroke-width:0.5" />
<path d="M195.69,202.93L200.69,202.93" style="fill:none;stroke:#FF0000;stroke-width:0.5" />
<path d="M209.28,205.43L209.28,200.43" style="fill:none;stroke:#FF0000;stroke-width:0.5" />
<path d="M206.78,202.93L211.78,202.93" style="fill:none;stroke:#FF0000;stroke-width:0.5" />
<path d="M220.36,219.24L220.36,214.24" style="fill:none;stroke:#FF0000;stroke-width:0.5" />
<path d="M217.86,216.74L222.86,216.74" style="fill:none;stroke:#FF0000;stroke-width:0.5" />
<path d="M231.45,232.41L231.45,227.41" style="fill:none;stroke:#FF0000;stroke-width:0.5" />
<path d="M228.95,229.91L233.95,229.91" style="fill:none;stroke:#FF0000;stroke-width:0.5" />
<path d="M242.53,245.57L242.53,240.57" style="fill:none;stroke:#FF0000;stroke-width:0.5" />
<path d="M240.03,243.07L245.03,243.07" style="fill:none;stroke:#FF0000;stroke-width:0.5" />
<path d="M253.62,245.89L253.62,240.89" style="fill:none;stroke:#FF0000;stroke-width:0.5" />
<path d="M251.12,243.39L256.12,243.39" style="fill:none;stroke:#FF0000;stroke-width:0.5" />
<path d="M264.7,259.06L264.7,254.06" style="fill:none;stroke:#FF0000;stroke-width:0.5" />
<path d="M262.2,256.56L267.2,256.56" style="fill:none;stroke:#FF0000;stroke-width:0.5" />
<path d="M275.79,245.89L275.79,240.89" style="fill:none;stroke:#FF0000;stroke-width:0.5" />
<path d="M273.29,243.39L278.29,243.39" style="fill:none;stroke:#FF0000;stroke-width:0.5" />
<path d="M286.88,272.54L286.88,267.54" style="fill:none;stroke:#FF0000;stroke-width:0.5" />
<path d="M284.38,270.04L289.38,270.04" style="fill:none;stroke:#FF0000;stroke-width:0.5" />
<path d="M297.96,286.03L297.96,281.03" style="fill:none;stroke:#FF0000;stroke-width:0.5" />
<path d="M295.46,283.53L300.46,283.53" style="fill:none;stroke:#FF0000;stroke-width:0.5" />
<path d="M309.05,259.06L309.05,254.06" style="fill:none;stroke:#FF0000;stroke-width:0.5" />
<path d="M306.55,256.56L311.55,256.56" style="fill:none;stroke:#FF0000;stroke-width:0.5" />
<path d="M320.13,325.84L320.13,320.84" style="fill:none;stroke:#FF0000;stroke-width:0.5" />
<path d="M317.63,323.34L322.63,323.34" style="fill:none;stroke:#FF0000;stroke-width:0.5" />
<path d="M331.22,299.19L331.22,294.19" style="fill:none;stroke:#FF0000;stroke-width:0.5" />
<path d="M328.72,296.69L333.72,296.69" style="fill:none;stroke:#FF0000;stroke-width:0.5" />
<path d="M342.3,299.51L342.3,294.51" style="fill:none;stroke:#FF0000;stroke-width:0.5" />
<path d="M339.8,297.01L344.8,297.01" style="fill:none;stroke:#FF0000;stroke-width:0.5" />
<path d="M353.39,325.84L353.39,320.84" style="fill:none;stroke:#FF0000;stroke-width:0.5" />
<path d="M350.89,323.34L355.89,323.34" style="fill:none;stroke:#FF0000;stroke-width:0.5" />
<path d="M364.47,312.68L364.47,307.68" style="fill:none;stroke:#FF0000;stroke-width:0.5" />
<path d="M361.97,310.18L366.97,310.18" style="fill:none;stroke:#FF0000;stroke-width:0.5" />
<path d="M375.56,352.82L375.56,347.82" style="fill:none;stroke:#FF0000;stroke-width:0.5" />
<path d="M373.06,350.32L378.06,350.32" style="fill:none;stroke:#FF0000;stroke-width:0.5" />
<path d="M386.65,379.47L386.65,374.47" style="fill:none;stroke:#FF0000;stroke-width:0.5" />
<path d="M384.15,376.97L389.15,376.97" style="fill:none;stroke:#FF0000;stroke-width:0.5" />
<path d="M397.73,379.47L397.73,374.47" style="fill:none;stroke:#FF0000;stroke-width:0.5" />
<path d="M395.23,376.97L400.23,376.97" style="fill:none;stroke:#FF0000;stroke-width:0.5" />
<path d="M408.82,419.6L408.82,414.6" style="fill:none;stroke:#FF0000;stroke-width:0.5" />
<path d="M406.32,417.1L411.32,417.1" style="fill:none;stroke:#FF0000;stroke-width:0.5" />
<path d="M419.9,406.44L419.9,401.44" style="fill:none;stroke:#FF0000;stroke-width:0.5" />
<path d="M417.4,403.94L422.4,403.94" style="fill:none;stroke:#FF0000;stroke-width:0.5" />
<path d="M430.99,392.95L430.99,387.95" style="fill:none;stroke:#FF0000;stroke-width:0.5" />
<path d="M428.49,390.45L433.49,390.45" style="fill:none;stroke:#FF0000;stroke-width:0.5" />
<path d="M442.07,419.6L442.07,414.6" style="fill:none;stroke:#FF0000;stroke-width:0.5" />
<path d="M439.57,417.1L444.57,417.1" style="fill:none;stroke:#FF0000;stroke-width:0.5" />
<path d="M453.16,419.92L453.16,414.92" style="fill:none;stroke:#FF0000;stroke-width:0.5" />
<path d="M450.66,417.42L455.66,417.42" style="fill:none;stroke:#FF0000;stroke-width:0.5" />
<path d="M464.24,419.6L464.24,414.6" style="fill:none;stroke:#FF0000;stroke-width:0.5" />
<path d="M461.74,417.1L466.74,417.1" style="fill:none;stroke:#FF0000;stroke-width:0.5" />
<path d="M475.33,460.06L475.33,455.06" style="fill:none;stroke:#FF0000;stroke-width:0.5" />
<path d="M472.83,457.56L477.83,457.56" style="fill:none;stroke:#FF0000;stroke-width:0.5" />
<path d="M486.41,486.71L486.41,481.71" style="fill:none;stroke:#FF0000;stroke-width:0.5" />
<path d="M483.91,484.21L488.91,484.21" style="fill:none;stroke:#FF0000;stroke-width:0.5" />
<path d="M497.5,486.39L497.5,481.39" style="fill:none;stroke:#FF0000;stroke-width:0.5" />
<path d="M495,483.89L500,483.89" style="fill:none;stroke:#FF0000;stroke-width:0.5" />
<path d="M54.635,45.209L54.635,40.209" style="fill:none;stroke:#0000FF;stroke-width:0.5" />
<path d="M52.135,42.709L57.135,42.709" style="fill:none;stroke:#0000FF;stroke-width:0.5" />
<path d="M65.166,85.346L65.166,80.346" style="fill:none;stroke:#0000FF;stroke-width:0.5" />
<path d="M62.666,82.846L67.666,82.846" style="fill:none;stroke:#0000FF;stroke-width:0.5" />
<path d="M76.251,85.346L76.251,80.346" style="fill:none;stroke:#0000FF;stroke-width:0.5" />
<path d="M73.751,82.846L78.751,82.846" style="fill:none;stroke:#0000FF;stroke-width:0.5" />
<path d="M87.337,98.51L87.337,93.51" style="fill:none;stroke:#0000FF;stroke-width:0.5" />
<path d="M84.837,96.01L89.837,96.01" style="fill:none;stroke:#0000FF;stroke-width:0.5" />
<path d="M98.422,98.831L98.422,93.831" style="fill:none;stroke:#0000FF;stroke-width:0.5" />
<path d="M95.922,96.331L100.92,96.331" style="fill:none;stroke:#0000FF;stroke-width:0.5" />
<path d="M109.51,98.831L109.51,93.831" style="fill:none;stroke:#0000FF;stroke-width:0.5" />
<path d="M107.01,96.331L112.01,96.331" style="fill:none;stroke:#0000FF;stroke-width:0.5" />
<path d="M120.59,98.831L120.59,93.831" style="fill:none;stroke:#0000FF;stroke-width:0.5" />
<path d="M118.09,96.331L123.09,96.331" style="fill:none;stroke:#0000FF;stroke-width:0.5" />
<path d="M131.68,112L131.68,107" style="fill:none;stroke:#0000FF;stroke-width:0.5" />
<path d="M129.18,109.5L134.18,109.5" style="fill:none;stroke:#0000FF;stroke-width:0.5" />
<path d="M142.76,98.831L142.76,93.831" style="fill:none;stroke:#0000FF;stroke-width:0.5" />
<path d="M140.26,96.331L145.26,96.331" style="fill:none;stroke:#0000FF;stroke-width:0.5" />
<path d="M153.85,125.16L153.85,120.16" style="fill:none;stroke:#0000FF;stroke-width:0.5" />
<path d="M151.35,122.66L156.35,122.66" style="fill:none;stroke:#0000FF;stroke-width:0.5" />
<path d="M164.94,112L164.94,107" style="fill:none;stroke:#0000FF;stroke-width:0.5" />
<path d="M162.44,109.5L167.44,109.5" style="fill:none;stroke:#0000FF;stroke-width:0.5" />
<path d="M176.02,112L176.02,107" style="fill:none;stroke:#0000FF;stroke-width:0.5" />
<path d="M173.52,109.5L178.52,109.5" style="fill:none;stroke:#0000FF;stroke-width:0.5" />
<path d="M187.11,112L187.11,107" style="fill:none;stroke:#0000FF;stroke-width:0.5" />
<path d="M184.61,109.5L189.61,109.5" style="fill:none;stroke:#0000FF;stroke-width:0.5" />
<path d="M198.19,112L198.19,107" style="fill:none;stroke:#0000FF;stroke-width:0.5" />
<path d="M195.69,109.5L200.69,109.5" style="fill:none;stroke:#0000FF;stroke-width:0.5" />
<path d="M209.28,112L209.28,107" style="fill:none;stroke:#0000FF;stroke-width:0.5" />
<path d="M206.78,109.5L211.78,109.5" style="fill:none;stroke:#0000FF;stroke-width:0.5" />
<path d="M220.36,112L220.36,107" style="fill:none;stroke:#0000FF;stroke-width:0.5" />
<path d="M217.86,109.5L222.86,109.5" style="fill:none;stroke:#0000FF;stroke-width:0.5" />
<path d="M231.45,125.16L231.45,120.16" style="fill:none;stroke:#0000FF;stroke-width:0.5" />
<path d="M228.95,122.66L233.95,122.66" style="fill:none;stroke:#0000FF;stroke-width:0.5" />
<path d="M242.53,112L242.53,107" style="fill:none;stroke:#0000FF;stroke-width:0.5" />
<path d="M240.03,109.5L245.03,109.5" style="fill:none;stroke:#0000FF;stroke-width:0.5" />
<path d="M253.62,138.65L253.62,133.65" style="fill:none;stroke:#0000FF;stroke-width:0.5" />
<path d="M251.12,136.15L256.12,136.15" style="fill:none;stroke:#0000FF;stroke-width:0.5" />
<path d="M264.7,125.48L264.7,120.48" style="fill:none;stroke:#0000FF;stroke-width:0.5" />
<path d="M262.2,122.98L267.2,122.98" style="fill:none;stroke:#0000FF;stroke-width:0.5" />
<path d="M275.79,125.16L275.79,120.16" style="fill:none;stroke:#0000FF;stroke-width:0.5" />
<path d="M273.29,122.66L278.29,122.66" style="fill:none;stroke:#0000FF;stroke-width:0.5" />
<path d="M286.88,125.48L286.88,120.48" style="fill:none;stroke:#0000FF;stroke-width:0.5" />
<path d="M284.38,122.98L289.38,122.98" style="fill:none;stroke:#0000FF;stroke-width:0.5" />
<path d="M297.96,125.16L297.96,120.16" style="fill:none;stroke:#0000FF;stroke-width:0.5" />
<path d="M295.46,122.66L300.46,122.66" style="fill:none;stroke:#0000FF;stroke-width:0.5" />
<path d="M309.05,125.16L309.05,120.16" style="fill:none;stroke:#0000FF;stroke-width:0.5" />
<path d="M306.55,122.66L311.55,122.66" style="fill:none;stroke:#0000FF;stroke-width:0.5" />
<path d="M320.13,125.48L320.13,120.48" style="fill:none;stroke:#0000FF;stroke-width:0.5" />
<path d="M317.63,122.98L322.63,122.98" style="fill:none;stroke:#0000FF;stroke-width:0.5" />
<path d="M331.22,125.48L331.22,120.48" style="fill:none;stroke:#0000FF;stroke-width:0.5" />
<path d="M328.72,122.98L333.72,122.98" style="fill:none;stroke:#0000FF;stroke-width:0.5" />
<path d="M342.3,125.48L342.3,120.48" style="fill:none;stroke:#0000FF;stroke-width:0.5" />
<path d="M339.8,122.98L344.8,122.98" style="fill:none;stroke:#0000FF;stroke-width:0.5" />
<path d="M353.39,125.16L353.39,120.16" style="fill:none;stroke:#0000FF;stroke-width:0.5" />
<path d="M350.89,122.66L355.89,122.66" style="fill:none;stroke:#0000FF;stroke-width:0.5" />
<path d="M364.47,125.16L364.47,120.16" style="fill:none;stroke:#0000FF;stroke-width:0.5" />
<path d="M361.97,122.66L366.97,122.66" style="fill:none;stroke:#0000FF;stroke-width:0.5" />
<path d="M375.56,125.48L375.56,120.48" style="fill:none;stroke:#0000FF;stroke-width:0.5" />
<path d="M373.06,122.98L378.06,122.98" style="fill:none;stroke:#0000FF;stroke-width:0.5" />
<path d="M386.65,125.48L386.65,120.48" style="fill:none;stroke:#0000FF;stroke-width:0.5" />
<path d="M384.15,122.98L389.15,122.98" style="fill:none;stroke:#0000FF;stroke-width:0.5" />
<path d="M397.73,125.48L397.73,120.48" style="fill:none;stroke:#0000FF;stroke-width:0.5" />
<path d="M395.23,122.98L400.23,122.98" style="fill:none;stroke:#0000FF;stroke-width:0.5" />
<path d="M408.82,125.48L408.82,120.48" style="fill:none;stroke:#0000FF;stroke-width:0.5" />
<path d="M406.32,122.98L411.32,122.98" style="fill:none;stroke:#0000FF;stroke-width:0.5" />
<path d="M419.9,138.65L419.9,133.65" style="fill:none;stroke:#0000FF;stroke-width:0.5" />
<path d="M417.4,136.15L422.4,136.15" style="fill:none;stroke:#0000FF;stroke-width:0.5" />
<path d="M430.99,138.65L430.99,133.65" style="fill:none;stroke:#0000FF;stroke-width:0.5" />
<path d="M428.49,136.15L433.49,136.15" style="fill:none;stroke:#0000FF;stroke-width:0.5" />
<path d="M442.07,125.48L442.07,120.48" style="fill:none;stroke:#0000FF;stroke-width:0.5" />
<path d="M439.57,122.98L444.57,122.98" style="fill:none;stroke:#0000FF;stroke-width:0.5" />
<path d="M453.16,138.65L453.16,133.65" style="fill:none;stroke:#0000FF;stroke-width:0.5" />
<path d="M450.66,136.15L455.66,136.15" style="fill:none;stroke:#0000FF;stroke-width:0.5" />
<path d="M464.24,125.48L464.24,120.48" style="fill:none;stroke:#0000FF;stroke-width:0.5" />
<path d="M461.74,122.98L466.74,122.98" style="fill:none;stroke:#0000FF;stroke-width:0.5" />
<path d="M475.33,138.65L475.33,133.65" style="fill:none;stroke:#0000FF;stroke-width:0.5" />
<path d="M472.83,136.15L477.83,136.15" style="fill:none;stroke:#0000FF;stroke-width:0.5" />
<path d="M486.41,138.65L486.41,133.65" style="fill:none;stroke:#0000FF;stroke-width:0.5" />
<path d="M483.91,136.15L488.91,136.15" style="fill:none;stroke:#0000FF;stroke-width:0.5" />
<path d="M497.5,138.65L497.5,133.65" style="fill:none;stroke:#0000FF;stroke-width:0.5" />
<path d="M495,136.15L500,136.15" style="fill:none;stroke:#0000FF;stroke-width:0.5" />
<path d="M54.635,45.209L54.635,40.209" style="fill:none;stroke:#00FF00;stroke-width:0.5" />
<path d="M52.135,42.709L57.135,42.709" style="fill:none;stroke:#00FF00;stroke-width:0.5" />
<path d="M65.166,58.374L65.166,53.374" style="fill:none;stroke:#00FF00;stroke-width:0.5" />
<path d="M62.666,55.874L67.666,55.874" style="fill:none;stroke:#00FF00;stroke-width:0.5" />
<path d="M76.251,58.374L76.251,53.374" style="fill:none;stroke:#00FF00;stroke-width:0.5" />
<path d="M73.751,55.874L78.751,55.874" style="fill:none;stroke:#00FF00;stroke-width:0.5" />
<path d="M87.337,58.695L87.337,53.695" style="fill:none;stroke:#00FF00;stroke-width:0.5" />
<path d="M84.837,56.195L89.837,56.195" style="fill:none;stroke:#00FF00;stroke-width:0.5" />
<path d="M98.422,58.695L98.422,53.695" style="fill:none;stroke:#00FF00;stroke-width:0.5" />
<path d="M95.922,56.195L100.92,56.195" style="fill:none;stroke:#00FF00;stroke-width:0.5" />
<path d="M109.51,58.695L109.51,53.695" style="fill:none;stroke:#00FF00;stroke-width:0.5" />
<path d="M107.01,56.195L112.01,56.195" style="fill:none;stroke:#00FF00;stroke-width:0.5" />
<path d="M120.59,58.695L120.59,53.695" style="fill:none;stroke:#00FF00;stroke-width:0.5" />
<path d="M118.09,56.195L123.09,56.195" style="fill:none;stroke:#00FF00;stroke-width:0.5" />
<path d="M131.68,58.695L131.68,53.695" style="fill:none;stroke:#00FF00;stroke-width:0.5" />
<path d="M129.18,56.195L134.18,56.195" style="fill:none;stroke:#00FF00;stroke-width:0.5" />
<path d="M142.76,58.695L142.76,53.695" style="fill:none;stroke:#00FF00;stroke-width:0.5" />
<path d="M140.26,56.195L145.26,56.195" style="fill:none;stroke:#00FF00;stroke-width:0.5" />
<path d="M153.85,58.695L153.85,53.695" style="fill:none;stroke:#00FF00;stroke-width:0.5" />
<path d="M151.35,56.195L156.35,56.195" style="fill:none;stroke:#00FF00;stroke-width:0.5" />
<path d="M164.94,58.695L164.94,53.695" style="fill:none;stroke:#00FF00;stroke-width:0.5" />
<path d="M162.44,56.195L167.44,56.195" style="fill:none;stroke:#00FF00;stroke-width:0.5" />
<path d="M176.02,58.695L176.02,53.695" style="fill:none;stroke:#00FF00;stroke-width:0.5" />
<path d="M173.52,56.195L178.52,56.195" style="fill:none;stroke:#00FF00;stroke-width:0.5" />
<path d="M187.11,58.695L187.11,53.695" style="fill:none;stroke:#00FF00;stroke-width:0.5" />
<path d="M184.61,56.195L189.61,56.195" style="fill:none;stroke:#00FF00;stroke-width:0.5" />
<path d="M198.19,58.374L198.19,53.374" style="fill:none;stroke:#00FF00;stroke-width:0.5" />
<path d="M195.69,55.874L200.69,55.874" style="fill:none;stroke:#00FF00;stroke-width:0.5" />
<path d="M209.28,58.695L209.28,53.695" style="fill:none;stroke:#00FF00;stroke-width:0.5" />
<path d="M206.78,56.195L211.78,56.195" style="fill:none;stroke:#00FF00;stroke-width:0.5" />
<path d="M220.36,58.374L220.36,53.374" style="fill:none;stroke:#00FF00;stroke-width:0.5" />
<path d="M217.86,55.874L222.86,55.874" style="fill:none;stroke:#00FF00;stroke-width:0.5" />
<path d="M231.45,58.695L231.45,53.695" style="fill:none;stroke:#00FF00;stroke-width:0.5" />
<path d="M228.95,56.195L233.95,56.195" style="fill:none;stroke:#00FF00;stroke-width:0.5" />
<path d="M242.53,58.695L242.53,53.695" style="fill:none;stroke:#00FF00;stroke-width:0.5" />
<path d="M240.03,56.195L245.03,56.195" style="fill:none;stroke:#00FF00;stroke-width:0.5" />
<path d="M253.62,58.695L253.62,53.695" style="fill:none;stroke:#00FF00;stroke-width:0.5" />
<path d="M251.12,56.195L256.12,56.195" style="fill:none;stroke:#00FF00;stroke-width:0.5" />
<path d="M264.7,58.695L264.7,53.695" style="fill:none;stroke:#00FF00;stroke-width:0.5" />
<path d="M262.2,56.195L267.2,56.195" style="fill:none;stroke:#00FF00;stroke-width:0.5" />
<path d="M275.79,58.695L275.79,53.695" style="fill:none;stroke:#00FF00;stroke-width:0.5" />
<path d="M273.29,56.195L278.29,56.195" style="fill:none;stroke:#00FF00;stroke-width:0.5" />
<path d="M286.88,58.695L286.88,53.695" style="fill:none;stroke:#00FF00;stroke-width:0.5" />
<path d="M284.38,56.195L289.38,56.195" style="fill:none;stroke:#00FF00;stroke-width:0.5" />
<path d="M297.96,58.695L297.96,53.695" style="fill:none;stroke:#00FF00;stroke-width:0.5" />
<path d="M295.46,56.195L300.46,56.195" style="fill:none;stroke:#00FF00;stroke-width:0.5" />
<path d="M309.05,58.695L309.05,53.695" style="fill:none;stroke:#00FF00;stroke-width:0.5" />
<path d="M306.55,56.195L311.55,56.195" style="fill:none;stroke:#00FF00;stroke-width:0.5" />
<path d="M320.13,58.695L320.13,53.695" style="fill:none;stroke:#00FF00;stroke-width:0.5" />
<path d="M317.63,56.195L322.63,56.195" style="fill:none;stroke:#00FF00;stroke-width:0.5" />
<path d="M331.22,58.695L331.22,53.695" style="fill:none;stroke:#00FF00;stroke-width:0.5" />
<path d="M328.72,56.195L333.72,56.195" style="fill:none;stroke:#00FF00;stroke-width:0.5" />
<path d="M342.3,58.695L342.3,53.695" style="fill:none;stroke:#00FF00;stroke-width:0.5" />
<path d="M339.8,56.195L344.8,56.195" style="fill:none;stroke:#00FF00;stroke-width:0.5" />
<path d="M353.39,58.695L353.39,53.695" style="fill:none;stroke:#00FF00;stroke-width:0.5" />
<path d="M350.89,56.195L355.89,56.195" style="fill:none;stroke:#00FF00;stroke-width:0.5" />
<path d="M364.47,58.695L364.47,53.695" style="fill:none;stroke:#00FF00;stroke-width:0.5" />
<path d="M361.97,56.195L366.97,56.195" style="fill:none;stroke:#00FF00;stroke-width:0.5" />
<path d="M375.56,58.695L375.56,53.695" style="fill:none;stroke:#00FF00;stroke-width:0.5" />
<path d="M373.06,56.195L378.06,56.195" style="fill:none;stroke:#00FF00;stroke-width:0.5" />
<path d="M386.65,58.695L386.65,53.695" style="fill:none;stroke:#00FF00;stroke-width:0.5" />
<path d="M384.15,56.195L389.15,56.195" style="fill:none;stroke:#00FF00;stroke-width:0.5" />
<path d="M397.73,58.695L397.73,53.695" style="fill:none;stroke:#00FF00;stroke-width:0.5" />
<path d="M395.23,56.195L400.23,56.195" style="fill:none;stroke:#00FF00;stroke-width:0.5" />
<path d="M408.82,58.374L408.82,53.374" style="fill:none;stroke:#00FF00;stroke-width:0.5" />
<path d="M406.32,55.874L411.32,55.874" style="fill:none;stroke:#00FF00;stroke-width:0.5" />
<path d="M419.9,58.695L419.9,53.695" style="fill:none;stroke:#00FF00;stroke-width:0.5" />
<path d="M417.4,56.195L422.4,56.195" style="fill:none;stroke:#00FF00;stroke-width:0.5" />
<path d="M430.99,58.695L430.99,53.695" style="fill:none;stroke:#00FF00;stroke-width:0.5" />
<path d="M428.49,56.195L433.49,56.195" style="fill:none;stroke:#00FF00;stroke-width:0.5" />
<path d="M442.07,58.695L442.07,53.695" style="fill:none;stroke:#00FF00;stroke-width:0.5" />
<path d="M439.57,56.195L444.57,56.195" style="fill:none;stroke:#00FF00;stroke-width:0.5" />
<path d="M453.16,58.695L453.16,53.695" style="fill:none;stroke:#00FF00;stroke-width:0.5" />
<path d="M450.66,56.195L455.66,56.195" style="fill:none;stroke:#00FF00;stroke-width:0.5" />
<path d="M464.24,58.695L464.24,53.695" style="fill:none;stroke:#00FF00;stroke-width:0.5" />
<path d="M461.74,56.195L466.74,56.195" style="fill:none;stroke:#00FF00;stroke-width:0.5" />
<path d="M475.33,58.695L475.33,53.695" style="fill:none;stroke:#00FF00;stroke-width:0.5" />
<path d="M472.83,56.195L477.83,56.195" style="fill:none;stroke:#00FF00;stroke-width:0.5" />
<path d="M486.41,58.695L486.41,53.695" style="fill:none;stroke:#00FF00;stroke-width:0.5" />
<path d="M483.91,56.195L488.91,56.195" style="fill:none;stroke:#00FF00;stroke-width:0.5" />
<path d="M497.5,58.695L497.5,53.695" style="fill:none;stroke:#00FF00;stroke-width:0.5" />
<path d="M495,56.195L500,56.195" style="fill:none;stroke:#00FF00;stroke-width:0.5" />
<path d="M490,68.168L490,63.168" style="fill:none;stroke:#FF0000;stroke-width:0.5" />
<path d="M487.5,65.668L492.5,65.668" style="fill:none;stroke:#FF0000;stroke-width:0.5" />
<text x="461.67" y="-63.181" transform="scale(1, -1)"
	style="font-family:Liberation Serif;font-variant:normal;font-weight:normal;font-style:normal;font-size:12px">old</text>
<path d="M490,57.984L490,52.984" style="fill:none;stroke:#0000FF;stroke-width:0.5" />
<path d="M487.5,55.484L492.5,55.484" style="fill:none;stroke:#0000FF;stroke-width:0.5" />
<text x="446.34" y="-52.997" transform="scale(1, -1)"
	style="font-family:Liberation Serif;font-variant:normal;font-weight:normal;font-style:normal;font-size:12px">binary</text>
<path d="M490,47.801L490,42.801" style="fill:none;stroke:#00FF00;stroke-width:0.5" />
<path d="M487.5,45.301L492.5,45.301" style="fill:none;stroke:#00FF00;stroke-width:0.5" />
<text x="455.01" y="-42.813" transform="scale(1, -1)"
	style="font-family:Liberation Serif;font-variant:normal;font-weight:normal;font-style:normal;font-size:12px">final</text>
</g>
</svg>
