<?xml version="1.0"?>
<!-- Generated by SVGo and Plotinum VG -->
<svg width="500pt" height="500pt" viewBox="0 0 500 500"
	xmlns="http://www.w3.org/2000/svg"
	xmlns:xlink="http://www.w3.org/1999/xlink">
<g transform="scale(1, -1) translate(0, -500)">
<path d="M0,0L500,0L500,500L0,500Z" style="fill:#FFFFFF" />
<text x="191.35" y="-490.61" transform="scale(1, -1)"
	style="font-family:Liberation Serif;font-variant:normal;font-weight:normal;font-style:normal;font-size:12px">median runtime, 10 tries</text>
<text x="236.29" y="-3.9023" transform="scale(1, -1)"
	style="font-family:Liberation Serif;font-variant:normal;font-weight:normal;font-style:normal;font-size:12px">n (array length)</text>
<text x="135.25" y="-16.541" transform="scale(1, -1)"
	style="font-family:Liberation Serif;font-variant:normal;font-weight:normal;font-style:normal;font-size:10px">4000</text>
<text x="303.88" y="-16.541" transform="scale(1, -1)"
	style="font-family:Liberation Serif;font-variant:normal;font-weight:normal;font-style:normal;font-size:10px">12000</text>
<text x="475" y="-16.541" transform="scale(1, -1)"
	style="font-family:Liberation Serif;font-variant:normal;font-weight:normal;font-style:normal;font-size:10px">20000</text>
<path d="M145.25,24.363L145.25,32.363" style="fill:none;stroke:#000000;stroke-width:0.5" />
<path d="M316.38,24.363L316.38,32.363" style="fill:none;stroke:#000000;stroke-width:0.5" />
<path d="M487.5,24.363L487.5,32.363" style="fill:none;stroke:#000000;stroke-width:0.5" />
<path d="M230.81,28.363L230.81,32.363" style="fill:none;stroke:#000000;stroke-width:0.5" />
<path d="M401.94,28.363L401.94,32.363" style="fill:none;stroke:#000000;stroke-width:0.5" />
<path d="M59.713,32.363L487.5,32.363" style="fill:none;stroke:#000000;stroke-width:0.5" />
<g transform="rotate(90)">
<text x="233.97" y="9.3867" transform="scale(1, -1)"
	style="font-family:Liberation Serif;font-variant:normal;font-weight:normal;font-style:normal;font-size:12px">runtime (ns)</text>
</g>
<text x="15.885" y="-100.92" transform="scale(1, -1)"
	style="font-family:Liberation Serif;font-variant:normal;font-weight:normal;font-style:normal;font-size:10px">2e+07</text>
<text x="15.885" y="-282.4" transform="scale(1, -1)"
	style="font-family:Liberation Serif;font-variant:normal;font-weight:normal;font-style:normal;font-size:10px">8e+07</text>
<text x="15.885" y="-463.89" transform="scale(1, -1)"
	style="font-family:Liberation Serif;font-variant:normal;font-weight:normal;font-style:normal;font-size:10px">1e+08</text>
<path d="M43.463,103.2L51.463,103.2" style="fill:none;stroke:#000000;stroke-width:0.5" />
<path d="M43.463,284.69L51.463,284.69" style="fill:none;stroke:#000000;stroke-width:0.5" />
<path d="M43.463,466.18L51.463,466.18" style="fill:none;stroke:#000000;stroke-width:0.5" />
<path d="M47.463,193.95L51.463,193.95" style="fill:none;stroke:#000000;stroke-width:0.5" />
<path d="M47.463,375.43L51.463,375.43" style="fill:none;stroke:#000000;stroke-width:0.5" />
<path d="M51.463,42.709L51.463,484.21" style="fill:none;stroke:#000000;stroke-width:0.5" />
<path d="M59.713,45.209L59.713,40.209" style="fill:none;stroke:#FF0000;stroke-width:0.5" />
<path d="M57.213,42.709L62.213,42.709" style="fill:none;stroke:#FF0000;stroke-width:0.5" />
<path d="M81.082,46.35L81.082,41.35" style="fill:none;stroke:#FF0000;stroke-width:0.5" />
<path d="M78.582,43.85L83.582,43.85" style="fill:none;stroke:#FF0000;stroke-width:0.5" />
<path d="M102.47,49.809L102.47,44.809" style="fill:none;stroke:#FF0000;stroke-width:0.5" />
<path d="M99.972,47.309L104.97,47.309" style="fill:none;stroke:#FF0000;stroke-width:0.5" />
<path d="M123.86,55.201L123.86,50.201" style="fill:none;stroke:#FF0000;stroke-width:0.5" />
<path d="M121.36,52.701L126.36,52.701" style="fill:none;stroke:#FF0000;stroke-width:0.5" />
<path d="M145.25,62.832L145.25,57.832" style="fill:none;stroke:#FF0000;stroke-width:0.5" />
<path d="M142.75,60.332L147.75,60.332" style="fill:none;stroke:#FF0000;stroke-width:0.5" />
<path d="M166.64,72.716L166.64,67.716" style="fill:none;stroke:#FF0000;stroke-width:0.5" />
<path d="M164.14,70.216L169.14,70.216" style="fill:none;stroke:#FF0000;stroke-width:0.5" />
<path d="M188.03,84.749L188.03,79.749" style="fill:none;stroke:#FF0000;stroke-width:0.5" />
<path d="M185.53,82.249L190.53,82.249" style="fill:none;stroke:#FF0000;stroke-width:0.5" />
<path d="M209.42,99.48L209.42,94.48" style="fill:none;stroke:#FF0000;stroke-width:0.5" />
<path d="M206.92,96.98L211.92,96.98" style="fill:none;stroke:#FF0000;stroke-width:0.5" />
<path d="M230.81,115.63L230.81,110.63" style="fill:none;stroke:#FF0000;stroke-width:0.5" />
<path d="M228.31,113.13L233.31,113.13" style="fill:none;stroke:#FF0000;stroke-width:0.5" />
<path d="M252.21,134.2L252.21,129.2" style="fill:none;stroke:#FF0000;stroke-width:0.5" />
<path d="M249.71,131.7L254.71,131.7" style="fill:none;stroke:#FF0000;stroke-width:0.5" />
<path d="M273.6,155.48L273.6,150.48" style="fill:none;stroke:#FF0000;stroke-width:0.5" />
<path d="M271.1,152.98L276.1,152.98" style="fill:none;stroke:#FF0000;stroke-width:0.5" />
<path d="M294.99,179.01L294.99,174.01" style="fill:none;stroke:#FF0000;stroke-width:0.5" />
<path d="M292.49,176.51L297.49,176.51" style="fill:none;stroke:#FF0000;stroke-width:0.5" />
<path d="M316.38,204.31L316.38,199.31" style="fill:none;stroke:#FF0000;stroke-width:0.5" />
<path d="M313.88,201.81L318.88,201.81" style="fill:none;stroke:#FF0000;stroke-width:0.5" />
<path d="M337.77,232.04L337.77,227.04" style="fill:none;stroke:#FF0000;stroke-width:0.5" />
<path d="M335.27,229.54L340.27,229.54" style="fill:none;stroke:#FF0000;stroke-width:0.5" />
<path d="M359.16,261.18L359.16,256.18" style="fill:none;stroke:#FF0000;stroke-width:0.5" />
<path d="M356.66,258.68L361.66,258.68" style="fill:none;stroke:#FF0000;stroke-width:0.5" />
<path d="M380.55,292.92L380.55,287.92" style="fill:none;stroke:#FF0000;stroke-width:0.5" />
<path d="M378.05,290.42L383.05,290.42" style="fill:none;stroke:#FF0000;stroke-width:0.5" />
<path d="M401.94,327.17L401.94,322.17" style="fill:none;stroke:#FF0000;stroke-width:0.5" />
<path d="M399.44,324.67L404.44,324.67" style="fill:none;stroke:#FF0000;stroke-width:0.5" />
<path d="M423.33,364.6L423.33,359.6" style="fill:none;stroke:#FF0000;stroke-width:0.5" />
<path d="M420.83,362.1L425.83,362.1" style="fill:none;stroke:#FF0000;stroke-width:0.5" />
<path d="M444.72,400.73L444.72,395.73" style="fill:none;stroke:#FF0000;stroke-width:0.5" />
<path d="M442.22,398.23L447.22,398.23" style="fill:none;stroke:#FF0000;stroke-width:0.5" />
<path d="M466.11,445.84L466.11,440.84" style="fill:none;stroke:#FF0000;stroke-width:0.5" />
<path d="M463.61,443.34L468.61,443.34" style="fill:none;stroke:#FF0000;stroke-width:0.5" />
<path d="M487.5,486.71L487.5,481.71" style="fill:none;stroke:#FF0000;stroke-width:0.5" />
<path d="M485,484.21L490,484.21" style="fill:none;stroke:#FF0000;stroke-width:0.5" />
<path d="M59.713,45.209L59.713,40.209" style="fill:none;stroke:#0000FF;stroke-width:0.5" />
<path d="M57.213,42.709L62.213,42.709" style="fill:none;stroke:#0000FF;stroke-width:0.5" />
<path d="M81.082,46.322L81.082,41.322" style="fill:none;stroke:#0000FF;stroke-width:0.5" />
<path d="M78.582,43.822L83.582,43.822" style="fill:none;stroke:#0000FF;stroke-width:0.5" />
<path d="M102.47,49.383L102.47,44.383" style="fill:none;stroke:#0000FF;stroke-width:0.5" />
<path d="M99.972,46.883L104.97,46.883" style="fill:none;stroke:#0000FF;stroke-width:0.5" />
<path d="M123.86,54.403L123.86,49.403" style="fill:none;stroke:#0000FF;stroke-width:0.5" />
<path d="M121.36,51.903L126.36,51.903" style="fill:none;stroke:#0000FF;stroke-width:0.5" />
<path d="M145.25,61.366L145.25,56.366" style="fill:none;stroke:#0000FF;stroke-width:0.5" />
<path d="M142.75,58.866L147.75,58.866" style="fill:none;stroke:#0000FF;stroke-width:0.5" />
<path d="M166.64,70.28L166.64,65.28" style="fill:none;stroke:#0000FF;stroke-width:0.5" />
<path d="M164.14,67.78L169.14,67.78" style="fill:none;stroke:#0000FF;stroke-width:0.5" />
<path d="M188.03,81.123L188.03,76.123" style="fill:none;stroke:#0000FF;stroke-width:0.5" />
<path d="M185.53,78.623L190.53,78.623" style="fill:none;stroke:#0000FF;stroke-width:0.5" />
<path d="M209.42,93.915L209.42,88.915" style="fill:none;stroke:#0000FF;stroke-width:0.5" />
<path d="M206.92,91.415L211.92,91.415" style="fill:none;stroke:#0000FF;stroke-width:0.5" />
<path d="M230.81,110.83L230.81,105.83" style="fill:none;stroke:#0000FF;stroke-width:0.5" />
<path d="M228.31,108.33L233.31,108.33" style="fill:none;stroke:#0000FF;stroke-width:0.5" />
<path d="M252.21,125.37L252.21,120.37" style="fill:none;stroke:#0000FF;stroke-width:0.5" />
<path d="M249.71,122.87L254.71,122.87" style="fill:none;stroke:#0000FF;stroke-width:0.5" />
<path d="M273.6,143.9L273.6,138.9" style="fill:none;stroke:#0000FF;stroke-width:0.5" />
<path d="M271.1,141.4L276.1,141.4" style="fill:none;stroke:#0000FF;stroke-width:0.5" />
<path d="M294.99,164.45L294.99,159.45" style="fill:none;stroke:#0000FF;stroke-width:0.5" />
<path d="M292.49,161.95L297.49,161.95" style="fill:none;stroke:#0000FF;stroke-width:0.5" />
<path d="M316.38,186.92L316.38,181.92" style="fill:none;stroke:#0000FF;stroke-width:0.5" />
<path d="M313.88,184.42L318.88,184.42" style="fill:none;stroke:#0000FF;stroke-width:0.5" />
<path d="M337.77,211.49L337.77,206.49" style="fill:none;stroke:#0000FF;stroke-width:0.5" />
<path d="M335.27,208.99L340.27,208.99" style="fill:none;stroke:#0000FF;stroke-width:0.5" />
<path d="M359.16,237.76L359.16,232.76" style="fill:none;stroke:#0000FF;stroke-width:0.5" />
<path d="M356.66,235.26L361.66,235.26" style="fill:none;stroke:#0000FF;stroke-width:0.5" />
<path d="M380.55,266.04L380.55,261.04" style="fill:none;stroke:#0000FF;stroke-width:0.5" />
<path d="M378.05,263.54L383.05,263.54" style="fill:none;stroke:#0000FF;stroke-width:0.5" />
<path d="M401.94,296.26L401.94,291.26" style="fill:none;stroke:#0000FF;stroke-width:0.5" />
<path d="M399.44,293.76L404.44,293.76" style="fill:none;stroke:#0000FF;stroke-width:0.5" />
<path d="M423.33,328.21L423.33,323.21" style="fill:none;stroke:#0000FF;stroke-width:0.5" />
<path d="M420.83,325.71L425.83,325.71" style="fill:none;stroke:#0000FF;stroke-width:0.5" />
<path d="M444.72,370.28L444.72,365.28" style="fill:none;stroke:#0000FF;stroke-width:0.5" />
<path d="M442.22,367.78L447.22,367.78" style="fill:none;stroke:#0000FF;stroke-width:0.5" />
<path d="M466.11,398.51L466.11,393.51" style="fill:none;stroke:#0000FF;stroke-width:0.5" />
<path d="M463.61,396.01L468.61,396.01" style="fill:none;stroke:#0000FF;stroke-width:0.5" />
<path d="M487.5,436.64L487.5,431.64" style="fill:none;stroke:#0000FF;stroke-width:0.5" />
<path d="M485,434.14L490,434.14" style="fill:none;stroke:#0000FF;stroke-width:0.5" />
<path d="M490,57.984L490,52.984" style="fill:none;stroke:#FF0000;stroke-width:0.5" />
<path d="M487.5,55.484L492.5,55.484" style="fill:none;stroke:#FF0000;stroke-width:0.5" />
<text x="414.01" y="-52.997" transform="scale(1, -1)"
	style="font-family:Liberation Serif;font-variant:normal;font-weight:normal;font-style:normal;font-size:12px">insertion sort</text>
<path d="M490,47.801L490,42.801" style="fill:none;stroke:#0000FF;stroke-width:0.5" />
<path d="M487.5,45.301L492.5,45.301" style="fill:none;stroke:#0000FF;stroke-width:0.5" />
<text x="413.35" y="-42.813" transform="scale(1, -1)"
	style="font-family:Liberation Serif;font-variant:normal;font-weight:normal;font-style:normal;font-size:12px">selection sort</text>
</g>
</svg>
