<?xml version="1.0"?>
<!-- Generated by SVGo and Plotinum VG -->
<svg width="500pt" height="500pt" viewBox="0 0 500 500"
	xmlns="http://www.w3.org/2000/svg"
	xmlns:xlink="http://www.w3.org/1999/xlink">
<g transform="scale(1, -1) translate(0, -500)">
<path d="M0,0L500,0L500,500L0,500Z" style="fill:#FFFFFF" />
<text x="177.13" y="-490.61" transform="scale(1, -1)"
	style="font-family:Liberation Serif;font-variant:normal;font-weight:normal;font-style:normal;font-size:12px">runtime of merge sort, 10 tries</text>
<text x="233.79" y="-3.9023" transform="scale(1, -1)"
	style="font-family:Liberation Serif;font-variant:normal;font-weight:normal;font-style:normal;font-size:12px">n (array length)</text>
<text x="129.27" y="-16.541" transform="scale(1, -1)"
	style="font-family:Liberation Serif;font-variant:normal;font-weight:normal;font-style:normal;font-size:10px">400000</text>
<text x="295.89" y="-16.541" transform="scale(1, -1)"
	style="font-family:Liberation Serif;font-variant:normal;font-weight:normal;font-style:normal;font-size:10px">1200000</text>
<text x="465" y="-16.541" transform="scale(1, -1)"
	style="font-family:Liberation Serif;font-variant:normal;font-weight:normal;font-style:normal;font-size:10px">2000000</text>
<path d="M144.27,24.363L144.27,32.363" style="fill:none;stroke:#000000;stroke-width:0.5" />
<path d="M313.39,24.363L313.39,32.363" style="fill:none;stroke:#000000;stroke-width:0.5" />
<path d="M482.5,24.363L482.5,32.363" style="fill:none;stroke:#000000;stroke-width:0.5" />
<path d="M228.83,28.363L228.83,32.363" style="fill:none;stroke:#000000;stroke-width:0.5" />
<path d="M397.94,28.363L397.94,32.363" style="fill:none;stroke:#000000;stroke-width:0.5" />
<path d="M59.713,32.363L482.5,32.363" style="fill:none;stroke:#000000;stroke-width:0.5" />
<g transform="rotate(90)">
<text x="233.97" y="9.3867" transform="scale(1, -1)"
	style="font-family:Liberation Serif;font-variant:normal;font-weight:normal;font-style:normal;font-size:12px">runtime (ns)</text>
</g>
<text x="15.885" y="-121.47" transform="scale(1, -1)"
	style="font-family:Liberation Serif;font-variant:normal;font-weight:normal;font-style:normal;font-size:10px">4e+07</text>
<text x="15.885" y="-283.56" transform="scale(1, -1)"
	style="font-family:Liberation Serif;font-variant:normal;font-weight:normal;font-style:normal;font-size:10px">1e+08</text>
<text x="15.885" y="-445.65" transform="scale(1, -1)"
	style="font-family:Liberation Serif;font-variant:normal;font-weight:normal;font-style:normal;font-size:10px">2e+08</text>
<path d="M43.463,123.75L51.463,123.75" style="fill:none;stroke:#000000;stroke-width:0.5" />
<path d="M43.463,285.84L51.463,285.84" style="fill:none;stroke:#000000;stroke-width:0.5" />
<path d="M43.463,447.93L51.463,447.93" style="fill:none;stroke:#000000;stroke-width:0.5" />
<path d="M47.463,204.8L51.463,204.8" style="fill:none;stroke:#000000;stroke-width:0.5" />
<path d="M47.463,366.89L51.463,366.89" style="fill:none;stroke:#000000;stroke-width:0.5" />
<path d="M51.463,42.709L51.463,484.21" style="fill:none;stroke:#000000;stroke-width:0.5" />
<path d="M59.713,45.209L59.713,40.209" style="fill:none;stroke:#FF0000;stroke-width:0.5" />
<path d="M57.213,42.709L62.213,42.709" style="fill:none;stroke:#FF0000;stroke-width:0.5" />
<path d="M80.852,65.579L80.852,60.579" style="fill:none;stroke:#FF0000;stroke-width:0.5" />
<path d="M78.352,63.079L83.352,63.079" style="fill:none;stroke:#FF0000;stroke-width:0.5" />
<path d="M101.99,86.405L101.99,81.405" style="fill:none;stroke:#FF0000;stroke-width:0.5" />
<path d="M99.491,83.905L104.49,83.905" style="fill:none;stroke:#FF0000;stroke-width:0.5" />
<path d="M123.13,106.94L123.13,101.94" style="fill:none;stroke:#FF0000;stroke-width:0.5" />
<path d="M120.63,104.44L125.63,104.44" style="fill:none;stroke:#FF0000;stroke-width:0.5" />
<path d="M144.27,128.75L144.27,123.75" style="fill:none;stroke:#FF0000;stroke-width:0.5" />
<path d="M141.77,126.25L146.77,126.25" style="fill:none;stroke:#FF0000;stroke-width:0.5" />
<path d="M165.41,149.44L165.41,144.44" style="fill:none;stroke:#FF0000;stroke-width:0.5" />
<path d="M162.91,146.94L167.91,146.94" style="fill:none;stroke:#FF0000;stroke-width:0.5" />
<path d="M186.55,171.66L186.55,166.66" style="fill:none;stroke:#FF0000;stroke-width:0.5" />
<path d="M184.05,169.16L189.05,169.16" style="fill:none;stroke:#FF0000;stroke-width:0.5" />
<path d="M207.69,194.17L207.69,189.17" style="fill:none;stroke:#FF0000;stroke-width:0.5" />
<path d="M205.19,191.67L210.19,191.67" style="fill:none;stroke:#FF0000;stroke-width:0.5" />
<path d="M228.83,215.1L228.83,210.1" style="fill:none;stroke:#FF0000;stroke-width:0.5" />
<path d="M226.33,212.6L231.33,212.6" style="fill:none;stroke:#FF0000;stroke-width:0.5" />
<path d="M249.97,237.55L249.97,232.55" style="fill:none;stroke:#FF0000;stroke-width:0.5" />
<path d="M247.47,235.05L252.47,235.05" style="fill:none;stroke:#FF0000;stroke-width:0.5" />
<path d="M271.11,258.89L271.11,253.89" style="fill:none;stroke:#FF0000;stroke-width:0.5" />
<path d="M268.61,256.39L273.61,256.39" style="fill:none;stroke:#FF0000;stroke-width:0.5" />
<path d="M292.25,281.51L292.25,276.51" style="fill:none;stroke:#FF0000;stroke-width:0.5" />
<path d="M289.75,279.01L294.75,279.01" style="fill:none;stroke:#FF0000;stroke-width:0.5" />
<path d="M313.39,303.75L313.39,298.75" style="fill:none;stroke:#FF0000;stroke-width:0.5" />
<path d="M310.89,301.25L315.89,301.25" style="fill:none;stroke:#FF0000;stroke-width:0.5" />
<path d="M334.52,325.73L334.52,320.73" style="fill:none;stroke:#FF0000;stroke-width:0.5" />
<path d="M332.02,323.23L337.02,323.23" style="fill:none;stroke:#FF0000;stroke-width:0.5" />
<path d="M355.66,352.22L355.66,347.22" style="fill:none;stroke:#FF0000;stroke-width:0.5" />
<path d="M353.16,349.72L358.16,349.72" style="fill:none;stroke:#FF0000;stroke-width:0.5" />
<path d="M376.8,373.12L376.8,368.12" style="fill:none;stroke:#FF0000;stroke-width:0.5" />
<path d="M374.3,370.62L379.3,370.62" style="fill:none;stroke:#FF0000;stroke-width:0.5" />
<path d="M397.94,396.71L397.94,391.71" style="fill:none;stroke:#FF0000;stroke-width:0.5" />
<path d="M395.44,394.21L400.44,394.21" style="fill:none;stroke:#FF0000;stroke-width:0.5" />
<path d="M419.08,420.35L419.08,415.35" style="fill:none;stroke:#FF0000;stroke-width:0.5" />
<path d="M416.58,417.85L421.58,417.85" style="fill:none;stroke:#FF0000;stroke-width:0.5" />
<path d="M440.22,443.33L440.22,438.33" style="fill:none;stroke:#FF0000;stroke-width:0.5" />
<path d="M437.72,440.83L442.72,440.83" style="fill:none;stroke:#FF0000;stroke-width:0.5" />
<path d="M461.36,467.41L461.36,462.41" style="fill:none;stroke:#FF0000;stroke-width:0.5" />
<path d="M458.86,464.91L463.86,464.91" style="fill:none;stroke:#FF0000;stroke-width:0.5" />
<path d="M482.5,486.71L482.5,481.71" style="fill:none;stroke:#FF0000;stroke-width:0.5" />
<path d="M480,484.21L485,484.21" style="fill:none;stroke:#FF0000;stroke-width:0.5" />
<path d="M490,47.801L490,42.801" style="fill:none;stroke:#FF0000;stroke-width:0.5" />
<path d="M487.5,45.301L492.5,45.301" style="fill:none;stroke:#FF0000;stroke-width:0.5" />
<text x="441.68" y="-42.813" transform="scale(1, -1)"
	style="font-family:Liberation Serif;font-variant:normal;font-weight:normal;font-style:normal;font-size:12px">median</text>
</g>
</svg>
