<?xml version="1.0"?>
<!-- Generated by SVGo and Plotinum VG -->
<svg width="300pt" height="300pt" viewBox="0 0 300 300"
	xmlns="http://www.w3.org/2000/svg"
	xmlns:xlink="http://www.w3.org/1999/xlink">
<g transform="scale(1, -1) translate(0, -300)">
<path d="M0,0L300,0L300,300L0,300Z" style="fill:#FFFFFF" />
<text x="49.324" y="-288.81" transform="scale(1, -1)"
	style="font-family:Liberation Serif;font-variant:normal;font-weight:normal;font-style:normal;font-size:12px">array binary search VS binary tree search </text>
<text x="107.52" y="-276.81" transform="scale(1, -1)"
	style="font-family:Liberation Serif;font-variant:normal;font-weight:normal;font-style:normal;font-size:12px">average, 200 tries</text>
<text x="170.57" y="-3.9023" transform="scale(1, -1)"
	style="font-family:Liberation Serif;font-variant:normal;font-weight:normal;font-style:normal;font-size:12px">n</text>
<text x="62.776" y="-16.541" transform="scale(1, -1)"
	style="font-family:Liberation Serif;font-variant:normal;font-weight:normal;font-style:normal;font-size:10px">50000</text>
<text x="162.84" y="-16.541" transform="scale(1, -1)"
	style="font-family:Liberation Serif;font-variant:normal;font-weight:normal;font-style:normal;font-size:10px">250000</text>
<text x="265.41" y="-16.541" transform="scale(1, -1)"
	style="font-family:Liberation Serif;font-variant:normal;font-weight:normal;font-style:normal;font-size:10px">450000</text>
<path d="M75.276,24.363L75.276,32.363" style="fill:none;stroke:#000000;stroke-width:0.5" />
<path d="M177.84,24.363L177.84,32.363" style="fill:none;stroke:#000000;stroke-width:0.5" />
<path d="M280.41,24.363L280.41,32.363" style="fill:none;stroke:#000000;stroke-width:0.5" />
<path d="M126.56,28.363L126.56,32.363" style="fill:none;stroke:#000000;stroke-width:0.5" />
<path d="M229.12,28.363L229.12,32.363" style="fill:none;stroke:#000000;stroke-width:0.5" />
<path d="M49.635,32.363L297.5,32.363" style="fill:none;stroke:#000000;stroke-width:0.5" />
<g transform="rotate(90)">
<text x="127.07" y="9.3867" transform="scale(1, -1)"
	style="font-family:Liberation Serif;font-variant:normal;font-weight:normal;font-style:normal;font-size:12px">runtime (ns)</text>
</g>
<text x="15.885" y="-84.402" transform="scale(1, -1)"
	style="font-family:Liberation Serif;font-variant:normal;font-weight:normal;font-style:normal;font-size:10px">100</text>
<text x="15.885" y="-163.78" transform="scale(1, -1)"
	style="font-family:Liberation Serif;font-variant:normal;font-weight:normal;font-style:normal;font-size:10px">200</text>
<text x="15.885" y="-243.15" transform="scale(1, -1)"
	style="font-family:Liberation Serif;font-variant:normal;font-weight:normal;font-style:normal;font-size:10px">300</text>
<path d="M33.385,86.687L41.385,86.687" style="fill:none;stroke:#000000;stroke-width:0.5" />
<path d="M33.385,166.06L41.385,166.06" style="fill:none;stroke:#000000;stroke-width:0.5" />
<path d="M33.385,245.44L41.385,245.44" style="fill:none;stroke:#000000;stroke-width:0.5" />
<path d="M37.385,54.937L41.385,54.937" style="fill:none;stroke:#000000;stroke-width:0.5" />
<path d="M37.385,70.812L41.385,70.812" style="fill:none;stroke:#000000;stroke-width:0.5" />
<path d="M37.385,102.56L41.385,102.56" style="fill:none;stroke:#000000;stroke-width:0.5" />
<path d="M37.385,118.44L41.385,118.44" style="fill:none;stroke:#000000;stroke-width:0.5" />
<path d="M37.385,134.31L41.385,134.31" style="fill:none;stroke:#000000;stroke-width:0.5" />
<path d="M37.385,150.19L41.385,150.19" style="fill:none;stroke:#000000;stroke-width:0.5" />
<path d="M37.385,181.94L41.385,181.94" style="fill:none;stroke:#000000;stroke-width:0.5" />
<path d="M37.385,197.81L41.385,197.81" style="fill:none;stroke:#000000;stroke-width:0.5" />
<path d="M37.385,213.69L41.385,213.69" style="fill:none;stroke:#000000;stroke-width:0.5" />
<path d="M37.385,229.56L41.385,229.56" style="fill:none;stroke:#000000;stroke-width:0.5" />
<path d="M37.385,261.31L41.385,261.31" style="fill:none;stroke:#000000;stroke-width:0.5" />
<path d="M41.385,42.709L41.385,270.41" style="fill:none;stroke:#000000;stroke-width:0.5" />
<path d="M49.635,50.305L49.635,45.305" style="fill:none;stroke:#0000FF;stroke-width:0.5" />
<path d="M47.135,47.805L52.135,47.805" style="fill:none;stroke:#0000FF;stroke-width:0.5" />
<path d="M58.182,123.77L58.182,118.77" style="fill:none;stroke:#0000FF;stroke-width:0.5" />
<path d="M55.682,121.27L60.682,121.27" style="fill:none;stroke:#0000FF;stroke-width:0.5" />
<path d="M66.729,129.35L66.729,124.35" style="fill:none;stroke:#0000FF;stroke-width:0.5" />
<path d="M64.229,126.85L69.229,126.85" style="fill:none;stroke:#0000FF;stroke-width:0.5" />
<path d="M75.276,137.95L75.276,132.95" style="fill:none;stroke:#0000FF;stroke-width:0.5" />
<path d="M72.776,135.45L77.776,135.45" style="fill:none;stroke:#0000FF;stroke-width:0.5" />
<path d="M83.823,140.47L83.823,135.47" style="fill:none;stroke:#0000FF;stroke-width:0.5" />
<path d="M81.323,137.97L86.323,137.97" style="fill:none;stroke:#0000FF;stroke-width:0.5" />
<path d="M92.37,143.77L92.37,138.77" style="fill:none;stroke:#0000FF;stroke-width:0.5" />
<path d="M89.87,141.27L94.87,141.27" style="fill:none;stroke:#0000FF;stroke-width:0.5" />
<path d="M100.92,150.75L100.92,145.75" style="fill:none;stroke:#0000FF;stroke-width:0.5" />
<path d="M98.417,148.25L103.42,148.25" style="fill:none;stroke:#0000FF;stroke-width:0.5" />
<path d="M109.46,148.9L109.46,143.9" style="fill:none;stroke:#0000FF;stroke-width:0.5" />
<path d="M106.96,146.4L111.96,146.4" style="fill:none;stroke:#0000FF;stroke-width:0.5" />
<path d="M118.01,151.85L118.01,146.85" style="fill:none;stroke:#0000FF;stroke-width:0.5" />
<path d="M115.51,149.35L120.51,149.35" style="fill:none;stroke:#0000FF;stroke-width:0.5" />
<path d="M126.56,153.65L126.56,148.65" style="fill:none;stroke:#0000FF;stroke-width:0.5" />
<path d="M124.06,151.15L129.06,151.15" style="fill:none;stroke:#0000FF;stroke-width:0.5" />
<path d="M135.11,158.15L135.11,153.15" style="fill:none;stroke:#0000FF;stroke-width:0.5" />
<path d="M132.61,155.65L137.61,155.65" style="fill:none;stroke:#0000FF;stroke-width:0.5" />
<path d="M143.65,158.61L143.65,153.61" style="fill:none;stroke:#0000FF;stroke-width:0.5" />
<path d="M141.15,156.11L146.15,156.11" style="fill:none;stroke:#0000FF;stroke-width:0.5" />
<path d="M152.2,158.02L152.2,153.02" style="fill:none;stroke:#0000FF;stroke-width:0.5" />
<path d="M149.7,155.52L154.7,155.52" style="fill:none;stroke:#0000FF;stroke-width:0.5" />
<path d="M160.75,160.78L160.75,155.78" style="fill:none;stroke:#0000FF;stroke-width:0.5" />
<path d="M158.25,158.28L163.25,158.28" style="fill:none;stroke:#0000FF;stroke-width:0.5" />
<path d="M169.29,157.78L169.29,152.78" style="fill:none;stroke:#0000FF;stroke-width:0.5" />
<path d="M166.79,155.28L171.79,155.28" style="fill:none;stroke:#0000FF;stroke-width:0.5" />
<path d="M177.84,159.99L177.84,154.99" style="fill:none;stroke:#0000FF;stroke-width:0.5" />
<path d="M175.34,157.49L180.34,157.49" style="fill:none;stroke:#0000FF;stroke-width:0.5" />
<path d="M186.39,161.38L186.39,156.38" style="fill:none;stroke:#0000FF;stroke-width:0.5" />
<path d="M183.89,158.88L188.89,158.88" style="fill:none;stroke:#0000FF;stroke-width:0.5" />
<path d="M194.94,160.78L194.94,155.78" style="fill:none;stroke:#0000FF;stroke-width:0.5" />
<path d="M192.44,158.28L197.44,158.28" style="fill:none;stroke:#0000FF;stroke-width:0.5" />
<path d="M203.48,162.94L203.48,157.94" style="fill:none;stroke:#0000FF;stroke-width:0.5" />
<path d="M200.98,160.44L205.98,160.44" style="fill:none;stroke:#0000FF;stroke-width:0.5" />
<path d="M212.03,164.73L212.03,159.73" style="fill:none;stroke:#0000FF;stroke-width:0.5" />
<path d="M209.53,162.23L214.53,162.23" style="fill:none;stroke:#0000FF;stroke-width:0.5" />
<path d="M220.58,166.94L220.58,161.94" style="fill:none;stroke:#0000FF;stroke-width:0.5" />
<path d="M218.08,164.44L223.08,164.44" style="fill:none;stroke:#0000FF;stroke-width:0.5" />
<path d="M229.12,165.62L229.12,160.62" style="fill:none;stroke:#0000FF;stroke-width:0.5" />
<path d="M226.62,163.12L231.62,163.12" style="fill:none;stroke:#0000FF;stroke-width:0.5" />
<path d="M237.67,165.99L237.67,160.99" style="fill:none;stroke:#0000FF;stroke-width:0.5" />
<path d="M235.17,163.49L240.17,163.49" style="fill:none;stroke:#0000FF;stroke-width:0.5" />
<path d="M246.22,166.73L246.22,161.73" style="fill:none;stroke:#0000FF;stroke-width:0.5" />
<path d="M243.72,164.23L248.72,164.23" style="fill:none;stroke:#0000FF;stroke-width:0.5" />
<path d="M254.76,168.58L254.76,163.58" style="fill:none;stroke:#0000FF;stroke-width:0.5" />
<path d="M252.26,166.08L257.26,166.08" style="fill:none;stroke:#0000FF;stroke-width:0.5" />
<path d="M263.31,167.4L263.31,162.4" style="fill:none;stroke:#0000FF;stroke-width:0.5" />
<path d="M260.81,164.9L265.81,164.9" style="fill:none;stroke:#0000FF;stroke-width:0.5" />
<path d="M271.86,168.56L271.86,163.56" style="fill:none;stroke:#0000FF;stroke-width:0.5" />
<path d="M269.36,166.06L274.36,166.06" style="fill:none;stroke:#0000FF;stroke-width:0.5" />
<path d="M280.41,169.39L280.41,164.39" style="fill:none;stroke:#0000FF;stroke-width:0.5" />
<path d="M277.91,166.89L282.91,166.89" style="fill:none;stroke:#0000FF;stroke-width:0.5" />
<path d="M288.95,169.89L288.95,164.89" style="fill:none;stroke:#0000FF;stroke-width:0.5" />
<path d="M286.45,167.39L291.45,167.39" style="fill:none;stroke:#0000FF;stroke-width:0.5" />
<path d="M297.5,168.86L297.5,163.86" style="fill:none;stroke:#0000FF;stroke-width:0.5" />
<path d="M295,166.36L300,166.36" style="fill:none;stroke:#0000FF;stroke-width:0.5" />
<path d="M49.635,45.209L49.635,40.209" style="fill:none;stroke:#FF0000;stroke-width:0.5" />
<path d="M47.135,42.709L52.135,42.709" style="fill:none;stroke:#FF0000;stroke-width:0.5" />
<path d="M58.182,119.96L58.182,114.96" style="fill:none;stroke:#FF0000;stroke-width:0.5" />
<path d="M55.682,117.46L60.682,117.46" style="fill:none;stroke:#FF0000;stroke-width:0.5" />
<path d="M66.729,182.79L66.729,177.79" style="fill:none;stroke:#FF0000;stroke-width:0.5" />
<path d="M64.229,180.29L69.229,180.29" style="fill:none;stroke:#FF0000;stroke-width:0.5" />
<path d="M75.276,153.66L75.276,148.66" style="fill:none;stroke:#FF0000;stroke-width:0.5" />
<path d="M72.776,151.16L77.776,151.16" style="fill:none;stroke:#FF0000;stroke-width:0.5" />
<path d="M83.823,193.51L83.823,188.51" style="fill:none;stroke:#FF0000;stroke-width:0.5" />
<path d="M81.323,191.01L86.323,191.01" style="fill:none;stroke:#FF0000;stroke-width:0.5" />
<path d="M92.37,176.8L92.37,171.8" style="fill:none;stroke:#FF0000;stroke-width:0.5" />
<path d="M89.87,174.3L94.87,174.3" style="fill:none;stroke:#FF0000;stroke-width:0.5" />
<path d="M100.92,182.81L100.92,177.81" style="fill:none;stroke:#FF0000;stroke-width:0.5" />
<path d="M98.417,180.31L103.42,180.31" style="fill:none;stroke:#FF0000;stroke-width:0.5" />
<path d="M109.46,162.93L109.46,157.93" style="fill:none;stroke:#FF0000;stroke-width:0.5" />
<path d="M106.96,160.43L111.96,160.43" style="fill:none;stroke:#FF0000;stroke-width:0.5" />
<path d="M118.01,163.76L118.01,158.76" style="fill:none;stroke:#FF0000;stroke-width:0.5" />
<path d="M115.51,161.26L120.51,161.26" style="fill:none;stroke:#FF0000;stroke-width:0.5" />
<path d="M126.56,205.75L126.56,200.75" style="fill:none;stroke:#FF0000;stroke-width:0.5" />
<path d="M124.06,203.25L129.06,203.25" style="fill:none;stroke:#FF0000;stroke-width:0.5" />
<path d="M135.11,166.88L135.11,161.88" style="fill:none;stroke:#FF0000;stroke-width:0.5" />
<path d="M132.61,164.38L137.61,164.38" style="fill:none;stroke:#FF0000;stroke-width:0.5" />
<path d="M143.65,177.01L143.65,172.01" style="fill:none;stroke:#FF0000;stroke-width:0.5" />
<path d="M141.15,174.51L146.15,174.51" style="fill:none;stroke:#FF0000;stroke-width:0.5" />
<path d="M152.2,178.64L152.2,173.64" style="fill:none;stroke:#FF0000;stroke-width:0.5" />
<path d="M149.7,176.14L154.7,176.14" style="fill:none;stroke:#FF0000;stroke-width:0.5" />
<path d="M160.75,197.46L160.75,192.46" style="fill:none;stroke:#FF0000;stroke-width:0.5" />
<path d="M158.25,194.96L163.25,194.96" style="fill:none;stroke:#FF0000;stroke-width:0.5" />
<path d="M169.29,203.45L169.29,198.45" style="fill:none;stroke:#FF0000;stroke-width:0.5" />
<path d="M166.79,200.95L171.79,200.95" style="fill:none;stroke:#FF0000;stroke-width:0.5" />
<path d="M177.84,184.42L177.84,179.42" style="fill:none;stroke:#FF0000;stroke-width:0.5" />
<path d="M175.34,181.92L180.34,181.92" style="fill:none;stroke:#FF0000;stroke-width:0.5" />
<path d="M186.39,234.2L186.39,229.2" style="fill:none;stroke:#FF0000;stroke-width:0.5" />
<path d="M183.89,231.7L188.89,231.7" style="fill:none;stroke:#FF0000;stroke-width:0.5" />
<path d="M194.94,268.14L194.94,263.14" style="fill:none;stroke:#FF0000;stroke-width:0.5" />
<path d="M192.44,265.64L197.44,265.64" style="fill:none;stroke:#FF0000;stroke-width:0.5" />
<path d="M203.48,203.6L203.48,198.6" style="fill:none;stroke:#FF0000;stroke-width:0.5" />
<path d="M200.98,201.1L205.98,201.1" style="fill:none;stroke:#FF0000;stroke-width:0.5" />
<path d="M212.03,208.92L212.03,203.92" style="fill:none;stroke:#FF0000;stroke-width:0.5" />
<path d="M209.53,206.42L214.53,206.42" style="fill:none;stroke:#FF0000;stroke-width:0.5" />
<path d="M220.58,216.02L220.58,211.02" style="fill:none;stroke:#FF0000;stroke-width:0.5" />
<path d="M218.08,213.52L223.08,213.52" style="fill:none;stroke:#FF0000;stroke-width:0.5" />
<path d="M229.12,212.57L229.12,207.57" style="fill:none;stroke:#FF0000;stroke-width:0.5" />
<path d="M226.62,210.07L231.62,210.07" style="fill:none;stroke:#FF0000;stroke-width:0.5" />
<path d="M237.67,239.34L237.67,234.34" style="fill:none;stroke:#FF0000;stroke-width:0.5" />
<path d="M235.17,236.84L240.17,236.84" style="fill:none;stroke:#FF0000;stroke-width:0.5" />
<path d="M246.22,237.86L246.22,232.86" style="fill:none;stroke:#FF0000;stroke-width:0.5" />
<path d="M243.72,235.36L248.72,235.36" style="fill:none;stroke:#FF0000;stroke-width:0.5" />
<path d="M254.76,246.56L254.76,241.56" style="fill:none;stroke:#FF0000;stroke-width:0.5" />
<path d="M252.26,244.06L257.26,244.06" style="fill:none;stroke:#FF0000;stroke-width:0.5" />
<path d="M263.31,231.41L263.31,226.41" style="fill:none;stroke:#FF0000;stroke-width:0.5" />
<path d="M260.81,228.91L265.81,228.91" style="fill:none;stroke:#FF0000;stroke-width:0.5" />
<path d="M271.86,226.72L271.86,221.72" style="fill:none;stroke:#FF0000;stroke-width:0.5" />
<path d="M269.36,224.22L274.36,224.22" style="fill:none;stroke:#FF0000;stroke-width:0.5" />
<path d="M280.41,254.56L280.41,249.56" style="fill:none;stroke:#FF0000;stroke-width:0.5" />
<path d="M277.91,252.06L282.91,252.06" style="fill:none;stroke:#FF0000;stroke-width:0.5" />
<path d="M288.95,247.97L288.95,242.97" style="fill:none;stroke:#FF0000;stroke-width:0.5" />
<path d="M286.45,245.47L291.45,245.47" style="fill:none;stroke:#FF0000;stroke-width:0.5" />
<path d="M297.5,272.91L297.5,267.91" style="fill:none;stroke:#FF0000;stroke-width:0.5" />
<path d="M295,270.41L300,270.41" style="fill:none;stroke:#FF0000;stroke-width:0.5" />
<path d="M290,57.984L290,52.984" style="fill:none;stroke:#FF0000;stroke-width:0.5" />
<path d="M287.5,55.484L292.5,55.484" style="fill:none;stroke:#FF0000;stroke-width:0.5" />
<text x="236.69" y="-52.997" transform="scale(1, -1)"
	style="font-family:Liberation Serif;font-variant:normal;font-weight:normal;font-style:normal;font-size:12px">tree find</text>
<path d="M290,47.801L290,42.801" style="fill:none;stroke:#0000FF;stroke-width:0.5" />
<path d="M287.5,45.301L292.5,45.301" style="fill:none;stroke:#0000FF;stroke-width:0.5" />
<text x="212.7" y="-42.813" transform="scale(1, -1)"
	style="font-family:Liberation Serif;font-variant:normal;font-weight:normal;font-style:normal;font-size:12px">binary search</text>
</g>
</svg>
