<?xml version="1.0" encoding="utf-8"?>
<!-- Generator: Adobe Illustrator 26.0.1, SVG Export Plug-In . SVG Version: 6.00 Build 0)  -->
<svg version="1.1" id="Layer_1" xmlns="http://www.w3.org/2000/svg" xmlns:xlink="http://www.w3.org/1999/xlink" x="0px" y="0px"
	 viewBox="0 0 300 300" style="enable-background:new 0 0 300 300;" xml:space="preserve">
<style type="text/css">
	.st0{fill:#FFFFFF;}
	.st1{font-family:'ArialMT';}
	.st2{font-size:12px;}
	.st3{font-size:10px;}
	.st4{fill:none;stroke:#000000;stroke-width:0.5;}
	.st5{fill:none;stroke:#0000FF;stroke-width:0.5;}
	.st6{fill:none;stroke:#FF0000;stroke-width:0.5;}
</style>
<g transform="scale(1, -1) translate(0, -300)">
	<path class="st0" d="M0,0h300v300H0V0z"/>
	<text transform="matrix(1 0 0 -1 49.324 288.81)" class="st1 st2">array binary search VS binary tree search</text>
	<text transform="matrix(1 0 0 -1 111.51 276.81)" class="st1 st2">median, 200 tries</text>
	<text transform="matrix(1 0 0 -1 170.57 3.9023)" class="st1 st2">n</text>
	<text transform="matrix(1 0 0 -1 62.774 16.541)" class="st1 st3">10000</text>
	<text transform="matrix(1 0 0 -1 165.34 16.541)" class="st1 st3">50000</text>
	<text transform="matrix(1 0 0 -1 267.9 16.541)" class="st1 st3">90000</text>
	<path class="st4" d="M75.3,24.4v8"/>
	<path class="st4" d="M177.8,24.4v8"/>
	<path class="st4" d="M280.4,24.4v8"/>
	<path class="st4" d="M100.9,28.4v4"/>
	<path class="st4" d="M126.6,28.4v4"/>
	<path class="st4" d="M152.2,28.4v4"/>
	<path class="st4" d="M203.5,28.4v4"/>
	<path class="st4" d="M229.1,28.4v4"/>
	<path class="st4" d="M254.8,28.4v4"/>
	<path class="st4" d="M49.6,32.4h247.9"/>
	<g transform="rotate(90)">
		<text transform="matrix(1 0 0 -1 127.0703 -9.3867)" class="st1 st2">runtime (ns)</text>
	</g>
	<text transform="matrix(1 0 0 -1 20.885 51.397)" class="st1 st3">50</text>
	<text transform="matrix(1 0 0 -1 15.885 119.98)" class="st1 st3">100</text>
	<text transform="matrix(1 0 0 -1 15.885 188.57)" class="st1 st3">150</text>
	<text transform="matrix(1 0 0 -1 15.885 257.15)" class="st1 st3">200</text>
	<path class="st4" d="M33.4,53.7h8"/>
	<path class="st4" d="M33.4,122.3h8"/>
	<path class="st4" d="M33.4,190.9h8"/>
	<path class="st4" d="M33.4,259.4h8"/>
	<path class="st4" d="M37.4,67.4h4"/>
	<path class="st4" d="M37.4,81.1h4"/>
	<path class="st4" d="M37.4,94.8h4"/>
	<path class="st4" d="M37.4,108.6h4"/>
	<path class="st4" d="M37.4,136h4"/>
	<path class="st4" d="M37.4,149.7h4"/>
	<path class="st4" d="M37.4,163.4h4"/>
	<path class="st4" d="M37.4,177.1h4"/>
	<path class="st4" d="M37.4,204.6h4"/>
	<path class="st4" d="M37.4,218.3h4"/>
	<path class="st4" d="M37.4,232h4"/>
	<path class="st4" d="M37.4,245.7h4"/>
	<path class="st4" d="M41.4,42.7v227.7"/>
	<path class="st5" d="M49.6,45.2v-5"/>
	<path class="st5" d="M47.1,42.7h5"/>
	<path class="st5" d="M58.2,159.1v-5"/>
	<path class="st5" d="M55.7,156.6h5"/>
	<path class="st5" d="M66.7,159.1v-5"/>
	<path class="st5" d="M64.2,156.6h5"/>
	<path class="st5" d="M75.3,159.1v-5"/>
	<path class="st5" d="M72.8,156.6h5"/>
	<path class="st5" d="M83.8,159.1v-5"/>
	<path class="st5" d="M81.3,156.6h5"/>
	<path class="st5" d="M92.4,159.1v-5"/>
	<path class="st5" d="M89.9,156.6h5"/>
	<path class="st5" d="M100.9,215.3v-5"/>
	<path class="st5" d="M98.4,212.8h5"/>
	<path class="st5" d="M109.5,215.3v-5"/>
	<path class="st5" d="M107,212.8h5"/>
	<path class="st5" d="M118,215.3v-5"/>
	<path class="st5" d="M115.5,212.8h5"/>
	<path class="st5" d="M126.6,215.3v-5"/>
	<path class="st5" d="M124.1,212.8h5"/>
	<path class="st5" d="M135.1,215.3v-5"/>
	<path class="st5" d="M132.6,212.8h5"/>
	<path class="st5" d="M143.6,216.7v-5"/>
	<path class="st5" d="M141.1,214.2h5"/>
	<path class="st5" d="M152.2,216.7v-5"/>
	<path class="st5" d="M149.7,214.2h5"/>
	<path class="st5" d="M160.8,216.7v-5"/>
	<path class="st5" d="M158.2,214.2h5"/>
	<path class="st5" d="M169.3,216.7v-5"/>
	<path class="st5" d="M166.8,214.2h5"/>
	<path class="st5" d="M177.8,215.3v-5"/>
	<path class="st5" d="M175.3,212.8h5"/>
	<path class="st5" d="M186.4,216.7v-5"/>
	<path class="st5" d="M183.9,214.2h5"/>
	<path class="st5" d="M194.9,216.7v-5"/>
	<path class="st5" d="M192.4,214.2h5"/>
	<path class="st5" d="M203.5,216.7v-5"/>
	<path class="st5" d="M201,214.2h5"/>
	<path class="st5" d="M212,216.7v-5"/>
	<path class="st5" d="M209.5,214.2h5"/>
	<path class="st5" d="M220.6,216.7v-5"/>
	<path class="st5" d="M218.1,214.2h5"/>
	<path class="st5" d="M229.1,216.7v-5"/>
	<path class="st5" d="M226.6,214.2h5"/>
	<path class="st5" d="M237.7,216.7v-5"/>
	<path class="st5" d="M235.2,214.2h5"/>
	<path class="st5" d="M246.2,216.7v-5"/>
	<path class="st5" d="M243.7,214.2h5"/>
	<path class="st5" d="M254.8,216.7v-5"/>
	<path class="st5" d="M252.3,214.2h5"/>
	<path class="st5" d="M263.3,216.7v-5"/>
	<path class="st5" d="M260.8,214.2h5"/>
	<path class="st5" d="M271.9,216.7v-5"/>
	<path class="st5" d="M269.4,214.2h5"/>
	<path class="st5" d="M280.4,216.7v-5"/>
	<path class="st5" d="M277.9,214.2h5"/>
	<path class="st5" d="M289,216.7v-5"/>
	<path class="st5" d="M286.5,214.2h5"/>
	<path class="st5" d="M297.5,216.7v-5"/>
	<path class="st5" d="M295,214.2h5"/>
	<path class="st6" d="M49.6,45.2v-5"/>
	<path class="st6" d="M47.1,42.7h5"/>
	<path class="st6" d="M58.2,102.8v-5"/>
	<path class="st6" d="M55.7,100.3h5"/>
	<path class="st6" d="M66.7,216.7v-5"/>
	<path class="st6" d="M64.2,214.2h5"/>
	<path class="st6" d="M75.3,272.9v-5"/>
	<path class="st6" d="M72.8,270.4h5"/>
	<path class="st6" d="M83.8,216.7v-5"/>
	<path class="st6" d="M81.3,214.2h5"/>
	<path class="st6" d="M92.4,216.7v-5"/>
	<path class="st6" d="M89.9,214.2h5"/>
	<path class="st6" d="M100.9,216.7v-5"/>
	<path class="st6" d="M98.4,214.2h5"/>
	<path class="st6" d="M109.5,216.7v-5"/>
	<path class="st6" d="M107,214.2h5"/>
	<path class="st6" d="M118,216.7v-5"/>
	<path class="st6" d="M115.5,214.2h5"/>
	<path class="st6" d="M126.6,215.3v-5"/>
	<path class="st6" d="M124.1,212.8h5"/>
	<path class="st6" d="M135.1,215.3v-5"/>
	<path class="st6" d="M132.6,212.8h5"/>
	<path class="st6" d="M143.6,215.3v-5"/>
	<path class="st6" d="M141.1,212.8h5"/>
	<path class="st6" d="M152.2,216.7v-5"/>
	<path class="st6" d="M149.7,214.2h5"/>
	<path class="st6" d="M160.8,216.7v-5"/>
	<path class="st6" d="M158.2,214.2h5"/>
	<path class="st6" d="M169.3,272.9v-5"/>
	<path class="st6" d="M166.8,270.4h5"/>
	<path class="st6" d="M177.8,216.7v-5"/>
	<path class="st6" d="M175.3,214.2h5"/>
	<path class="st6" d="M186.4,216.7v-5"/>
	<path class="st6" d="M183.9,214.2h5"/>
	<path class="st6" d="M194.9,272.9v-5"/>
	<path class="st6" d="M192.4,270.4h5"/>
	<path class="st6" d="M203.5,216.7v-5"/>
	<path class="st6" d="M201,214.2h5"/>
	<path class="st6" d="M212,216.7v-5"/>
	<path class="st6" d="M209.5,214.2h5"/>
	<path class="st6" d="M220.6,272.9v-5"/>
	<path class="st6" d="M218.1,270.4h5"/>
	<path class="st6" d="M229.1,216.7v-5"/>
	<path class="st6" d="M226.6,214.2h5"/>
	<path class="st6" d="M237.7,216.7v-5"/>
	<path class="st6" d="M235.2,214.2h5"/>
	<path class="st6" d="M246.2,216.7v-5"/>
	<path class="st6" d="M243.7,214.2h5"/>
	<path class="st6" d="M254.8,216.7v-5"/>
	<path class="st6" d="M252.3,214.2h5"/>
	<path class="st6" d="M263.3,216.7v-5"/>
	<path class="st6" d="M260.8,214.2h5"/>
	<path class="st6" d="M271.9,272.9v-5"/>
	<path class="st6" d="M269.4,270.4h5"/>
	<path class="st6" d="M280.4,216.7v-5"/>
	<path class="st6" d="M277.9,214.2h5"/>
	<path class="st6" d="M289,216.7v-5"/>
	<path class="st6" d="M286.5,214.2h5"/>
	<path class="st6" d="M297.5,272.9v-5"/>
	<path class="st6" d="M295,270.4h5"/>
	<path class="st6" d="M290,58v-5"/>
	<path class="st6" d="M287.5,55.5h5"/>
	<text transform="matrix(1 0 0 -1 236.69 52.997)" class="st1 st2">tree find</text>
	<path class="st5" d="M290,47.8v-5"/>
	<path class="st5" d="M287.5,45.3h5"/>
	<text transform="matrix(1 0 0 -1 212.7 42.813)" class="st1 st2">binary search</text>
</g>
</svg>
