<?xml version="1.0" encoding="utf-8"?>
<!-- Generator: Adobe Illustrator 26.0.1, SVG Export Plug-In . SVG Version: 6.00 Build 0)  -->
<svg version="1.1" id="Layer_1" xmlns="http://www.w3.org/2000/svg" xmlns:xlink="http://www.w3.org/1999/xlink" x="0px" y="0px"
	 viewBox="0 0 300 300" style="enable-background:new 0 0 300 300;" xml:space="preserve">
<style type="text/css">
	.st0{fill:#FFFFFF;}
	.st1{font-family:'ArialMT';}
	.st2{font-size:12px;}
	.st3{font-size:10px;}
	.st4{fill:none;stroke:#000000;stroke-width:0.5;}
	.st5{fill:none;stroke:#0000FF;stroke-width:0.5;}
	.st6{fill:none;stroke:#FF0000;stroke-width:0.5;}
</style>
<g transform="scale(1, -1) translate(0, -300)">
	<path class="st0" d="M0,0h300v300H0V0z"/>
	<text transform="matrix(1 0 0 -1 49.324 288.81)" class="st1 st2">array binary search VS binary tree search</text>
	<text transform="matrix(1 0 0 -1 104.84 276.81)" class="st1 st2">maximum, 200 tries</text>
	<text transform="matrix(1 0 0 -1 175.57 3.9023)" class="st1 st2">n</text>
	<text transform="matrix(1 0 0 -1 71.739 16.541)" class="st1 st3">10000</text>
	<text transform="matrix(1 0 0 -1 170.17 16.541)" class="st1 st3">50000</text>
	<text transform="matrix(1 0 0 -1 268.59 16.541)" class="st1 st3">90000</text>
	<path class="st4" d="M84.2,24.4v8"/>
	<path class="st4" d="M182.7,24.4v8"/>
	<path class="st4" d="M281.1,24.4v8"/>
	<path class="st4" d="M108.8,28.4v4"/>
	<path class="st4" d="M133.4,28.4v4"/>
	<path class="st4" d="M158.1,28.4v4"/>
	<path class="st4" d="M207.3,28.4v4"/>
	<path class="st4" d="M231.9,28.4v4"/>
	<path class="st4" d="M256.5,28.4v4"/>
	<path class="st4" d="M59.6,32.4h237.9"/>
	<g transform="rotate(90)">
		<text transform="matrix(1 0 0 -1 127.0703 -9.3867)" class="st1 st2">runtime (ns)</text>
	</g>
	<text transform="matrix(1 0 0 -1 20.885 81.077)" class="st1 st3">3000</text>
	<text transform="matrix(1 0 0 -1 20.885 164.72)" class="st1 st3">9000</text>
	<text transform="matrix(1 0 0 -1 15.885 248.37)" class="st1 st3">15000</text>
	<path class="st4" d="M43.4,83.4h8"/>
	<path class="st4" d="M43.4,167h8"/>
	<path class="st4" d="M43.4,250.7h8"/>
	<path class="st4" d="M47.4,125.2h4"/>
	<path class="st4" d="M47.4,208.8h4"/>
	<path class="st4" d="M51.4,42.7v227.7"/>
	<path class="st5" d="M59.6,98.1v-5"/>
	<path class="st5" d="M57.1,95.6h5"/>
	<path class="st5" d="M67.8,46.4v-5"/>
	<path class="st5" d="M65.3,43.9h5"/>
	<path class="st5" d="M76,46.4v-5"/>
	<path class="st5" d="M73.5,43.9h5"/>
	<path class="st5" d="M84.2,47v-5"/>
	<path class="st5" d="M81.7,44.5h5"/>
	<path class="st5" d="M92.4,47v-5"/>
	<path class="st5" d="M89.9,44.5h5"/>
	<path class="st5" d="M100.6,47v-5"/>
	<path class="st5" d="M98.1,44.5h5"/>
	<path class="st5" d="M108.8,46.9v-5"/>
	<path class="st5" d="M106.3,44.4h5"/>
	<path class="st5" d="M117.1,47v-5"/>
	<path class="st5" d="M114.6,44.5h5"/>
	<path class="st5" d="M125.2,47v-5"/>
	<path class="st5" d="M122.8,44.5h5"/>
	<path class="st5" d="M133.5,47.5v-5"/>
	<path class="st5" d="M131,45h5"/>
	<path class="st5" d="M141.7,47v-5"/>
	<path class="st5" d="M139.2,44.5h5"/>
	<path class="st5" d="M149.9,47v-5"/>
	<path class="st5" d="M147.4,44.5h5"/>
	<path class="st5" d="M158.1,47.5v-5"/>
	<path class="st5" d="M155.6,45h5"/>
	<path class="st5" d="M166.3,47v-5"/>
	<path class="st5" d="M163.8,44.5h5"/>
	<path class="st5" d="M174.5,47.5v-5"/>
	<path class="st5" d="M172,45h5"/>
	<path class="st5" d="M182.7,47.5v-5"/>
	<path class="st5" d="M180.2,45h5"/>
	<path class="st5" d="M190.9,47.5v-5"/>
	<path class="st5" d="M188.4,45h5"/>
	<path class="st5" d="M199.1,47.5v-5"/>
	<path class="st5" d="M196.6,45h5"/>
	<path class="st5" d="M207.3,47.5v-5"/>
	<path class="st5" d="M204.8,45h5"/>
	<path class="st5" d="M215.5,47.5v-5"/>
	<path class="st5" d="M213,45h5"/>
	<path class="st5" d="M223.7,47.5v-5"/>
	<path class="st5" d="M221.2,45h5"/>
	<path class="st5" d="M231.9,47.5v-5"/>
	<path class="st5" d="M229.4,45h5"/>
	<path class="st5" d="M240.1,47.5v-5"/>
	<path class="st5" d="M237.6,45h5"/>
	<path class="st5" d="M248.3,85.9v-5"/>
	<path class="st5" d="M245.8,83.4h5"/>
	<path class="st5" d="M256.5,47.5v-5"/>
	<path class="st5" d="M254,45h5"/>
	<path class="st5" d="M264.7,47.5v-5"/>
	<path class="st5" d="M262.2,45h5"/>
	<path class="st5" d="M272.9,47.5v-5"/>
	<path class="st5" d="M270.4,45h5"/>
	<path class="st5" d="M281.1,47.5v-5"/>
	<path class="st5" d="M278.6,45h5"/>
	<path class="st5" d="M289.3,47.5v-5"/>
	<path class="st5" d="M286.8,45h5"/>
	<path class="st5" d="M297.5,47.5v-5"/>
	<path class="st5" d="M295,45h5"/>
	<path class="st6" d="M59.6,45.2v-5"/>
	<path class="st6" d="M57.1,42.7h5"/>
	<path class="st6" d="M67.8,47.5v-5"/>
	<path class="st6" d="M65.3,45h5"/>
	<path class="st6" d="M76,47.5v-5"/>
	<path class="st6" d="M73.5,45h5"/>
	<path class="st6" d="M84.2,48.1v-5"/>
	<path class="st6" d="M81.7,45.6h5"/>
	<path class="st6" d="M92.4,48.1v-5"/>
	<path class="st6" d="M89.9,45.6h5"/>
	<path class="st6" d="M100.6,48.7v-5"/>
	<path class="st6" d="M98.1,46.2h5"/>
	<path class="st6" d="M108.8,49.3v-5"/>
	<path class="st6" d="M106.3,46.8h5"/>
	<path class="st6" d="M117.1,48.1v-5"/>
	<path class="st6" d="M114.6,45.6h5"/>
	<path class="st6" d="M125.2,48.1v-5"/>
	<path class="st6" d="M122.8,45.6h5"/>
	<path class="st6" d="M133.5,48.7v-5"/>
	<path class="st6" d="M131,46.2h5"/>
	<path class="st6" d="M141.7,48.1v-5"/>
	<path class="st6" d="M139.2,45.6h5"/>
	<path class="st6" d="M149.9,48.1v-5"/>
	<path class="st6" d="M147.4,45.6h5"/>
	<path class="st6" d="M158.1,47.5v-5"/>
	<path class="st6" d="M155.6,45h5"/>
	<path class="st6" d="M166.3,48.1v-5"/>
	<path class="st6" d="M163.8,45.6h5"/>
	<path class="st6" d="M174.5,48.1v-5"/>
	<path class="st6" d="M172,45.6h5"/>
	<path class="st6" d="M182.7,49.3v-5"/>
	<path class="st6" d="M180.2,46.8h5"/>
	<path class="st6" d="M190.9,49.9v-5"/>
	<path class="st6" d="M188.4,47.4h5"/>
	<path class="st6" d="M199.1,48.1v-5"/>
	<path class="st6" d="M196.6,45.6h5"/>
	<path class="st6" d="M207.3,48.1v-5"/>
	<path class="st6" d="M204.8,45.6h5"/>
	<path class="st6" d="M215.5,272.9v-5"/>
	<path class="st6" d="M213,270.4h5"/>
	<path class="st6" d="M223.7,48.1v-5"/>
	<path class="st6" d="M221.2,45.6h5"/>
	<path class="st6" d="M231.9,48.1v-5"/>
	<path class="st6" d="M229.4,45.6h5"/>
	<path class="st6" d="M240.1,48.1v-5"/>
	<path class="st6" d="M237.6,45.6h5"/>
	<path class="st6" d="M248.3,48.1v-5"/>
	<path class="st6" d="M245.8,45.6h5"/>
	<path class="st6" d="M256.5,48.7v-5"/>
	<path class="st6" d="M254,46.2h5"/>
	<path class="st6" d="M264.7,94.6v-5"/>
	<path class="st6" d="M262.2,92.1h5"/>
	<path class="st6" d="M272.9,48.1v-5"/>
	<path class="st6" d="M270.4,45.6h5"/>
	<path class="st6" d="M281.1,85.9v-5"/>
	<path class="st6" d="M278.6,83.4h5"/>
	<path class="st6" d="M289.3,49.3v-5"/>
	<path class="st6" d="M286.8,46.8h5"/>
	<path class="st6" d="M297.5,49.3v-5"/>
	<path class="st6" d="M295,46.8h5"/>
	<path class="st6" d="M290,58v-5"/>
	<path class="st6" d="M287.5,55.5h5"/>
	<text transform="matrix(1 0 0 -1 236.69 52.997)" class="st1 st2">tree find</text>
	<path class="st5" d="M290,47.8v-5"/>
	<path class="st5" d="M287.5,45.3h5"/>
	<text transform="matrix(1 0 0 -1 212.7 42.813)" class="st1 st2">binary search</text>
</g>
</svg>
