<?xml version="1.0"?>
<!-- Generated by SVGo and Plotinum VG -->
<svg width="300pt" height="300pt" viewBox="0 0 300 300"
	xmlns="http://www.w3.org/2000/svg"
	xmlns:xlink="http://www.w3.org/1999/xlink">
<g transform="scale(1, -1) translate(0, -300)">
<path d="M0,0L300,0L300,300L0,300Z" style="fill:#FFFFFF" />
<text x="49.324" y="-288.81" transform="scale(1, -1)"
	style="font-family:Liberation Serif;font-variant:normal;font-weight:normal;font-style:normal;font-size:12px">array binary search VS binary tree search </text>
<text x="111.51" y="-276.81" transform="scale(1, -1)"
	style="font-family:Liberation Serif;font-variant:normal;font-weight:normal;font-style:normal;font-size:12px">median, 20 tries</text>
<text x="68.705" y="-3.252" transform="scale(1, -1)"
	style="font-family:Liberation Serif;font-variant:normal;font-weight:normal;font-style:normal;font-size:10px">10000</text>
<text x="168.53" y="-3.252" transform="scale(1, -1)"
	style="font-family:Liberation Serif;font-variant:normal;font-weight:normal;font-style:normal;font-size:10px">50000</text>
<text x="268.36" y="-3.252" transform="scale(1, -1)"
	style="font-family:Liberation Serif;font-variant:normal;font-weight:normal;font-style:normal;font-size:10px">90000</text>
<path d="M81.205,11.074L81.205,19.074" style="fill:none;stroke:#000000;stroke-width:0.5" />
<path d="M181.03,11.074L181.03,19.074" style="fill:none;stroke:#000000;stroke-width:0.5" />
<path d="M280.86,11.074L280.86,19.074" style="fill:none;stroke:#000000;stroke-width:0.5" />
<path d="M106.16,15.074L106.16,19.074" style="fill:none;stroke:#000000;stroke-width:0.5" />
<path d="M131.12,15.074L131.12,19.074" style="fill:none;stroke:#000000;stroke-width:0.5" />
<path d="M156.08,15.074L156.08,19.074" style="fill:none;stroke:#000000;stroke-width:0.5" />
<path d="M205.99,15.074L205.99,19.074" style="fill:none;stroke:#000000;stroke-width:0.5" />
<path d="M230.95,15.074L230.95,19.074" style="fill:none;stroke:#000000;stroke-width:0.5" />
<path d="M255.9,15.074L255.9,19.074" style="fill:none;stroke:#000000;stroke-width:0.5" />
<path d="M56.25,19.074L297.5,19.074" style="fill:none;stroke:#000000;stroke-width:0.5" />
<text x="5" y="-54.786" transform="scale(1, -1)"
	style="font-family:Liberation Serif;font-variant:normal;font-weight:normal;font-style:normal;font-size:10px">2500.00</text>
<text x="0" y="-148.68" transform="scale(1, -1)"
	style="font-family:Liberation Serif;font-variant:normal;font-weight:normal;font-style:normal;font-size:10px">10000.00</text>
<text x="0" y="-242.58" transform="scale(1, -1)"
	style="font-family:Liberation Serif;font-variant:normal;font-weight:normal;font-style:normal;font-size:10px">17500.00</text>
<path d="M40,57.071L48,57.071" style="fill:none;stroke:#000000;stroke-width:0.5" />
<path d="M40,150.97L48,150.97" style="fill:none;stroke:#000000;stroke-width:0.5" />
<path d="M40,244.86L48,244.86" style="fill:none;stroke:#000000;stroke-width:0.5" />
<path d="M44,104.02L48,104.02" style="fill:none;stroke:#000000;stroke-width:0.5" />
<path d="M44,197.91L48,197.91" style="fill:none;stroke:#000000;stroke-width:0.5" />
<path d="M48,26.824L48,270.41" style="fill:none;stroke:#000000;stroke-width:0.5" />
<path d="M56.25,30.889L56.25,25.889" style="fill:none;stroke:#0000FF;stroke-width:0.5" />
<path d="M53.75,28.389L58.75,28.389" style="fill:none;stroke:#0000FF;stroke-width:0.5" />
<path d="M64.568,30.363L64.568,25.363" style="fill:none;stroke:#0000FF;stroke-width:0.5" />
<path d="M62.068,27.863L67.068,27.863" style="fill:none;stroke:#0000FF;stroke-width:0.5" />
<path d="M72.886,30.363L72.886,25.363" style="fill:none;stroke:#0000FF;stroke-width:0.5" />
<path d="M70.386,27.863L75.386,27.863" style="fill:none;stroke:#0000FF;stroke-width:0.5" />
<path d="M81.207,31.402L81.207,26.402" style="fill:none;stroke:#0000FF;stroke-width:0.5" />
<path d="M78.707,28.902L83.707,28.902" style="fill:none;stroke:#0000FF;stroke-width:0.5" />
<path d="M89.525,83.045L89.525,78.045" style="fill:none;stroke:#0000FF;stroke-width:0.5" />
<path d="M87.025,80.545L92.025,80.545" style="fill:none;stroke:#0000FF;stroke-width:0.5" />
<path d="M97.843,31.928L97.843,26.928" style="fill:none;stroke:#0000FF;stroke-width:0.5" />
<path d="M95.343,29.428L100.34,29.428" style="fill:none;stroke:#0000FF;stroke-width:0.5" />
<path d="M106.16,30.889L106.16,25.889" style="fill:none;stroke:#0000FF;stroke-width:0.5" />
<path d="M103.66,28.389L108.66,28.389" style="fill:none;stroke:#0000FF;stroke-width:0.5" />
<path d="M114.48,30.889L114.48,25.889" style="fill:none;stroke:#0000FF;stroke-width:0.5" />
<path d="M111.98,28.389L116.98,28.389" style="fill:none;stroke:#0000FF;stroke-width:0.5" />
<path d="M122.8,30.889L122.8,25.889" style="fill:none;stroke:#0000FF;stroke-width:0.5" />
<path d="M120.3,28.389L125.3,28.389" style="fill:none;stroke:#0000FF;stroke-width:0.5" />
<path d="M131.12,31.928L131.12,26.928" style="fill:none;stroke:#0000FF;stroke-width:0.5" />
<path d="M128.62,29.428L133.62,29.428" style="fill:none;stroke:#0000FF;stroke-width:0.5" />
<path d="M139.44,30.889L139.44,25.889" style="fill:none;stroke:#0000FF;stroke-width:0.5" />
<path d="M136.94,28.389L141.94,28.389" style="fill:none;stroke:#0000FF;stroke-width:0.5" />
<path d="M147.76,31.402L147.76,26.402" style="fill:none;stroke:#0000FF;stroke-width:0.5" />
<path d="M145.26,28.902L150.26,28.902" style="fill:none;stroke:#0000FF;stroke-width:0.5" />
<path d="M156.08,31.928L156.08,26.928" style="fill:none;stroke:#0000FF;stroke-width:0.5" />
<path d="M153.58,29.428L158.58,29.428" style="fill:none;stroke:#0000FF;stroke-width:0.5" />
<path d="M164.4,30.889L164.4,25.889" style="fill:none;stroke:#0000FF;stroke-width:0.5" />
<path d="M161.9,28.389L166.9,28.389" style="fill:none;stroke:#0000FF;stroke-width:0.5" />
<path d="M172.71,30.889L172.71,25.889" style="fill:none;stroke:#0000FF;stroke-width:0.5" />
<path d="M170.21,28.389L175.21,28.389" style="fill:none;stroke:#0000FF;stroke-width:0.5" />
<path d="M181.04,31.402L181.04,26.402" style="fill:none;stroke:#0000FF;stroke-width:0.5" />
<path d="M178.54,28.902L183.54,28.902" style="fill:none;stroke:#0000FF;stroke-width:0.5" />
<path d="M189.35,32.442L189.35,27.442" style="fill:none;stroke:#0000FF;stroke-width:0.5" />
<path d="M186.85,29.942L191.85,29.942" style="fill:none;stroke:#0000FF;stroke-width:0.5" />
<path d="M197.67,32.454L197.67,27.454" style="fill:none;stroke:#0000FF;stroke-width:0.5" />
<path d="M195.17,29.954L200.17,29.954" style="fill:none;stroke:#0000FF;stroke-width:0.5" />
<path d="M205.99,30.889L205.99,25.889" style="fill:none;stroke:#0000FF;stroke-width:0.5" />
<path d="M203.49,28.389L208.49,28.389" style="fill:none;stroke:#0000FF;stroke-width:0.5" />
<path d="M214.31,31.402L214.31,26.402" style="fill:none;stroke:#0000FF;stroke-width:0.5" />
<path d="M211.81,28.902L216.81,28.902" style="fill:none;stroke:#0000FF;stroke-width:0.5" />
<path d="M222.63,31.402L222.63,26.402" style="fill:none;stroke:#0000FF;stroke-width:0.5" />
<path d="M220.13,28.902L225.13,28.902" style="fill:none;stroke:#0000FF;stroke-width:0.5" />
<path d="M230.95,31.402L230.95,26.402" style="fill:none;stroke:#0000FF;stroke-width:0.5" />
<path d="M228.45,28.902L233.45,28.902" style="fill:none;stroke:#0000FF;stroke-width:0.5" />
<path d="M239.27,32.967L239.27,27.967" style="fill:none;stroke:#0000FF;stroke-width:0.5" />
<path d="M236.77,30.467L241.77,30.467" style="fill:none;stroke:#0000FF;stroke-width:0.5" />
<path d="M247.59,32.442L247.59,27.442" style="fill:none;stroke:#0000FF;stroke-width:0.5" />
<path d="M245.09,29.942L250.09,29.942" style="fill:none;stroke:#0000FF;stroke-width:0.5" />
<path d="M255.91,31.402L255.91,26.402" style="fill:none;stroke:#0000FF;stroke-width:0.5" />
<path d="M253.41,28.902L258.41,28.902" style="fill:none;stroke:#0000FF;stroke-width:0.5" />
<path d="M264.22,31.402L264.22,26.402" style="fill:none;stroke:#0000FF;stroke-width:0.5" />
<path d="M261.72,28.902L266.72,28.902" style="fill:none;stroke:#0000FF;stroke-width:0.5" />
<path d="M272.54,31.402L272.54,26.402" style="fill:none;stroke:#0000FF;stroke-width:0.5" />
<path d="M270.04,28.902L275.04,28.902" style="fill:none;stroke:#0000FF;stroke-width:0.5" />
<path d="M280.86,32.442L280.86,27.442" style="fill:none;stroke:#0000FF;stroke-width:0.5" />
<path d="M278.36,29.942L283.36,29.942" style="fill:none;stroke:#0000FF;stroke-width:0.5" />
<path d="M289.18,31.928L289.18,26.928" style="fill:none;stroke:#0000FF;stroke-width:0.5" />
<path d="M286.68,29.428L291.68,29.428" style="fill:none;stroke:#0000FF;stroke-width:0.5" />
<path d="M297.5,31.928L297.5,26.928" style="fill:none;stroke:#0000FF;stroke-width:0.5" />
<path d="M295,29.428L300,29.428" style="fill:none;stroke:#0000FF;stroke-width:0.5" />
<path d="M56.25,29.324L56.25,24.324" style="fill:none;stroke:#FF0000;stroke-width:0.5" />
<path d="M53.75,26.824L58.75,26.824" style="fill:none;stroke:#FF0000;stroke-width:0.5" />
<path d="M64.568,30.363L64.568,25.363" style="fill:none;stroke:#FF0000;stroke-width:0.5" />
<path d="M62.068,27.863L67.068,27.863" style="fill:none;stroke:#FF0000;stroke-width:0.5" />
<path d="M72.886,31.402L72.886,26.402" style="fill:none;stroke:#FF0000;stroke-width:0.5" />
<path d="M70.386,28.902L75.386,28.902" style="fill:none;stroke:#FF0000;stroke-width:0.5" />
<path d="M81.207,31.928L81.207,26.928" style="fill:none;stroke:#FF0000;stroke-width:0.5" />
<path d="M78.707,29.428L83.707,29.428" style="fill:none;stroke:#FF0000;stroke-width:0.5" />
<path d="M89.525,32.442L89.525,27.442" style="fill:none;stroke:#FF0000;stroke-width:0.5" />
<path d="M87.025,29.942L92.025,29.942" style="fill:none;stroke:#FF0000;stroke-width:0.5" />
<path d="M97.843,32.442L97.843,27.442" style="fill:none;stroke:#FF0000;stroke-width:0.5" />
<path d="M95.343,29.942L100.34,29.942" style="fill:none;stroke:#FF0000;stroke-width:0.5" />
<path d="M106.16,32.967L106.16,27.967" style="fill:none;stroke:#FF0000;stroke-width:0.5" />
<path d="M103.66,30.467L108.66,30.467" style="fill:none;stroke:#FF0000;stroke-width:0.5" />
<path d="M114.48,31.928L114.48,26.928" style="fill:none;stroke:#FF0000;stroke-width:0.5" />
<path d="M111.98,29.428L116.98,29.428" style="fill:none;stroke:#FF0000;stroke-width:0.5" />
<path d="M122.8,32.454L122.8,27.454" style="fill:none;stroke:#FF0000;stroke-width:0.5" />
<path d="M120.3,29.954L125.3,29.954" style="fill:none;stroke:#FF0000;stroke-width:0.5" />
<path d="M131.12,31.402L131.12,26.402" style="fill:none;stroke:#FF0000;stroke-width:0.5" />
<path d="M128.62,28.902L133.62,28.902" style="fill:none;stroke:#FF0000;stroke-width:0.5" />
<path d="M139.44,32.442L139.44,27.442" style="fill:none;stroke:#FF0000;stroke-width:0.5" />
<path d="M136.94,29.942L141.94,29.942" style="fill:none;stroke:#FF0000;stroke-width:0.5" />
<path d="M147.76,32.454L147.76,27.454" style="fill:none;stroke:#FF0000;stroke-width:0.5" />
<path d="M145.26,29.954L150.26,29.954" style="fill:none;stroke:#FF0000;stroke-width:0.5" />
<path d="M156.08,34.019L156.08,29.019" style="fill:none;stroke:#FF0000;stroke-width:0.5" />
<path d="M153.58,31.519L158.58,31.519" style="fill:none;stroke:#FF0000;stroke-width:0.5" />
<path d="M164.4,53.837L164.4,48.837" style="fill:none;stroke:#FF0000;stroke-width:0.5" />
<path d="M161.9,51.337L166.9,51.337" style="fill:none;stroke:#FF0000;stroke-width:0.5" />
<path d="M172.71,34.006L172.71,29.006" style="fill:none;stroke:#FF0000;stroke-width:0.5" />
<path d="M170.21,31.506L175.21,31.506" style="fill:none;stroke:#FF0000;stroke-width:0.5" />
<path d="M181.04,32.967L181.04,27.967" style="fill:none;stroke:#FF0000;stroke-width:0.5" />
<path d="M178.54,30.467L183.54,30.467" style="fill:none;stroke:#FF0000;stroke-width:0.5" />
<path d="M189.35,31.928L189.35,26.928" style="fill:none;stroke:#FF0000;stroke-width:0.5" />
<path d="M186.85,29.428L191.85,29.428" style="fill:none;stroke:#FF0000;stroke-width:0.5" />
<path d="M197.67,32.442L197.67,27.442" style="fill:none;stroke:#FF0000;stroke-width:0.5" />
<path d="M195.17,29.942L200.17,29.942" style="fill:none;stroke:#FF0000;stroke-width:0.5" />
<path d="M205.99,33.493L205.99,28.493" style="fill:none;stroke:#FF0000;stroke-width:0.5" />
<path d="M203.49,30.993L208.49,30.993" style="fill:none;stroke:#FF0000;stroke-width:0.5" />
<path d="M214.31,136.25L214.31,131.25" style="fill:none;stroke:#FF0000;stroke-width:0.5" />
<path d="M211.81,133.75L216.81,133.75" style="fill:none;stroke:#FF0000;stroke-width:0.5" />
<path d="M222.63,31.928L222.63,26.928" style="fill:none;stroke:#FF0000;stroke-width:0.5" />
<path d="M220.13,29.428L225.13,29.428" style="fill:none;stroke:#FF0000;stroke-width:0.5" />
<path d="M230.95,31.928L230.95,26.928" style="fill:none;stroke:#FF0000;stroke-width:0.5" />
<path d="M228.45,29.428L233.45,29.428" style="fill:none;stroke:#FF0000;stroke-width:0.5" />
<path d="M239.27,66.356L239.27,61.356" style="fill:none;stroke:#FF0000;stroke-width:0.5" />
<path d="M236.77,63.856L241.77,63.856" style="fill:none;stroke:#FF0000;stroke-width:0.5" />
<path d="M247.59,61.649L247.59,56.649" style="fill:none;stroke:#FF0000;stroke-width:0.5" />
<path d="M245.09,59.149L250.09,59.149" style="fill:none;stroke:#FF0000;stroke-width:0.5" />
<path d="M255.91,32.442L255.91,27.442" style="fill:none;stroke:#FF0000;stroke-width:0.5" />
<path d="M253.41,29.942L258.41,29.942" style="fill:none;stroke:#FF0000;stroke-width:0.5" />
<path d="M264.22,32.967L264.22,27.967" style="fill:none;stroke:#FF0000;stroke-width:0.5" />
<path d="M261.72,30.467L266.72,30.467" style="fill:none;stroke:#FF0000;stroke-width:0.5" />
<path d="M272.54,31.928L272.54,26.928" style="fill:none;stroke:#FF0000;stroke-width:0.5" />
<path d="M270.04,29.428L275.04,29.428" style="fill:none;stroke:#FF0000;stroke-width:0.5" />
<path d="M280.86,39.753L280.86,34.753" style="fill:none;stroke:#FF0000;stroke-width:0.5" />
<path d="M278.36,37.253L283.36,37.253" style="fill:none;stroke:#FF0000;stroke-width:0.5" />
<path d="M289.18,31.928L289.18,26.928" style="fill:none;stroke:#FF0000;stroke-width:0.5" />
<path d="M286.68,29.428L291.68,29.428" style="fill:none;stroke:#FF0000;stroke-width:0.5" />
<path d="M297.5,272.91L297.5,267.91" style="fill:none;stroke:#FF0000;stroke-width:0.5" />
<path d="M295,270.41L300,270.41" style="fill:none;stroke:#FF0000;stroke-width:0.5" />
</g>
</svg>
